<svg width="48" height="48" viewBox="0 0 48 48" fill="none" xmlns="http://www.w3.org/2000/svg">
<circle cx="24" cy="24" r="23.5" fill="#EDE8E5" stroke="#D6C5B4"/>
<path d="M36 24.0441C36 17.3924 30.6274 12 24 12C17.3726 12 12 17.3924 12 24.0441C12 29.6923 15.8746 34.4319 21.1013 35.7336V27.7247H18.6269V24.0441H21.1013V22.4581C21.1013 18.3588 22.9498 16.4587 26.9597 16.4587C27.72 16.4587 29.0318 16.6085 29.5685 16.7579V20.0941C29.2853 20.0642 28.7933 20.0493 28.1822 20.0493C26.2147 20.0493 25.4544 20.7975 25.4544 22.7424V24.0441H29.3741L28.7006 27.7247H25.4544V36C31.3954 35.2798 36 30.202 36 24.0441Z" fill="black"/>
</svg>
