<svg width="367" height="339" viewBox="0 0 367 339" fill="none" xmlns="http://www.w3.org/2000/svg">
<g clip-path="url(#clip0_13_729)">
<rect width="367" height="339" rx="32" fill="#FFF3E4"/>
<path d="M0 0H257.584H644V26.0661V52.1648V78.2162V104.278V130.279V156.386V182.423V208.511V234.589V260.68V286.713V312.813V339H0V312.818V286.716V260.681V234.583V208.512V182.485V0Z" fill="#FEFEFF"/>
<path d="M0 260.681L644 260.68V286.713V312.813V339H0V312.818V286.716V260.681Z" fill="#FEFEFF"/>
<path d="M0 312.818L644 312.813V339H0V312.818Z" fill="#B41942"/>
<path d="M0 260.681L644 260.68V286.713L0 286.716V260.681Z" fill="#B41942"/>
<path d="M0 0H257.584L257.569 26.0885L257.575 52.1412L257.566 78.2203L257.579 104.276L257.568 130.318L257.576 156.384L257.569 182.433C248.205 182.704 237.693 182.472 228.2 182.473L171.584 182.472L0 182.485V0Z" fill="#0A3262"/>
<path d="M128.747 62.8876C129.638 64.7298 130.487 67.7277 131.128 69.7667L138.774 69.7569L132.625 74.2168L134.98 81.4741L128.841 76.9951C126.918 78.2423 124.657 79.9911 122.654 81.354L125.022 74.2526C123.057 72.8218 120.914 71.3262 119.083 69.7535L126.459 69.7544C127.201 67.4588 127.963 65.1694 128.747 62.8876Z" fill="#FEFEFF"/>
<path d="M128.75 135.884C129.468 137.189 130.619 141.123 131.126 142.747L138.724 142.758L132.602 147.216L134.99 154.439L128.819 149.947C126.801 151.452 124.75 152.911 122.667 154.325L125.015 147.254C123.061 145.737 120.966 144.439 119.135 142.741L126.462 142.738C127.187 140.441 127.949 138.156 128.75 135.884Z" fill="#FEFEFF"/>
<path d="M64.3644 44.6911C64.8836 45.4128 66.36 50.3399 66.7332 51.5261H74.3122L68.2313 55.9627L70.5236 63.1946L64.6276 58.8734C63.8078 58.9055 59.2083 62.4703 58.2439 63.1829L60.636 55.9702C58.6411 54.5475 56.5742 53.1327 54.7346 51.5214L62.04 51.5286C62.7598 49.2311 63.5349 46.9515 64.3644 44.6911Z" fill="#FEFEFF"/>
<path d="M150.201 44.6169C150.766 45.421 152.211 50.2682 152.61 51.5308L160.141 51.5264L154.07 55.9809L156.369 63.1641L150.472 58.8737C149.681 58.9067 145.06 62.5313 144.088 63.2568L146.496 55.9447C144.501 54.5372 142.412 53.1258 140.581 51.5195L147.908 51.5318C148.656 49.2213 149.421 46.9166 150.201 44.6169Z" fill="#FEFEFF"/>
<path d="M42.8744 62.8166C43.5096 63.9053 44.797 68.2997 45.2526 69.7626L52.8407 69.7708L46.7227 74.2004L49.0958 81.4053L42.9782 76.9782C40.9323 78.4612 38.8705 79.9216 36.7926 81.3591L39.1635 74.2608C37.1183 72.7721 35.1398 71.3428 33.1738 69.7507L40.611 69.7592C41.2924 67.4899 42.1317 65.082 42.8744 62.8166Z" fill="#FEFEFF"/>
<path d="M214.58 26.334C215.318 27.5555 216.494 31.7116 216.972 33.2943L224.607 33.2953L218.442 37.7362C219.259 40.0715 220.002 42.5115 220.752 44.8754L214.719 40.5221C214.266 40.736 209.55 44.1678 208.548 44.8452L210.889 37.7347C208.875 36.2796 206.878 34.8 204.899 33.2968L212.322 33.2874L214.58 26.334Z" fill="#FEFEFF"/>
<path d="M214.588 135.774C215.301 137.036 216.48 141.137 216.972 142.744L224.639 142.755L218.464 147.204C219.243 149.583 220.002 151.969 220.74 154.361L214.708 149.987C213.923 150.397 209.681 153.552 208.539 154.343L210.862 147.236C209.004 145.876 206.645 144.239 204.967 142.741L212.33 142.744L214.588 135.774Z" fill="#FEFEFF"/>
<path d="M42.8731 135.786C43.4986 136.838 44.8054 141.306 45.2519 142.746L52.8771 142.761L46.7308 147.218L49.0949 154.377C47.0946 153.017 44.9444 151.387 42.9668 149.956L36.7963 154.358L39.1588 147.272C37.1872 145.73 35.1429 144.438 33.2493 142.74L40.6273 142.743C41.2543 140.528 42.1483 138.001 42.8731 135.786Z" fill="#FEFEFF"/>
<path d="M64.3583 81.1792C64.8812 81.8697 66.3846 86.8629 66.7541 88.0268L74.3365 88.0397L68.2163 92.4615L70.4945 99.6754L64.6265 95.376C63.8391 95.3675 59.1956 99.0091 58.2264 99.7286L60.6238 92.5005L54.5376 88.0447L62.0471 88.0183C62.7587 85.7192 63.5294 83.4386 64.3583 81.1792Z" fill="#FEFEFF"/>
<path d="M235.984 81.3358C236.796 82.0805 238.069 86.6711 238.498 88.0299L246.059 88.0413L239.962 92.4171C240.627 94.7996 241.475 97.3115 242.232 99.6817L236.173 95.2357C234.841 96.0134 231.377 98.6968 229.969 99.727L232.337 92.4476L226.285 88.0441L233.774 88.0199L235.984 81.3358Z" fill="#FEFEFF"/>
<path d="M64.3662 8.15436C64.8658 8.92113 66.3796 13.8645 66.756 15.0395L74.3265 15.0549L68.2185 19.4644L70.5071 26.7166L64.6338 22.3809C63.759 22.498 59.4654 25.7893 58.2894 26.6063L60.6355 19.5006L54.5571 15.0401L62.0502 15.0247C62.7769 12.7196 63.5492 10.429 64.3662 8.15436Z" fill="#FEFEFF"/>
<path d="M64.2646 154.304C64.9557 154.802 66.3749 159.807 66.745 160.989L74.3029 160.999L68.2075 165.43C69.0009 167.805 69.7493 170.195 70.4524 172.599L64.624 168.353C63.8429 168.322 59.1799 172.028 58.2359 172.739L60.6238 165.476L54.542 161.001L62.048 160.983L64.2646 154.304Z" fill="#FEFEFF"/>
<path d="M150.191 81.1248C150.783 81.8883 152.214 86.7701 152.608 88.0296L160.176 88.0378L154.065 92.4464L156.382 99.6754L150.483 95.3414C149.663 95.4036 145.082 98.9628 144.088 99.6959L146.497 92.441L140.424 88.046L147.914 88.0236C148.652 85.7173 149.411 83.4173 150.191 81.1248Z" fill="#FEFEFF"/>
<path d="M42.8747 26.3336C43.5228 27.4342 44.8008 31.8229 45.2561 33.2934L52.8747 33.2931L46.7353 37.712L49.0893 44.9084L43.0056 40.5338C42.471 40.7527 37.5165 44.3773 36.7231 44.9496C37.5639 42.626 38.3611 40.1338 39.1585 37.7818C37.2844 36.2985 34.9644 34.7126 32.999 33.2997L40.6 33.2852C41.3081 30.9863 42.1207 28.6261 42.8747 26.3336Z" fill="#FEFEFF"/>
<path d="M128.731 26.3803C129.481 27.7439 130.601 31.605 131.124 33.2865L138.667 33.2931L132.601 37.7406L135.008 44.959L128.799 40.4508C126.79 41.9807 124.741 43.4587 122.656 44.8839L125.033 37.7381C123.015 36.2912 121.001 34.7752 119.001 33.2984L126.452 33.2827L128.731 26.3803Z" fill="#FEFEFF"/>
<path d="M128.742 99.3842C129.464 100.689 130.618 104.641 131.126 106.27L138.683 106.28L132.602 110.745L134.987 117.931L128.859 113.51C127.674 114.039 123.986 116.941 122.649 117.885L125.026 110.737L118.974 106.27L126.457 106.271C127.2 103.97 127.962 101.674 128.742 99.3842Z" fill="#FEFEFF"/>
<path d="M85.6753 63.0883C86.4847 63.6663 87.8233 68.5 88.2189 69.7626L95.7686 69.756C93.8407 71.2277 91.6685 72.735 89.6896 74.1684L91.9832 81.4333L85.9259 76.9706C84.6122 77.7398 81.1164 80.4556 79.7224 81.4789L82.039 74.203C80.0589 72.7737 78.0105 71.3498 76.1685 69.7535L83.5031 69.7626L85.6753 63.0883Z" fill="#FEFEFF"/>
<path d="M171.583 136.056C172.334 136.633 173.692 141.503 174.083 142.748L181.632 142.75C179.621 144.239 177.538 145.706 175.503 147.17L177.895 154.468L171.717 149.943L165.561 154.456L167.936 147.206L161.827 142.741L169.39 142.742L171.583 136.056Z" fill="#FEFEFF"/>
<path d="M107.295 153.991C107.904 155.178 109.194 159.508 109.67 160.994L117.308 161L111.126 165.461L113.464 172.619C111.464 171.257 109.282 169.599 107.3 168.165C105.558 169.577 103.09 171.261 101.233 172.61C101.929 170.286 102.798 167.804 103.561 165.484C101.77 164.181 99.2376 162.442 97.6663 160.994L105.021 160.984C105.687 158.712 106.549 156.258 107.295 153.991Z" fill="#FEFEFF"/>
<path d="M150.089 154.281C150.866 154.807 152.229 159.791 152.597 160.994L160.184 160.995L154.053 165.43L156.399 172.662L150.472 168.341C149.729 168.334 145.037 172.006 144.106 172.697L146.49 165.433L140.397 160.999L147.91 160.987L150.089 154.281Z" fill="#FEFEFF"/>
<path d="M64.266 117.826C64.9475 118.32 66.3773 123.333 66.7468 124.508L74.3213 124.502L68.2316 128.936L70.5208 136.151L64.6229 131.863C63.8098 131.858 59.1879 135.496 58.1962 136.234L60.625 128.966L54.5784 124.501L62.04 124.506L64.266 117.826Z" fill="#FEFEFF"/>
<path d="M21.2704 154.289C22.138 154.979 23.3791 159.631 23.797 160.993L31.4606 160.994L25.2302 165.439L27.6109 172.577C25.7864 171.421 23.265 169.478 21.4549 168.17C19.4951 169.66 17.3785 171.148 15.3783 172.602L17.6388 165.443C15.869 164.159 13.3417 162.429 11.8008 160.993L19.1434 160.986L21.2704 154.289Z" fill="#FEFEFF"/>
<path d="M214.585 62.8122C215.289 63.9939 216.496 68.2097 216.97 69.7617L224.647 69.7614L218.481 74.2193L220.75 81.3845L214.925 77.148C214.013 77.242 209.689 80.5483 208.547 81.3609L210.88 74.2177L204.828 69.7485L212.329 69.7635L214.585 62.8122Z" fill="#FEFEFF"/>
<path d="M171.759 62.803C172.541 64.7663 173.415 67.6931 174.103 69.7629L181.576 69.7563C179.642 71.2997 177.522 72.7469 175.491 74.1743L177.825 81.3471C175.88 80.0408 173.674 78.3606 171.746 76.9706L165.597 81.4355L167.929 74.225C165.964 72.8039 163.841 71.3271 162.015 69.7525L169.384 69.7591C170.15 67.3468 170.861 65.1675 171.759 62.803Z" fill="#FEFEFF"/>
<path d="M150.194 117.615C150.759 118.358 152.223 123.274 152.614 124.509L160.129 124.505C158.167 125.993 156.067 127.48 154.071 128.939L156.393 136.18L150.468 131.859C149.7 131.855 145.023 135.554 144.081 136.261L146.486 128.943L140.418 124.502L147.908 124.509C148.655 122.206 149.417 119.908 150.194 117.615Z" fill="#FEFEFF"/>
<path d="M193.078 117.784C193.932 118.987 195.034 122.877 195.549 124.509L203.173 124.497L196.992 128.973L199.35 136.103C197.467 134.872 195.134 133.078 193.27 131.73C192.681 132.01 187.86 135.576 187.016 136.187L189.401 128.996C187.519 127.523 185.282 126.165 183.585 124.501L190.868 124.506L193.078 117.784Z" fill="#FEFEFF"/>
<path d="M85.68 136.052C86.4702 136.623 87.8293 141.494 88.2226 142.744L95.7918 142.748L89.6908 147.142C90.3647 149.499 91.2552 152.106 92.0017 154.466C90.0955 152.966 87.8475 151.402 85.8683 149.958L79.7129 154.442C80.5167 152.077 81.2751 149.577 82.0405 147.189C80.0805 145.77 77.9765 144.302 76.1436 142.741L83.5036 142.744L85.68 136.052Z" fill="#FEFEFF"/>
<path d="M235.979 8.37128C236.808 9.12208 238.07 13.6851 238.498 15.0405L245.997 15.045C244.181 16.4701 241.865 18.0591 239.967 19.4404C240.699 21.8668 241.451 24.287 242.223 26.7007L236.185 22.2633C234.671 23.1639 231.526 25.6147 229.979 26.7495L232.333 19.4661L226.236 15.0372L233.773 15.0341L235.979 8.37128Z" fill="#FEFEFF"/>
<path d="M85.681 99.5723C86.4794 100.15 87.8315 105.017 88.2258 106.276L95.6903 106.268C93.8913 107.715 91.5433 109.324 89.6431 110.7L92.0606 117.976L85.8807 113.463L79.7362 117.926L82.0412 110.686C80.1177 109.299 77.9813 107.833 76.2285 106.267L83.4899 106.274L85.681 99.5723Z" fill="#FEFEFF"/>
<path d="M214.584 99.2956C215.324 100.616 216.471 104.619 216.981 106.276L224.549 106.273L218.437 110.732C219.25 112.952 220.029 115.578 220.763 117.856L214.924 113.655C214.026 113.744 209.809 116.959 208.559 117.811L210.876 110.724L204.876 106.267L212.338 106.273L214.584 99.2956Z" fill="#FEFEFF"/>
<path d="M107.296 8.06952C108.044 9.58609 109.108 13.2746 109.665 15.0406L117.194 15.0444C115.782 16.2453 112.716 18.3089 111.104 19.4686L113.459 26.6248C111.577 25.3993 109.197 23.5674 107.331 22.2189L101.162 26.7296L103.545 19.5113C101.537 18.0472 99.5065 16.5962 97.5754 15.0331L105.021 15.0343C105.739 12.6997 106.497 10.3778 107.296 8.06952Z" fill="#FEFEFF"/>
<path d="M235.983 44.8574C236.79 45.5964 238.072 50.1821 238.503 51.5321L246.028 51.5151L239.95 55.9419L242.222 63.2244C240.437 61.7785 238.072 60.1417 236.185 58.7602C234.842 59.5391 231.424 62.1505 230.004 63.1732L232.331 55.9598C230.378 54.5595 228.246 53.0928 226.449 51.522L233.763 51.5311L235.983 44.8574Z" fill="#FEFEFF"/>
<path d="M42.872 99.2965C43.5279 100.457 44.7914 104.762 45.2647 106.276L52.854 106.267L46.7369 110.721L49.0721 117.861C47.1828 116.625 44.8471 114.818 42.982 113.459C40.9239 114.958 38.8473 116.431 36.7524 117.878L39.1608 110.753C37.2018 109.33 35.0789 107.855 33.2717 106.266L40.5947 106.271L42.872 99.2965Z" fill="#FEFEFF"/>
<path d="M235.989 154.299C236.779 155.031 238.073 159.655 238.499 160.994L246.028 160.998L239.95 165.401L242.262 172.695C240.334 171.195 238.143 169.67 236.151 168.226C234.75 169.055 231.431 171.638 229.968 172.71L232.346 165.446L226.251 160.999L233.776 160.985L235.989 154.299Z" fill="#FEFEFF"/>
<path d="M150.192 8.11816C150.781 8.94236 152.206 13.7544 152.609 15.0362L160.211 15.0485L154.074 19.467L156.373 26.7139C154.449 25.255 152.429 23.807 150.479 22.3715C149.479 22.5953 145.469 25.7156 144.139 26.6199L146.498 19.4622L140.398 15.0402L147.914 15.0362L150.192 8.11816Z" fill="#FEFEFF"/>
<path d="M171.753 26.3197C172.5 28.1215 173.455 31.346 174.099 33.2934L181.586 33.2924C179.664 34.7764 177.485 36.273 175.496 37.6941L177.842 44.8543C176.132 43.7901 173.435 41.7115 171.719 40.4756L165.6 44.9417L167.933 37.7476L161.838 33.2962L169.381 33.2862C170.146 30.8704 170.865 28.6917 171.753 26.3197Z" fill="#FEFEFF"/>
<path d="M85.6751 26.6078C86.5125 27.2218 87.8024 31.9553 88.22 33.2953L95.7332 33.2906L89.6536 37.7073L91.9865 44.8339C90.3004 43.808 87.5936 41.6995 85.9194 40.474C84.1264 41.6297 81.5394 43.6439 79.7433 44.9496L82.0407 37.7174C80.0678 36.2906 78.0336 34.8686 76.1812 33.295L83.4966 33.2874L85.6751 26.6078Z" fill="#FEFEFF"/>
<path d="M21.2691 81.3248C22.1095 81.9496 23.407 86.6994 23.8206 88.0274L31.3756 88.0368L25.2225 92.4338L27.5979 99.5764C25.8448 98.4962 23.1912 96.4512 21.4485 95.1917L15.3313 99.6628L17.6316 92.4583C15.8457 91.1586 13.4017 89.4778 11.8228 88.0346L19.1481 88.024L21.2691 81.3248Z" fill="#FEFEFF"/>
<path d="M171.58 99.5748C172.34 100.155 173.695 105.023 174.089 106.276L181.568 106.269C179.631 107.772 177.504 109.249 175.503 110.684L177.828 117.825C176.131 116.763 173.456 114.679 171.758 113.441L165.566 117.956L167.936 110.713C166.003 109.321 163.839 107.838 162.081 106.265L169.375 106.272L171.58 99.5748Z" fill="#FEFEFF"/>
<path d="M107.295 81.0298C108.041 82.5761 109.101 86.2422 109.666 88.029L117.331 88.0447C115.413 89.2642 113.001 91.1045 111.112 92.4624L113.439 99.5723C111.641 98.4355 109.107 96.4788 107.322 95.187L101.208 99.6622L103.557 92.4976C101.841 91.253 99.1663 89.4221 97.6978 88.0331L105.016 88.0218C105.705 85.7113 106.533 83.3264 107.295 81.0298Z" fill="#FEFEFF"/>
<path d="M21.2724 44.8452C22.108 45.465 23.4071 50.2239 23.8162 51.5305L31.2896 51.5204C29.5346 52.9503 27.1063 54.6107 25.2349 55.9674L27.6026 63.0873C25.8321 61.9857 23.217 59.9772 21.4538 58.7092L15.3706 63.1911L17.6243 55.9579C15.6556 54.535 13.5949 53.1 11.7625 51.5173L19.1391 51.5311L21.2724 44.8452Z" fill="#FEFEFF"/>
<path d="M193.138 8.07254C194.022 10.0052 194.867 12.9397 195.534 15.0398L203.151 15.0514L196.963 19.47L199.355 26.6446C197.471 25.4101 195.128 23.6022 193.263 22.2492C191.901 23.0428 188.469 25.642 187.039 26.664L189.39 19.5364C187.674 18.1248 185.164 16.3924 183.326 15.0401L190.883 15.0182L193.138 8.07254Z" fill="#FEFEFF"/>
<path d="M21.2726 117.809C22.1347 118.488 23.3836 123.154 23.8005 124.509L31.2989 124.501C29.4358 125.986 27.1928 127.528 25.2375 128.935L27.6093 136.103C25.7501 134.914 23.2727 133.015 21.4257 131.688C19.5742 133.146 17.3044 134.728 15.3809 136.144C16.1023 133.735 16.8488 131.335 17.6203 128.943L11.561 124.506L19.1393 124.51L21.2726 117.809Z" fill="#FEFEFF"/>
<path d="M235.989 117.821C236.779 118.559 238.087 123.193 238.509 124.51L246.01 124.503C244.15 125.954 241.885 127.516 239.952 128.922L242.23 136.19C240.315 134.701 238.15 133.175 236.182 131.726C234.206 133.042 231.962 134.764 230.016 136.181L232.333 128.914C230.617 127.691 227.973 125.92 226.551 124.504L233.766 124.507L235.989 117.821Z" fill="#FEFEFF"/>
<path d="M107.29 117.515C107.864 118.607 109.219 123.093 109.675 124.51L117.225 124.502L111.118 128.984L113.451 136.106L107.366 131.721L101.272 136.102C101.866 133.9 102.834 131.172 103.55 128.961C101.905 127.773 99.0863 125.855 97.7427 124.501L105.005 124.507L107.29 117.515Z" fill="#FEFEFF"/>
<path d="M21.2637 8.3577C22.1155 8.97541 23.4005 13.6984 23.8155 15.033L31.3359 15.0452C29.3348 16.5775 27.284 17.9974 25.2214 19.4438L27.5963 26.6153C25.7379 25.4124 23.3663 23.5828 21.5284 22.2505C20.6322 22.7277 16.3804 25.9359 15.311 26.7123C16.1198 24.3689 16.8713 21.8608 17.6243 19.4871C15.6225 18.019 13.6559 16.5874 11.7153 15.0384L19.1536 15.0353L21.2637 8.3577Z" fill="#FEFEFF"/>
<path d="M193.134 154.012C193.988 155.872 194.884 158.958 195.535 160.988L203.173 161C201.112 162.44 199.024 163.992 196.978 165.468L199.353 172.62C197.382 171.286 195.184 169.598 193.236 168.179L187.034 172.634L189.407 165.494C187.525 164.021 185.27 162.626 183.551 160.994L190.876 160.983L193.134 154.012Z" fill="#FEFEFF"/>
<path d="M107.29 44.553C107.886 45.6663 109.214 50.0978 109.673 51.5305L117.134 51.5186C115.536 52.8806 112.868 54.6957 111.103 55.9715L113.452 63.1373C111.404 61.6898 109.382 60.2071 107.385 58.6898L101.273 63.1021C101.788 61.0892 102.873 58.0524 103.535 55.9945C101.574 54.5708 99.4522 53.0878 97.6233 51.5201L105 51.5308C105.732 49.2072 106.525 46.8694 107.29 44.553Z" fill="#FEFEFF"/>
<path d="M193.136 81.0377C194.02 82.9836 194.865 85.9154 195.535 88.0258L203.2 88.0422C201.234 89.3211 198.912 91.0973 196.978 92.4967L199.358 99.6503C197.38 98.3053 195.231 96.6659 193.277 95.2458C192.531 95.6131 187.984 99.0078 187.029 99.7012L189.395 92.5212C187.504 90.9677 185.409 89.7529 183.547 88.0365L190.874 88.0186L193.136 81.0377Z" fill="#FEFEFF"/>
<path d="M193.134 44.5644C193.987 46.4141 194.888 49.4978 195.541 51.5268L203 51.5249C201.706 52.6739 198.506 54.8737 196.986 55.9856L199.362 63.143C197.451 61.882 195.155 60.115 193.266 58.7448C192.534 59.1159 187.959 62.5414 187.013 63.2298L189.397 56.0014L183.375 51.5183L190.867 51.5274L193.134 44.5644Z" fill="#FEFEFF"/>
<path d="M257.584 0H644V26.0661V52.1648V78.2162V104.278L257.579 104.276L257.566 78.2203L257.575 52.1412L257.569 26.0885L257.584 0Z" fill="#FEFEFF"/>
<path d="M257.575 52.1412L644 52.1648V78.2162V104.278L257.579 104.276L257.566 78.2203L257.575 52.1412Z" fill="#B41942"/>
<path d="M257.566 78.2203L644 78.2162V104.278L257.579 104.276L257.566 78.2203Z" fill="#FEFEFF"/>
<path d="M257.584 0H644V26.0661L385.982 26.0638L300.422 26.064C286.845 26.0642 271.002 25.6559 257.569 26.0885L257.584 0Z" fill="#B41942"/>
<path d="M0 208.512L644 208.511V234.589V260.68L0 260.681V234.583V208.512Z" fill="#FEFEFF"/>
<path d="M0 208.512L644 208.511V234.589L0 234.583V208.512Z" fill="#B41942"/>
<path d="M257.579 104.276L644 104.278V130.279V156.386L257.576 156.384L257.568 130.318L257.579 104.276Z" fill="#FEFEFF"/>
<path d="M257.579 104.276L644 104.278V130.279L388.13 130.269L302.976 130.27C288.015 130.271 272.491 130.067 257.568 130.318L257.579 104.276Z" fill="#B41942"/>
<path d="M257.577 156.384L644 156.386V182.423L257.569 182.433L257.577 156.384Z" fill="#B41942"/>
</g>
<rect x="4" y="4" width="359" height="331" rx="28" stroke="#FFAE00" stroke-width="8"/>
<defs>
<clipPath id="clip0_13_729">
<rect width="367" height="339" rx="32" fill="white"/>
</clipPath>
</defs>
</svg>
