<svg width="367" height="339" viewBox="0 0 367 339" fill="none" xmlns="http://www.w3.org/2000/svg">
<g clip-path="url(#clip0_6_6)">
<rect width="367" height="339" rx="32" fill="#FFF3E4"/>
<path d="M0 339L-1.48182e-05 3.05176e-05L678 8.81257e-07L678 339L0 339Z" fill="#002A8F"/>
<path d="M67.8 67.8L678 67.8L678 135.6L203.4 135.6L203.4 203.4L678 203.4L678 271.2L67.8 271.2L67.8 67.8Z" fill="white"/>
<path d="M293.574 169.5L0 339L-1.48182e-05 3.05176e-05L293.574 169.5Z" fill="#CB1515"/>
<path d="M97.858 113L64.6586 215.22L151.601 152.03L44.1152 152.03L131.08 215.22L97.858 113Z" fill="white"/>
<rect y="168" width="367" height="171" fill="#FFAE00"/>
<path d="M60.8409 210.182H51.2273C51.1591 209.386 50.9773 208.665 50.6818 208.017C50.3977 207.369 50 206.812 49.4886 206.347C48.9886 205.869 48.3807 205.506 47.6648 205.256C46.9489 204.994 46.1364 204.864 45.2273 204.864C43.6364 204.864 42.2898 205.25 41.1875 206.023C40.0966 206.795 39.267 207.903 38.6989 209.347C38.142 210.79 37.8636 212.523 37.8636 214.545C37.8636 216.682 38.1477 218.472 38.7159 219.915C39.2955 221.347 40.1307 222.426 41.2216 223.153C42.3125 223.869 43.625 224.227 45.1591 224.227C46.0341 224.227 46.8182 224.119 47.5114 223.903C48.2045 223.676 48.8068 223.352 49.3182 222.932C49.8295 222.511 50.2443 222.006 50.5625 221.415C50.892 220.812 51.1136 220.136 51.2273 219.386L60.8409 219.455C60.7273 220.932 60.3125 222.437 59.5966 223.972C58.8807 225.494 57.8636 226.903 56.5455 228.199C55.2386 229.483 53.6193 230.517 51.6875 231.301C49.7557 232.085 47.5114 232.477 44.9545 232.477C41.75 232.477 38.875 231.79 36.3295 230.415C33.7955 229.04 31.7898 227.017 30.3125 224.347C28.8466 221.676 28.1136 218.409 28.1136 214.545C28.1136 210.659 28.8636 207.386 30.3636 204.727C31.8636 202.057 33.8864 200.04 36.4318 198.676C38.9773 197.301 41.8182 196.614 44.9545 196.614C47.1591 196.614 49.1875 196.915 51.0398 197.517C52.892 198.119 54.517 199 55.9148 200.159C57.3125 201.307 58.4375 202.722 59.2898 204.403C60.142 206.085 60.6591 208.011 60.8409 210.182ZM82.2543 220.545V205.818H91.6634V232H82.7315V227.023H82.4588C81.8906 228.693 80.8963 230 79.4759 230.943C78.0554 231.875 76.3679 232.341 74.4134 232.341C72.5838 232.341 70.9815 231.92 69.6065 231.08C68.2429 230.239 67.1804 229.08 66.419 227.602C65.669 226.125 65.2884 224.432 65.277 222.523V205.818H74.6861V220.545C74.6974 221.841 75.027 222.858 75.6747 223.597C76.3338 224.335 77.2543 224.705 78.4361 224.705C79.2202 224.705 79.8963 224.54 80.4645 224.21C81.044 223.869 81.4872 223.392 81.794 222.778C82.1122 222.153 82.2656 221.409 82.2543 220.545ZM96.3125 232V197.091H105.722V210.386H105.858C106.199 209.5 106.699 208.687 107.358 207.949C108.017 207.199 108.835 206.602 109.812 206.159C110.79 205.705 111.926 205.477 113.222 205.477C114.949 205.477 116.591 205.938 118.148 206.858C119.716 207.778 120.989 209.227 121.966 211.205C122.955 213.182 123.449 215.75 123.449 218.909C123.449 221.932 122.977 224.437 122.034 226.426C121.102 228.415 119.852 229.898 118.284 230.875C116.727 231.852 115.017 232.341 113.153 232.341C111.926 232.341 110.83 232.142 109.864 231.744C108.909 231.335 108.091 230.784 107.409 230.091C106.739 229.386 106.222 228.591 105.858 227.705H105.653V232H96.3125ZM105.517 218.909C105.517 220.182 105.682 221.284 106.011 222.216C106.352 223.136 106.83 223.852 107.443 224.364C108.068 224.864 108.813 225.114 109.676 225.114C110.54 225.114 111.273 224.869 111.875 224.381C112.489 223.881 112.955 223.17 113.273 222.25C113.602 221.318 113.767 220.205 113.767 218.909C113.767 217.614 113.602 216.506 113.273 215.585C112.955 214.653 112.489 213.943 111.875 213.455C111.273 212.955 110.54 212.705 109.676 212.705C108.813 212.705 108.068 212.955 107.443 213.455C106.83 213.943 106.352 214.653 106.011 215.585C105.682 216.506 105.517 217.614 105.517 218.909ZM134.682 232.409C133.011 232.409 131.534 232.136 130.25 231.591C128.977 231.034 127.977 230.193 127.25 229.068C126.523 227.943 126.159 226.511 126.159 224.773C126.159 223.341 126.403 222.119 126.892 221.108C127.381 220.085 128.062 219.25 128.938 218.602C129.812 217.955 130.83 217.46 131.989 217.119C133.159 216.778 134.42 216.557 135.773 216.455C137.239 216.341 138.415 216.205 139.301 216.045C140.199 215.875 140.847 215.642 141.244 215.347C141.642 215.04 141.841 214.636 141.841 214.136V214.068C141.841 213.386 141.58 212.864 141.057 212.5C140.534 212.136 139.864 211.955 139.045 211.955C138.148 211.955 137.415 212.153 136.847 212.551C136.29 212.937 135.955 213.534 135.841 214.341H127.182C127.295 212.75 127.801 211.284 128.699 209.943C129.608 208.591 130.932 207.511 132.67 206.705C134.409 205.886 136.58 205.477 139.182 205.477C141.057 205.477 142.739 205.699 144.227 206.142C145.716 206.574 146.983 207.182 148.028 207.966C149.074 208.739 149.869 209.648 150.415 210.693C150.972 211.727 151.25 212.852 151.25 214.068V232H142.455V228.318H142.25C141.727 229.295 141.091 230.085 140.341 230.688C139.602 231.29 138.756 231.727 137.801 232C136.858 232.273 135.818 232.409 134.682 232.409ZM137.75 226.477C138.466 226.477 139.136 226.33 139.761 226.034C140.398 225.739 140.915 225.312 141.312 224.756C141.71 224.199 141.909 223.523 141.909 222.727V220.545C141.659 220.648 141.392 220.744 141.108 220.835C140.835 220.926 140.54 221.011 140.222 221.091C139.915 221.17 139.585 221.244 139.233 221.312C138.892 221.381 138.534 221.443 138.159 221.5C137.432 221.614 136.835 221.801 136.369 222.062C135.915 222.312 135.574 222.625 135.347 223C135.131 223.364 135.023 223.773 135.023 224.227C135.023 224.955 135.278 225.511 135.79 225.898C136.301 226.284 136.955 226.477 137.75 226.477ZM165.155 217.273V232H155.746V205.818H164.678V210.795H164.95C165.518 209.136 166.518 207.835 167.95 206.892C169.393 205.949 171.075 205.477 172.996 205.477C174.848 205.477 176.456 205.903 177.82 206.756C179.195 207.597 180.257 208.756 181.007 210.233C181.768 211.71 182.143 213.398 182.132 215.295V232H172.723V217.273C172.734 215.977 172.405 214.96 171.734 214.222C171.075 213.483 170.155 213.114 168.973 213.114C168.2 213.114 167.524 213.284 166.945 213.625C166.376 213.955 165.939 214.432 165.632 215.057C165.325 215.67 165.166 216.409 165.155 217.273ZM196.203 232V197.091H211.271C213.862 197.091 216.129 197.602 218.072 198.625C220.016 199.648 221.527 201.085 222.607 202.938C223.686 204.79 224.226 206.955 224.226 209.432C224.226 211.932 223.669 214.097 222.555 215.926C221.453 217.756 219.902 219.165 217.902 220.153C215.913 221.142 213.589 221.636 210.93 221.636H201.93V214.273H209.021C210.135 214.273 211.084 214.08 211.868 213.693C212.663 213.295 213.271 212.733 213.692 212.006C214.124 211.278 214.339 210.42 214.339 209.432C214.339 208.432 214.124 207.58 213.692 206.875C213.271 206.159 212.663 205.614 211.868 205.239C211.084 204.852 210.135 204.659 209.021 204.659H205.68V232H196.203ZM227.839 232V205.818H237.249V232H227.839ZM232.544 203.091C231.271 203.091 230.18 202.67 229.271 201.83C228.362 200.989 227.908 199.977 227.908 198.795C227.908 197.614 228.362 196.602 229.271 195.761C230.18 194.92 231.271 194.5 232.544 194.5C233.828 194.5 234.919 194.92 235.817 195.761C236.726 196.602 237.18 197.614 237.18 198.795C237.18 199.977 236.726 200.989 235.817 201.83C234.919 202.67 233.828 203.091 232.544 203.091ZM242.315 232V226.818L253.77 213.114V212.977H242.724V205.818H264.884V211.545L254.452 224.705V224.841H265.293V232H242.315ZM270.768 232V226.818L282.223 213.114V212.977H271.178V205.818H293.337V211.545L282.905 224.705V224.841H293.746V232H270.768ZM306.244 232.409C304.574 232.409 303.097 232.136 301.812 231.591C300.54 231.034 299.54 230.193 298.812 229.068C298.085 227.943 297.722 226.511 297.722 224.773C297.722 223.341 297.966 222.119 298.455 221.108C298.943 220.085 299.625 219.25 300.5 218.602C301.375 217.955 302.392 217.46 303.551 217.119C304.722 216.778 305.983 216.557 307.335 216.455C308.801 216.341 309.977 216.205 310.864 216.045C311.761 215.875 312.409 215.642 312.807 215.347C313.205 215.04 313.403 214.636 313.403 214.136V214.068C313.403 213.386 313.142 212.864 312.619 212.5C312.097 212.136 311.426 211.955 310.608 211.955C309.71 211.955 308.977 212.153 308.409 212.551C307.852 212.937 307.517 213.534 307.403 214.341H298.744C298.858 212.75 299.364 211.284 300.261 209.943C301.17 208.591 302.494 207.511 304.233 206.705C305.972 205.886 308.142 205.477 310.744 205.477C312.619 205.477 314.301 205.699 315.79 206.142C317.278 206.574 318.545 207.182 319.591 207.966C320.636 208.739 321.432 209.648 321.977 210.693C322.534 211.727 322.812 212.852 322.812 214.068V232H314.017V228.318H313.812C313.29 229.295 312.653 230.085 311.903 230.688C311.165 231.29 310.318 231.727 309.364 232C308.42 232.273 307.381 232.409 306.244 232.409ZM309.312 226.477C310.028 226.477 310.699 226.33 311.324 226.034C311.96 225.739 312.477 225.312 312.875 224.756C313.273 224.199 313.472 223.523 313.472 222.727V220.545C313.222 220.648 312.955 220.744 312.67 220.835C312.398 220.926 312.102 221.011 311.784 221.091C311.477 221.17 311.148 221.244 310.795 221.312C310.455 221.381 310.097 221.443 309.722 221.5C308.994 221.614 308.398 221.801 307.932 222.062C307.477 222.312 307.136 222.625 306.909 223C306.693 223.364 306.585 223.773 306.585 224.227C306.585 224.955 306.841 225.511 307.352 225.898C307.864 226.284 308.517 226.477 309.312 226.477Z" fill="white"/>
<path d="M28.8182 257.364V269H27.4091V257.364H28.8182ZM35.348 260.273V261.409H30.6435V260.273H35.348ZM32.0526 269V259.068C32.0526 258.568 32.17 258.152 32.4048 257.818C32.6397 257.485 32.9446 257.235 33.3196 257.068C33.6946 256.902 34.0904 256.818 34.5071 256.818C34.8366 256.818 35.1056 256.845 35.3139 256.898C35.5223 256.951 35.6776 257 35.7798 257.045L35.3935 258.205C35.3253 258.182 35.2306 258.153 35.1094 258.119C34.992 258.085 34.8366 258.068 34.6435 258.068C34.2003 258.068 33.8802 258.18 33.6832 258.403C33.4901 258.627 33.3935 258.955 33.3935 259.386V269H32.0526ZM42.5909 272.273C42.3636 272.273 42.161 272.254 41.983 272.216C41.8049 272.182 41.6818 272.148 41.6136 272.114L41.9545 270.932C42.2803 271.015 42.5682 271.045 42.8182 271.023C43.0682 271 43.2898 270.888 43.483 270.688C43.6799 270.491 43.8598 270.17 44.0227 269.727L44.2727 269.045L41.0455 260.273H42.5L44.9091 267.227H45L47.4091 260.273H48.8636L45.1591 270.273C44.9924 270.723 44.786 271.097 44.5398 271.392C44.2936 271.691 44.0076 271.913 43.6818 272.057C43.3598 272.201 42.9962 272.273 42.5909 272.273ZM53.8665 269.182C53.0786 269.182 52.3873 268.994 51.7926 268.619C51.2017 268.244 50.7396 267.72 50.4062 267.045C50.0767 266.371 49.9119 265.583 49.9119 264.682C49.9119 263.773 50.0767 262.979 50.4062 262.301C50.7396 261.623 51.2017 261.097 51.7926 260.722C52.3873 260.347 53.0786 260.159 53.8665 260.159C54.6544 260.159 55.3438 260.347 55.9347 260.722C56.5294 261.097 56.9915 261.623 57.321 262.301C57.6544 262.979 57.821 263.773 57.821 264.682C57.821 265.583 57.6544 266.371 57.321 267.045C56.9915 267.72 56.5294 268.244 55.9347 268.619C55.3438 268.994 54.6544 269.182 53.8665 269.182ZM53.8665 267.977C54.465 267.977 54.9574 267.824 55.3438 267.517C55.7301 267.21 56.0161 266.807 56.2017 266.307C56.3873 265.807 56.4801 265.265 56.4801 264.682C56.4801 264.098 56.3873 263.555 56.2017 263.051C56.0161 262.547 55.7301 262.14 55.3438 261.83C54.9574 261.519 54.465 261.364 53.8665 261.364C53.268 261.364 52.7756 261.519 52.3892 261.83C52.0028 262.14 51.7169 262.547 51.5312 263.051C51.3456 263.555 51.2528 264.098 51.2528 264.682C51.2528 265.265 51.3456 265.807 51.5312 266.307C51.7169 266.807 52.0028 267.21 52.3892 267.517C52.7756 267.824 53.268 267.977 53.8665 267.977ZM65.3679 265.432V260.273H66.7088V269H65.3679V267.523H65.277C65.0724 267.966 64.7543 268.343 64.3224 268.653C63.8906 268.96 63.3452 269.114 62.6861 269.114C62.1406 269.114 61.6558 268.994 61.2315 268.756C60.8073 268.513 60.474 268.15 60.2315 267.665C59.9891 267.176 59.8679 266.561 59.8679 265.818V260.273H61.2088V265.727C61.2088 266.364 61.3868 266.871 61.7429 267.25C62.1027 267.629 62.5611 267.818 63.1179 267.818C63.4512 267.818 63.7902 267.733 64.1349 267.562C64.4834 267.392 64.7751 267.131 65.0099 266.778C65.2486 266.426 65.3679 265.977 65.3679 265.432ZM75.642 269L72.983 260.273H74.392L76.2784 266.955H76.3693L78.233 260.273H79.6648L81.5057 266.932H81.5966L83.483 260.273H84.892L82.233 269H80.9148L79.0057 262.295H78.8693L76.9602 269H75.642ZM89.233 269.205C88.6799 269.205 88.178 269.1 87.7273 268.892C87.2765 268.68 86.9186 268.375 86.6534 267.977C86.3883 267.576 86.2557 267.091 86.2557 266.523C86.2557 266.023 86.3542 265.617 86.5511 265.307C86.7481 264.992 87.0114 264.746 87.3409 264.568C87.6705 264.39 88.0341 264.258 88.4318 264.17C88.8333 264.08 89.2367 264.008 89.642 263.955C90.1723 263.886 90.6023 263.835 90.9318 263.801C91.2652 263.763 91.5076 263.701 91.6591 263.614C91.8144 263.527 91.892 263.375 91.892 263.159V263.114C91.892 262.553 91.7386 262.117 91.4318 261.807C91.1288 261.496 90.6686 261.341 90.0511 261.341C89.411 261.341 88.9091 261.481 88.5455 261.761C88.1818 262.042 87.9261 262.341 87.7784 262.659L86.5057 262.205C86.733 261.674 87.036 261.261 87.4148 260.966C87.7973 260.667 88.214 260.458 88.6648 260.341C89.1193 260.22 89.5663 260.159 90.0057 260.159C90.286 260.159 90.608 260.193 90.9716 260.261C91.339 260.326 91.6932 260.46 92.0341 260.665C92.3788 260.869 92.6648 261.178 92.892 261.591C93.1193 262.004 93.233 262.557 93.233 263.25V269H91.892V267.818H91.8239C91.733 268.008 91.5814 268.21 91.3693 268.426C91.1572 268.642 90.875 268.826 90.5227 268.977C90.1705 269.129 89.7405 269.205 89.233 269.205ZM89.4375 268C89.9678 268 90.4148 267.896 90.7784 267.688C91.1458 267.479 91.4223 267.21 91.608 266.881C91.7973 266.551 91.892 266.205 91.892 265.841V264.614C91.8352 264.682 91.7102 264.744 91.517 264.801C91.3277 264.854 91.108 264.902 90.858 264.943C90.6117 264.981 90.3712 265.015 90.1364 265.045C89.9053 265.072 89.7178 265.095 89.5739 265.114C89.2254 265.159 88.8996 265.233 88.5966 265.335C88.2973 265.434 88.0549 265.583 87.8693 265.784C87.6875 265.981 87.5966 266.25 87.5966 266.591C87.5966 267.057 87.7689 267.409 88.1136 267.648C88.4621 267.883 88.9034 268 89.4375 268ZM97.0213 263.75V269H95.6804V260.273H96.9759V261.636H97.0895C97.294 261.193 97.6046 260.837 98.0213 260.568C98.438 260.295 98.9759 260.159 99.6349 260.159C100.226 260.159 100.743 260.28 101.186 260.523C101.629 260.761 101.974 261.125 102.22 261.614C102.466 262.098 102.589 262.712 102.589 263.455V269H101.249V263.545C101.249 262.86 101.071 262.326 100.714 261.943C100.358 261.557 99.8698 261.364 99.2486 261.364C98.8205 261.364 98.438 261.456 98.1009 261.642C97.7675 261.828 97.5043 262.098 97.3111 262.455C97.1179 262.811 97.0213 263.242 97.0213 263.75ZM108.835 260.273V261.409H104.312V260.273H108.835ZM105.631 258.182H106.972V266.5C106.972 266.879 107.027 267.163 107.136 267.352C107.25 267.538 107.394 267.663 107.568 267.727C107.746 267.788 107.934 267.818 108.131 267.818C108.278 267.818 108.4 267.811 108.494 267.795C108.589 267.777 108.665 267.761 108.722 267.75L108.994 268.955C108.903 268.989 108.777 269.023 108.614 269.057C108.451 269.095 108.244 269.114 107.994 269.114C107.616 269.114 107.244 269.032 106.881 268.869C106.521 268.706 106.222 268.458 105.983 268.125C105.748 267.792 105.631 267.371 105.631 266.864V258.182ZM119.148 260.273V261.409H114.625V260.273H119.148ZM115.943 258.182H117.284V266.5C117.284 266.879 117.339 267.163 117.449 267.352C117.563 267.538 117.706 267.663 117.881 267.727C118.059 267.788 118.246 267.818 118.443 267.818C118.591 267.818 118.712 267.811 118.807 267.795C118.902 267.777 118.977 267.761 119.034 267.75L119.307 268.955C119.216 268.989 119.089 269.023 118.926 269.057C118.763 269.095 118.557 269.114 118.307 269.114C117.928 269.114 117.557 269.032 117.193 268.869C116.833 268.706 116.534 268.458 116.295 268.125C116.061 267.792 115.943 267.371 115.943 266.864V258.182ZM124.616 269.182C123.829 269.182 123.137 268.994 122.543 268.619C121.952 268.244 121.49 267.72 121.156 267.045C120.827 266.371 120.662 265.583 120.662 264.682C120.662 263.773 120.827 262.979 121.156 262.301C121.49 261.623 121.952 261.097 122.543 260.722C123.137 260.347 123.829 260.159 124.616 260.159C125.404 260.159 126.094 260.347 126.685 260.722C127.279 261.097 127.741 261.623 128.071 262.301C128.404 262.979 128.571 263.773 128.571 264.682C128.571 265.583 128.404 266.371 128.071 267.045C127.741 267.72 127.279 268.244 126.685 268.619C126.094 268.994 125.404 269.182 124.616 269.182ZM124.616 267.977C125.215 267.977 125.707 267.824 126.094 267.517C126.48 267.21 126.766 266.807 126.952 266.307C127.137 265.807 127.23 265.265 127.23 264.682C127.23 264.098 127.137 263.555 126.952 263.051C126.766 262.547 126.48 262.14 126.094 261.83C125.707 261.519 125.215 261.364 124.616 261.364C124.018 261.364 123.526 261.519 123.139 261.83C122.753 262.14 122.467 262.547 122.281 263.051C122.096 263.555 122.003 264.098 122.003 264.682C122.003 265.265 122.096 265.807 122.281 266.307C122.467 266.807 122.753 267.21 123.139 267.517C123.526 267.824 124.018 267.977 124.616 267.977ZM138.913 260.273V261.409H134.391V260.273H138.913ZM135.709 258.182H137.05V266.5C137.05 266.879 137.105 267.163 137.214 267.352C137.328 267.538 137.472 267.663 137.646 267.727C137.824 267.788 138.012 267.818 138.209 267.818C138.357 267.818 138.478 267.811 138.572 267.795C138.667 267.777 138.743 267.761 138.8 267.75L139.072 268.955C138.982 268.989 138.855 269.023 138.692 269.057C138.529 269.095 138.322 269.114 138.072 269.114C137.694 269.114 137.322 269.032 136.959 268.869C136.599 268.706 136.3 268.458 136.061 268.125C135.826 267.792 135.709 267.371 135.709 266.864V258.182ZM140.93 269V260.273H142.226V261.591H142.317C142.476 261.159 142.764 260.809 143.18 260.54C143.597 260.271 144.067 260.136 144.589 260.136C144.688 260.136 144.811 260.138 144.959 260.142C145.107 260.146 145.218 260.152 145.294 260.159V261.523C145.249 261.511 145.144 261.494 144.982 261.472C144.822 261.445 144.654 261.432 144.476 261.432C144.052 261.432 143.673 261.521 143.339 261.699C143.01 261.873 142.749 262.116 142.555 262.426C142.366 262.733 142.271 263.083 142.271 263.477V269H140.93ZM148.013 272.273C147.786 272.273 147.583 272.254 147.405 272.216C147.227 272.182 147.104 272.148 147.036 272.114L147.376 270.932C147.702 271.015 147.99 271.045 148.24 271.023C148.49 271 148.712 270.888 148.905 270.688C149.102 270.491 149.282 270.17 149.445 269.727L149.695 269.045L146.467 260.273H147.922L150.331 267.227H150.422L152.831 260.273H154.286L150.581 270.273C150.414 270.723 150.208 271.097 149.962 271.392C149.715 271.691 149.429 271.913 149.104 272.057C148.782 272.201 148.418 272.273 148.013 272.273ZM160.737 269V257.364H164.669C165.578 257.364 166.324 257.519 166.908 257.83C167.491 258.136 167.923 258.559 168.203 259.097C168.483 259.634 168.624 260.246 168.624 260.932C168.624 261.617 168.483 262.225 168.203 262.756C167.923 263.286 167.493 263.703 166.913 264.006C166.334 264.305 165.593 264.455 164.692 264.455H161.51V263.182H164.646C165.268 263.182 165.768 263.091 166.146 262.909C166.529 262.727 166.805 262.47 166.976 262.136C167.15 261.799 167.237 261.398 167.237 260.932C167.237 260.466 167.15 260.059 166.976 259.71C166.802 259.362 166.523 259.093 166.141 258.903C165.758 258.71 165.252 258.614 164.624 258.614H162.146V269H160.737ZM166.214 263.773L169.078 269H167.442L164.624 263.773H166.214ZM170.972 269V257.364H177.994V258.614H172.381V262.545H177.631V263.795H172.381V267.75H178.085V269H170.972ZM181.011 269H179.534L183.807 257.364H185.261L189.534 269H188.057L184.58 259.205H184.489L181.011 269ZM181.557 264.455H187.511V265.705H181.557V264.455ZM191.347 269V257.364H192.756V267.75H198.165V269H191.347ZM214.21 261H212.801C212.718 260.595 212.572 260.239 212.364 259.932C212.159 259.625 211.909 259.367 211.614 259.159C211.322 258.947 210.998 258.788 210.642 258.682C210.286 258.576 209.915 258.523 209.528 258.523C208.824 258.523 208.186 258.701 207.614 259.057C207.045 259.413 206.593 259.938 206.256 260.631C205.922 261.324 205.756 262.174 205.756 263.182C205.756 264.189 205.922 265.04 206.256 265.733C206.593 266.426 207.045 266.951 207.614 267.307C208.186 267.663 208.824 267.841 209.528 267.841C209.915 267.841 210.286 267.788 210.642 267.682C210.998 267.576 211.322 267.419 211.614 267.21C211.909 266.998 212.159 266.739 212.364 266.432C212.572 266.121 212.718 265.765 212.801 265.364H214.21C214.104 265.958 213.911 266.491 213.631 266.96C213.35 267.43 213.002 267.83 212.585 268.159C212.169 268.485 211.701 268.733 211.182 268.903C210.667 269.074 210.116 269.159 209.528 269.159C208.536 269.159 207.653 268.917 206.881 268.432C206.108 267.947 205.5 267.258 205.057 266.364C204.614 265.47 204.392 264.409 204.392 263.182C204.392 261.955 204.614 260.894 205.057 260C205.5 259.106 206.108 258.417 206.881 257.932C207.653 257.447 208.536 257.205 209.528 257.205C210.116 257.205 210.667 257.29 211.182 257.46C211.701 257.631 212.169 257.881 212.585 258.21C213.002 258.536 213.35 258.934 213.631 259.403C213.911 259.869 214.104 260.402 214.21 261ZM221.805 265.432V260.273H223.146V269H221.805V267.523H221.714C221.51 267.966 221.192 268.343 220.76 268.653C220.328 268.96 219.783 269.114 219.124 269.114C218.578 269.114 218.093 268.994 217.669 268.756C217.245 268.513 216.911 268.15 216.669 267.665C216.427 267.176 216.305 266.561 216.305 265.818V260.273H217.646V265.727C217.646 266.364 217.824 266.871 218.18 267.25C218.54 267.629 218.999 267.818 219.555 267.818C219.889 267.818 220.228 267.733 220.572 267.562C220.921 267.392 221.213 267.131 221.447 266.778C221.686 266.426 221.805 265.977 221.805 265.432ZM225.784 269V257.364H227.125V261.659H227.239C227.337 261.508 227.473 261.314 227.648 261.08C227.826 260.841 228.08 260.629 228.409 260.443C228.742 260.254 229.193 260.159 229.761 260.159C230.496 260.159 231.144 260.343 231.705 260.71C232.265 261.078 232.703 261.598 233.017 262.273C233.331 262.947 233.489 263.742 233.489 264.659C233.489 265.583 233.331 266.384 233.017 267.062C232.703 267.737 232.267 268.259 231.71 268.631C231.153 268.998 230.511 269.182 229.784 269.182C229.223 269.182 228.775 269.089 228.438 268.903C228.1 268.714 227.841 268.5 227.659 268.261C227.477 268.019 227.337 267.818 227.239 267.659H227.08V269H225.784ZM227.102 264.636C227.102 265.295 227.199 265.877 227.392 266.381C227.585 266.881 227.867 267.273 228.239 267.557C228.61 267.837 229.064 267.977 229.602 267.977C230.163 267.977 230.631 267.83 231.006 267.534C231.384 267.235 231.669 266.833 231.858 266.33C232.051 265.822 232.148 265.258 232.148 264.636C232.148 264.023 232.053 263.47 231.864 262.977C231.678 262.481 231.396 262.089 231.017 261.801C230.642 261.509 230.17 261.364 229.602 261.364C229.057 261.364 228.598 261.502 228.227 261.778C227.856 262.051 227.576 262.434 227.386 262.926C227.197 263.415 227.102 263.985 227.102 264.636ZM238.108 269.205C237.555 269.205 237.053 269.1 236.602 268.892C236.152 268.68 235.794 268.375 235.528 267.977C235.263 267.576 235.131 267.091 235.131 266.523C235.131 266.023 235.229 265.617 235.426 265.307C235.623 264.992 235.886 264.746 236.216 264.568C236.545 264.39 236.909 264.258 237.307 264.17C237.708 264.08 238.112 264.008 238.517 263.955C239.047 263.886 239.477 263.835 239.807 263.801C240.14 263.763 240.383 263.701 240.534 263.614C240.689 263.527 240.767 263.375 240.767 263.159V263.114C240.767 262.553 240.614 262.117 240.307 261.807C240.004 261.496 239.544 261.341 238.926 261.341C238.286 261.341 237.784 261.481 237.42 261.761C237.057 262.042 236.801 262.341 236.653 262.659L235.381 262.205C235.608 261.674 235.911 261.261 236.29 260.966C236.672 260.667 237.089 260.458 237.54 260.341C237.994 260.22 238.441 260.159 238.881 260.159C239.161 260.159 239.483 260.193 239.847 260.261C240.214 260.326 240.568 260.46 240.909 260.665C241.254 260.869 241.54 261.178 241.767 261.591C241.994 262.004 242.108 262.557 242.108 263.25V269H240.767V267.818H240.699C240.608 268.008 240.456 268.21 240.244 268.426C240.032 268.642 239.75 268.826 239.398 268.977C239.045 269.129 238.616 269.205 238.108 269.205ZM238.312 268C238.843 268 239.29 267.896 239.653 267.688C240.021 267.479 240.297 267.21 240.483 266.881C240.672 266.551 240.767 266.205 240.767 265.841V264.614C240.71 264.682 240.585 264.744 240.392 264.801C240.203 264.854 239.983 264.902 239.733 264.943C239.487 264.981 239.246 265.015 239.011 265.045C238.78 265.072 238.593 265.095 238.449 265.114C238.1 265.159 237.775 265.233 237.472 265.335C237.172 265.434 236.93 265.583 236.744 265.784C236.563 265.981 236.472 266.25 236.472 266.591C236.472 267.057 236.644 267.409 236.989 267.648C237.337 267.883 237.778 268 238.312 268ZM245.896 263.75V269H244.555V260.273H245.851V261.636H245.964C246.169 261.193 246.48 260.837 246.896 260.568C247.313 260.295 247.851 260.159 248.51 260.159C249.101 260.159 249.618 260.28 250.061 260.523C250.504 260.761 250.849 261.125 251.095 261.614C251.341 262.098 251.464 262.712 251.464 263.455V269H250.124V263.545C250.124 262.86 249.946 262.326 249.589 261.943C249.233 261.557 248.745 261.364 248.124 261.364C247.696 261.364 247.313 261.456 246.976 261.642C246.643 261.828 246.379 262.098 246.186 262.455C245.993 262.811 245.896 263.242 245.896 263.75ZM258.415 272.273V260.273H259.71V261.659H259.869C259.968 261.508 260.104 261.314 260.278 261.08C260.456 260.841 260.71 260.629 261.04 260.443C261.373 260.254 261.824 260.159 262.392 260.159C263.127 260.159 263.775 260.343 264.335 260.71C264.896 261.078 265.333 261.598 265.648 262.273C265.962 262.947 266.119 263.742 266.119 264.659C266.119 265.583 265.962 266.384 265.648 267.062C265.333 267.737 264.898 268.259 264.341 268.631C263.784 268.998 263.142 269.182 262.415 269.182C261.854 269.182 261.405 269.089 261.068 268.903C260.731 268.714 260.472 268.5 260.29 268.261C260.108 268.019 259.968 267.818 259.869 267.659H259.756V272.273H258.415ZM259.733 264.636C259.733 265.295 259.83 265.877 260.023 266.381C260.216 266.881 260.498 267.273 260.869 267.557C261.241 267.837 261.695 267.977 262.233 267.977C262.794 267.977 263.261 267.83 263.636 267.534C264.015 267.235 264.299 266.833 264.489 266.33C264.682 265.822 264.778 265.258 264.778 264.636C264.778 264.023 264.684 263.47 264.494 262.977C264.309 262.481 264.027 262.089 263.648 261.801C263.273 261.509 262.801 261.364 262.233 261.364C261.688 261.364 261.229 261.502 260.858 261.778C260.487 262.051 260.206 262.434 260.017 262.926C259.828 263.415 259.733 263.985 259.733 264.636ZM268.165 269V260.273H269.506V269H268.165ZM268.847 258.818C268.585 258.818 268.36 258.729 268.17 258.551C267.985 258.373 267.892 258.159 267.892 257.909C267.892 257.659 267.985 257.445 268.17 257.267C268.36 257.089 268.585 257 268.847 257C269.108 257 269.331 257.089 269.517 257.267C269.706 257.445 269.801 257.659 269.801 257.909C269.801 258.159 269.706 258.373 269.517 258.551C269.331 258.729 269.108 258.818 268.847 258.818ZM271.712 269V267.977L276.666 261.614V261.523H271.871V260.273H278.393V261.341L273.575 267.659V267.75H278.553V269H271.712ZM280.368 269V267.977L285.322 261.614V261.523H280.527V260.273H287.05V261.341L282.232 267.659V267.75H287.209V269H280.368ZM291.842 269.205C291.289 269.205 290.787 269.1 290.337 268.892C289.886 268.68 289.528 268.375 289.263 267.977C288.998 267.576 288.865 267.091 288.865 266.523C288.865 266.023 288.964 265.617 289.161 265.307C289.357 264.992 289.621 264.746 289.95 264.568C290.28 264.39 290.643 264.258 291.041 264.17C291.443 264.08 291.846 264.008 292.251 263.955C292.782 263.886 293.212 263.835 293.541 263.801C293.875 263.763 294.117 263.701 294.268 263.614C294.424 263.527 294.501 263.375 294.501 263.159V263.114C294.501 262.553 294.348 262.117 294.041 261.807C293.738 261.496 293.278 261.341 292.661 261.341C292.02 261.341 291.518 261.481 291.155 261.761C290.791 262.042 290.536 262.341 290.388 262.659L289.115 262.205C289.342 261.674 289.645 261.261 290.024 260.966C290.407 260.667 290.823 260.458 291.274 260.341C291.729 260.22 292.176 260.159 292.615 260.159C292.895 260.159 293.217 260.193 293.581 260.261C293.948 260.326 294.303 260.46 294.643 260.665C294.988 260.869 295.274 261.178 295.501 261.591C295.729 262.004 295.842 262.557 295.842 263.25V269H294.501V267.818H294.433C294.342 268.008 294.191 268.21 293.979 268.426C293.767 268.642 293.484 268.826 293.132 268.977C292.78 269.129 292.35 269.205 291.842 269.205ZM292.047 268C292.577 268 293.024 267.896 293.388 267.688C293.755 267.479 294.032 267.21 294.217 266.881C294.407 266.551 294.501 266.205 294.501 265.841V264.614C294.445 264.682 294.32 264.744 294.126 264.801C293.937 264.854 293.717 264.902 293.467 264.943C293.221 264.981 292.981 265.015 292.746 265.045C292.515 265.072 292.327 265.095 292.183 265.114C291.835 265.159 291.509 265.233 291.206 265.335C290.907 265.434 290.664 265.583 290.479 265.784C290.297 265.981 290.206 266.25 290.206 266.591C290.206 267.057 290.378 267.409 290.723 267.648C291.071 267.883 291.513 268 292.047 268ZM300.29 267.409L300.199 268.023C300.134 268.455 300.036 268.917 299.903 269.409C299.775 269.902 299.64 270.366 299.5 270.801C299.36 271.237 299.244 271.583 299.153 271.841H298.131C298.18 271.598 298.244 271.278 298.324 270.881C298.403 270.483 298.483 270.038 298.562 269.545C298.646 269.057 298.714 268.557 298.767 268.045L298.835 267.409H300.29ZM31.0227 279.273V280.409H26.5V279.273H31.0227ZM27.8182 277.182H29.1591V285.5C29.1591 285.879 29.214 286.163 29.3239 286.352C29.4375 286.538 29.5814 286.663 29.7557 286.727C29.9337 286.788 30.1212 286.818 30.3182 286.818C30.4659 286.818 30.5871 286.811 30.6818 286.795C30.7765 286.777 30.8523 286.761 30.9091 286.75L31.1818 287.955C31.0909 287.989 30.964 288.023 30.8011 288.057C30.6383 288.095 30.4318 288.114 30.1818 288.114C29.803 288.114 29.4318 288.032 29.0682 287.869C28.7083 287.706 28.4091 287.458 28.1705 287.125C27.9356 286.792 27.8182 286.371 27.8182 285.864V277.182ZM34.5682 282.75V288H33.2273V276.364H34.5682V280.636H34.6818C34.8864 280.186 35.1932 279.828 35.6023 279.562C36.0152 279.294 36.5644 279.159 37.25 279.159C37.8447 279.159 38.3655 279.278 38.8125 279.517C39.2595 279.752 39.6061 280.114 39.8523 280.602C40.1023 281.087 40.2273 281.705 40.2273 282.455V288H38.8864V282.545C38.8864 281.852 38.7064 281.316 38.3466 280.938C37.9905 280.555 37.4962 280.364 36.8636 280.364C36.4242 280.364 36.0303 280.456 35.6818 280.642C35.3371 280.828 35.0644 281.098 34.8636 281.455C34.6667 281.811 34.5682 282.242 34.5682 282.75ZM46.3395 288.182C45.4986 288.182 44.7732 287.996 44.1634 287.625C43.5573 287.25 43.0895 286.727 42.7599 286.057C42.4342 285.383 42.2713 284.598 42.2713 283.705C42.2713 282.811 42.4342 282.023 42.7599 281.341C43.0895 280.655 43.5478 280.121 44.1349 279.739C44.7259 279.352 45.4152 279.159 46.2031 279.159C46.6577 279.159 47.1065 279.235 47.5497 279.386C47.9929 279.538 48.3963 279.784 48.7599 280.125C49.1236 280.462 49.4134 280.909 49.6293 281.466C49.8452 282.023 49.9531 282.708 49.9531 283.523V284.091H43.2259V282.932H48.5895C48.5895 282.439 48.491 282 48.294 281.614C48.1009 281.227 47.8243 280.922 47.4645 280.699C47.1084 280.475 46.688 280.364 46.2031 280.364C45.669 280.364 45.2069 280.496 44.8168 280.761C44.4304 281.023 44.133 281.364 43.9247 281.784C43.7164 282.205 43.6122 282.655 43.6122 283.136V283.909C43.6122 284.568 43.7259 285.127 43.9531 285.585C44.1842 286.04 44.5043 286.386 44.9134 286.625C45.3224 286.86 45.7978 286.977 46.3395 286.977C46.6918 286.977 47.0099 286.928 47.294 286.83C47.5819 286.727 47.83 286.576 48.0384 286.375C48.2467 286.17 48.4077 285.917 48.5213 285.614L49.8168 285.977C49.6804 286.417 49.4512 286.803 49.1293 287.136C48.8073 287.466 48.4096 287.723 47.9361 287.909C47.4626 288.091 46.9304 288.182 46.3395 288.182ZM51.9929 288V279.273H53.2884V280.591H53.3793C53.5384 280.159 53.8262 279.809 54.2429 279.54C54.6596 279.271 55.1293 279.136 55.652 279.136C55.7505 279.136 55.8736 279.138 56.0213 279.142C56.169 279.146 56.2808 279.152 56.3565 279.159V280.523C56.3111 280.511 56.2069 280.494 56.044 280.472C55.8849 280.445 55.7164 280.432 55.5384 280.432C55.1141 280.432 54.7353 280.521 54.402 280.699C54.0724 280.873 53.8111 281.116 53.6179 281.426C53.4285 281.733 53.3338 282.083 53.3338 282.477V288H51.9929ZM61.3395 288.182C60.4986 288.182 59.7732 287.996 59.1634 287.625C58.5573 287.25 58.0895 286.727 57.7599 286.057C57.4342 285.383 57.2713 284.598 57.2713 283.705C57.2713 282.811 57.4342 282.023 57.7599 281.341C58.0895 280.655 58.5478 280.121 59.1349 279.739C59.7259 279.352 60.4152 279.159 61.2031 279.159C61.6577 279.159 62.1065 279.235 62.5497 279.386C62.9929 279.538 63.3963 279.784 63.7599 280.125C64.1236 280.462 64.4134 280.909 64.6293 281.466C64.8452 282.023 64.9531 282.708 64.9531 283.523V284.091H58.2259V282.932H63.5895C63.5895 282.439 63.491 282 63.294 281.614C63.1009 281.227 62.8243 280.922 62.4645 280.699C62.1084 280.475 61.688 280.364 61.2031 280.364C60.669 280.364 60.2069 280.496 59.8168 280.761C59.4304 281.023 59.133 281.364 58.9247 281.784C58.7164 282.205 58.6122 282.655 58.6122 283.136V283.909C58.6122 284.568 58.7259 285.127 58.9531 285.585C59.1842 286.04 59.5043 286.386 59.9134 286.625C60.3224 286.86 60.7978 286.977 61.3395 286.977C61.6918 286.977 62.0099 286.928 62.294 286.83C62.5819 286.727 62.83 286.576 63.0384 286.375C63.2467 286.17 63.4077 285.917 63.5213 285.614L64.8168 285.977C64.6804 286.417 64.4512 286.803 64.1293 287.136C63.8073 287.466 63.4096 287.723 62.9361 287.909C62.4626 288.091 61.9304 288.182 61.3395 288.182ZM68.152 276.364V280.364H66.902V276.364H68.152ZM76.7216 281.227L75.517 281.568C75.4413 281.367 75.3295 281.172 75.1818 280.983C75.0379 280.79 74.8409 280.631 74.5909 280.506C74.3409 280.381 74.0208 280.318 73.6307 280.318C73.0966 280.318 72.6515 280.441 72.2955 280.688C71.9432 280.93 71.767 281.239 71.767 281.614C71.767 281.947 71.8883 282.21 72.1307 282.403C72.3731 282.597 72.7519 282.758 73.267 282.886L74.5625 283.205C75.3428 283.394 75.9242 283.684 76.3068 284.074C76.6894 284.46 76.8807 284.958 76.8807 285.568C76.8807 286.068 76.7367 286.515 76.4489 286.909C76.1648 287.303 75.767 287.614 75.2557 287.841C74.7443 288.068 74.1496 288.182 73.4716 288.182C72.5814 288.182 71.8447 287.989 71.2614 287.602C70.678 287.216 70.3087 286.652 70.1534 285.909L71.4261 285.591C71.5473 286.061 71.7765 286.413 72.1136 286.648C72.4545 286.883 72.8996 287 73.4489 287C74.0739 287 74.5701 286.867 74.9375 286.602C75.3087 286.333 75.4943 286.011 75.4943 285.636C75.4943 285.333 75.3883 285.08 75.1761 284.875C74.964 284.667 74.6383 284.511 74.1989 284.409L72.7443 284.068C71.9451 283.879 71.358 283.585 70.983 283.188C70.6117 282.786 70.4261 282.284 70.4261 281.682C70.4261 281.189 70.5644 280.754 70.8409 280.375C71.1212 279.996 71.5019 279.699 71.983 279.483C72.4678 279.267 73.017 279.159 73.6307 279.159C74.4943 279.159 75.1723 279.348 75.6648 279.727C76.161 280.106 76.5133 280.606 76.7216 281.227ZM84.7401 282.75V288H83.3991V279.273H84.6946V280.636H84.8082C85.0128 280.193 85.3234 279.837 85.7401 279.568C86.1567 279.295 86.6946 279.159 87.3537 279.159C87.9446 279.159 88.4616 279.28 88.9048 279.523C89.348 279.761 89.6927 280.125 89.9389 280.614C90.1851 281.098 90.3082 281.712 90.3082 282.455V288H88.9673V282.545C88.9673 281.86 88.7893 281.326 88.4332 280.943C88.0772 280.557 87.5885 280.364 86.9673 280.364C86.5393 280.364 86.1567 280.456 85.8196 280.642C85.4863 280.828 85.223 281.098 85.0298 281.455C84.8366 281.811 84.7401 282.242 84.7401 282.75ZM96.304 288.182C95.5161 288.182 94.8248 287.994 94.2301 287.619C93.6392 287.244 93.1771 286.72 92.8438 286.045C92.5142 285.371 92.3494 284.583 92.3494 283.682C92.3494 282.773 92.5142 281.979 92.8438 281.301C93.1771 280.623 93.6392 280.097 94.2301 279.722C94.8248 279.347 95.5161 279.159 96.304 279.159C97.0919 279.159 97.7813 279.347 98.3722 279.722C98.9669 280.097 99.429 280.623 99.7585 281.301C100.092 281.979 100.259 282.773 100.259 283.682C100.259 284.583 100.092 285.371 99.7585 286.045C99.429 286.72 98.9669 287.244 98.3722 287.619C97.7813 287.994 97.0919 288.182 96.304 288.182ZM96.304 286.977C96.9025 286.977 97.3949 286.824 97.7812 286.517C98.1676 286.21 98.4536 285.807 98.6392 285.307C98.8248 284.807 98.9176 284.265 98.9176 283.682C98.9176 283.098 98.8248 282.555 98.6392 282.051C98.4536 281.547 98.1676 281.14 97.7812 280.83C97.3949 280.519 96.9025 280.364 96.304 280.364C95.7055 280.364 95.2131 280.519 94.8267 280.83C94.4403 281.14 94.1544 281.547 93.9688 282.051C93.7831 282.555 93.6903 283.098 93.6903 283.682C93.6903 284.265 93.7831 284.807 93.9688 285.307C94.1544 285.807 94.4403 286.21 94.8267 286.517C95.2131 286.824 95.7055 286.977 96.304 286.977ZM106.987 288V276.364H108.328V280.659H108.442C108.54 280.508 108.677 280.314 108.851 280.08C109.029 279.841 109.283 279.629 109.612 279.443C109.946 279.254 110.396 279.159 110.964 279.159C111.699 279.159 112.347 279.343 112.908 279.71C113.468 280.078 113.906 280.598 114.22 281.273C114.535 281.947 114.692 282.742 114.692 283.659C114.692 284.583 114.535 285.384 114.22 286.062C113.906 286.737 113.47 287.259 112.913 287.631C112.357 287.998 111.714 288.182 110.987 288.182C110.427 288.182 109.978 288.089 109.641 287.903C109.304 287.714 109.044 287.5 108.862 287.261C108.68 287.019 108.54 286.818 108.442 286.659H108.283V288H106.987ZM108.305 283.636C108.305 284.295 108.402 284.877 108.595 285.381C108.788 285.881 109.071 286.273 109.442 286.557C109.813 286.837 110.268 286.977 110.805 286.977C111.366 286.977 111.834 286.83 112.209 286.534C112.588 286.235 112.872 285.833 113.061 285.33C113.254 284.822 113.351 284.258 113.351 283.636C113.351 283.023 113.256 282.47 113.067 281.977C112.881 281.481 112.599 281.089 112.22 280.801C111.845 280.509 111.374 280.364 110.805 280.364C110.26 280.364 109.802 280.502 109.43 280.778C109.059 281.051 108.779 281.434 108.589 281.926C108.4 282.415 108.305 282.985 108.305 283.636ZM120.402 288.182C119.561 288.182 118.836 287.996 118.226 287.625C117.62 287.25 117.152 286.727 116.822 286.057C116.497 285.383 116.334 284.598 116.334 283.705C116.334 282.811 116.497 282.023 116.822 281.341C117.152 280.655 117.61 280.121 118.197 279.739C118.788 279.352 119.478 279.159 120.266 279.159C120.72 279.159 121.169 279.235 121.612 279.386C122.055 279.538 122.459 279.784 122.822 280.125C123.186 280.462 123.476 280.909 123.692 281.466C123.908 282.023 124.016 282.708 124.016 283.523V284.091H117.288V282.932H122.652C122.652 282.439 122.554 282 122.357 281.614C122.163 281.227 121.887 280.922 121.527 280.699C121.171 280.475 120.75 280.364 120.266 280.364C119.732 280.364 119.269 280.496 118.879 280.761C118.493 281.023 118.196 281.364 117.987 281.784C117.779 282.205 117.675 282.655 117.675 283.136V283.909C117.675 284.568 117.788 285.127 118.016 285.585C118.247 286.04 118.567 286.386 118.976 286.625C119.385 286.86 119.86 286.977 120.402 286.977C120.754 286.977 121.072 286.928 121.357 286.83C121.644 286.727 121.893 286.576 122.101 286.375C122.309 286.17 122.47 285.917 122.584 285.614L123.879 285.977C123.743 286.417 123.514 286.803 123.192 287.136C122.87 287.466 122.472 287.723 121.999 287.909C121.525 288.091 120.993 288.182 120.402 288.182ZM129.851 279.273V280.409H125.328V279.273H129.851ZM126.646 277.182H127.987V285.5C127.987 285.879 128.042 286.163 128.152 286.352C128.266 286.538 128.41 286.663 128.584 286.727C128.762 286.788 128.949 286.818 129.146 286.818C129.294 286.818 129.415 286.811 129.51 286.795C129.605 286.777 129.68 286.761 129.737 286.75L130.01 287.955C129.919 287.989 129.792 288.023 129.629 288.057C129.466 288.095 129.26 288.114 129.01 288.114C128.631 288.114 128.26 288.032 127.896 287.869C127.536 287.706 127.237 287.458 126.999 287.125C126.764 286.792 126.646 286.371 126.646 285.864V277.182ZM135.663 279.273V280.409H131.141V279.273H135.663ZM132.459 277.182H133.8V285.5C133.8 285.879 133.855 286.163 133.964 286.352C134.078 286.538 134.222 286.663 134.396 286.727C134.574 286.788 134.762 286.818 134.959 286.818C135.107 286.818 135.228 286.811 135.322 286.795C135.417 286.777 135.493 286.761 135.55 286.75L135.822 287.955C135.732 287.989 135.605 288.023 135.442 288.057C135.279 288.095 135.072 288.114 134.822 288.114C134.444 288.114 134.072 288.032 133.709 287.869C133.349 287.706 133.05 287.458 132.811 287.125C132.576 286.792 132.459 286.371 132.459 285.864V277.182ZM141.246 288.182C140.405 288.182 139.679 287.996 139.07 287.625C138.464 287.25 137.996 286.727 137.666 286.057C137.34 285.383 137.178 284.598 137.178 283.705C137.178 282.811 137.34 282.023 137.666 281.341C137.996 280.655 138.454 280.121 139.041 279.739C139.632 279.352 140.321 279.159 141.109 279.159C141.564 279.159 142.013 279.235 142.456 279.386C142.899 279.538 143.303 279.784 143.666 280.125C144.03 280.462 144.32 280.909 144.536 281.466C144.751 282.023 144.859 282.708 144.859 283.523V284.091H138.132V282.932H143.496C143.496 282.439 143.397 282 143.2 281.614C143.007 281.227 142.731 280.922 142.371 280.699C142.015 280.475 141.594 280.364 141.109 280.364C140.575 280.364 140.113 280.496 139.723 280.761C139.337 281.023 139.039 281.364 138.831 281.784C138.623 282.205 138.518 282.655 138.518 283.136V283.909C138.518 284.568 138.632 285.127 138.859 285.585C139.09 286.04 139.411 286.386 139.82 286.625C140.229 286.86 140.704 286.977 141.246 286.977C141.598 286.977 141.916 286.928 142.2 286.83C142.488 286.727 142.736 286.576 142.945 286.375C143.153 286.17 143.314 285.917 143.428 285.614L144.723 285.977C144.587 286.417 144.357 286.803 144.036 287.136C143.714 287.466 143.316 287.723 142.842 287.909C142.369 288.091 141.837 288.182 141.246 288.182ZM146.899 288V279.273H148.195V280.591H148.286C148.445 280.159 148.732 279.809 149.149 279.54C149.566 279.271 150.036 279.136 150.558 279.136C150.657 279.136 150.78 279.138 150.928 279.142C151.075 279.146 151.187 279.152 151.263 279.159V280.523C151.217 280.511 151.113 280.494 150.95 280.472C150.791 280.445 150.623 280.432 150.445 280.432C150.02 280.432 149.642 280.521 149.308 280.699C148.979 280.873 148.717 281.116 148.524 281.426C148.335 281.733 148.24 282.083 148.24 282.477V288H146.899ZM157.352 291.273V279.273H158.648V280.659H158.807C158.905 280.508 159.042 280.314 159.216 280.08C159.394 279.841 159.648 279.629 159.977 279.443C160.311 279.254 160.761 279.159 161.33 279.159C162.064 279.159 162.712 279.343 163.273 279.71C163.833 280.078 164.271 280.598 164.585 281.273C164.9 281.947 165.057 282.742 165.057 283.659C165.057 284.583 164.9 285.384 164.585 286.062C164.271 286.737 163.835 287.259 163.278 287.631C162.722 287.998 162.08 288.182 161.352 288.182C160.792 288.182 160.343 288.089 160.006 287.903C159.669 287.714 159.409 287.5 159.227 287.261C159.045 287.019 158.905 286.818 158.807 286.659H158.693V291.273H157.352ZM158.67 283.636C158.67 284.295 158.767 284.877 158.96 285.381C159.153 285.881 159.436 286.273 159.807 286.557C160.178 286.837 160.633 286.977 161.17 286.977C161.731 286.977 162.199 286.83 162.574 286.534C162.953 286.235 163.237 285.833 163.426 285.33C163.619 284.822 163.716 284.258 163.716 283.636C163.716 283.023 163.621 282.47 163.432 281.977C163.246 281.481 162.964 281.089 162.585 280.801C162.21 280.509 161.739 280.364 161.17 280.364C160.625 280.364 160.167 280.502 159.795 280.778C159.424 281.051 159.144 281.434 158.955 281.926C158.765 282.415 158.67 282.985 158.67 283.636ZM168.443 276.364V288H167.102V276.364H168.443ZM173.467 288.205C172.914 288.205 172.412 288.1 171.962 287.892C171.511 287.68 171.153 287.375 170.888 286.977C170.623 286.576 170.49 286.091 170.49 285.523C170.49 285.023 170.589 284.617 170.786 284.307C170.982 283.992 171.246 283.746 171.575 283.568C171.905 283.39 172.268 283.258 172.666 283.17C173.068 283.08 173.471 283.008 173.876 282.955C174.407 282.886 174.837 282.835 175.166 282.801C175.5 282.763 175.742 282.701 175.893 282.614C176.049 282.527 176.126 282.375 176.126 282.159V282.114C176.126 281.553 175.973 281.117 175.666 280.807C175.363 280.496 174.903 280.341 174.286 280.341C173.645 280.341 173.143 280.481 172.78 280.761C172.416 281.042 172.161 281.341 172.013 281.659L170.74 281.205C170.967 280.674 171.27 280.261 171.649 279.966C172.032 279.667 172.448 279.458 172.899 279.341C173.354 279.22 173.801 279.159 174.24 279.159C174.52 279.159 174.842 279.193 175.206 279.261C175.573 279.326 175.928 279.46 176.268 279.665C176.613 279.869 176.899 280.178 177.126 280.591C177.354 281.004 177.467 281.557 177.467 282.25V288H176.126V286.818H176.058C175.967 287.008 175.816 287.21 175.604 287.426C175.392 287.642 175.109 287.826 174.757 287.977C174.405 288.129 173.975 288.205 173.467 288.205ZM173.672 287C174.202 287 174.649 286.896 175.013 286.688C175.38 286.479 175.657 286.21 175.842 285.881C176.032 285.551 176.126 285.205 176.126 284.841V283.614C176.07 283.682 175.945 283.744 175.751 283.801C175.562 283.854 175.342 283.902 175.092 283.943C174.846 283.981 174.606 284.015 174.371 284.045C174.14 284.072 173.952 284.095 173.808 284.114C173.46 284.159 173.134 284.233 172.831 284.335C172.532 284.434 172.289 284.583 172.104 284.784C171.922 284.981 171.831 285.25 171.831 285.591C171.831 286.057 172.003 286.409 172.348 286.648C172.696 286.883 173.138 287 173.672 287ZM183.46 288.182C182.642 288.182 181.938 287.989 181.347 287.602C180.756 287.216 180.301 286.684 179.983 286.006C179.665 285.328 179.506 284.553 179.506 283.682C179.506 282.795 179.669 282.013 179.994 281.335C180.324 280.653 180.782 280.121 181.369 279.739C181.96 279.352 182.65 279.159 183.438 279.159C184.051 279.159 184.604 279.273 185.097 279.5C185.589 279.727 185.992 280.045 186.307 280.455C186.621 280.864 186.816 281.341 186.892 281.886H185.551C185.449 281.489 185.222 281.136 184.869 280.83C184.521 280.519 184.051 280.364 183.46 280.364C182.938 280.364 182.479 280.5 182.085 280.773C181.695 281.042 181.39 281.422 181.17 281.915C180.955 282.403 180.847 282.977 180.847 283.636C180.847 284.311 180.953 284.898 181.165 285.398C181.381 285.898 181.684 286.286 182.074 286.562C182.468 286.839 182.93 286.977 183.46 286.977C183.809 286.977 184.125 286.917 184.409 286.795C184.693 286.674 184.934 286.5 185.131 286.273C185.328 286.045 185.468 285.773 185.551 285.455H186.892C186.816 285.97 186.629 286.434 186.33 286.847C186.034 287.256 185.642 287.581 185.153 287.824C184.669 288.062 184.104 288.182 183.46 288.182ZM192.511 288.182C191.67 288.182 190.945 287.996 190.335 287.625C189.729 287.25 189.261 286.727 188.932 286.057C188.606 285.383 188.443 284.598 188.443 283.705C188.443 282.811 188.606 282.023 188.932 281.341C189.261 280.655 189.72 280.121 190.307 279.739C190.898 279.352 191.587 279.159 192.375 279.159C192.83 279.159 193.278 279.235 193.722 279.386C194.165 279.538 194.568 279.784 194.932 280.125C195.295 280.462 195.585 280.909 195.801 281.466C196.017 282.023 196.125 282.708 196.125 283.523V284.091H189.398V282.932H194.761C194.761 282.439 194.663 282 194.466 281.614C194.273 281.227 193.996 280.922 193.636 280.699C193.28 280.475 192.86 280.364 192.375 280.364C191.841 280.364 191.379 280.496 190.989 280.761C190.602 281.023 190.305 281.364 190.097 281.784C189.888 282.205 189.784 282.655 189.784 283.136V283.909C189.784 284.568 189.898 285.127 190.125 285.585C190.356 286.04 190.676 286.386 191.085 286.625C191.494 286.86 191.97 286.977 192.511 286.977C192.864 286.977 193.182 286.928 193.466 286.83C193.754 286.727 194.002 286.576 194.21 286.375C194.419 286.17 194.58 285.917 194.693 285.614L195.989 285.977C195.852 286.417 195.623 286.803 195.301 287.136C194.979 287.466 194.581 287.723 194.108 287.909C193.634 288.091 193.102 288.182 192.511 288.182ZM206.46 279.273V280.409H201.938V279.273H206.46ZM203.256 277.182H204.597V285.5C204.597 285.879 204.652 286.163 204.761 286.352C204.875 286.538 205.019 286.663 205.193 286.727C205.371 286.788 205.559 286.818 205.756 286.818C205.903 286.818 206.025 286.811 206.119 286.795C206.214 286.777 206.29 286.761 206.347 286.75L206.619 287.955C206.528 287.989 206.402 288.023 206.239 288.057C206.076 288.095 205.869 288.114 205.619 288.114C205.241 288.114 204.869 288.032 204.506 287.869C204.146 287.706 203.847 287.458 203.608 287.125C203.373 286.792 203.256 286.371 203.256 285.864V277.182ZM211.929 288.182C211.141 288.182 210.45 287.994 209.855 287.619C209.264 287.244 208.802 286.72 208.469 286.045C208.139 285.371 207.974 284.583 207.974 283.682C207.974 282.773 208.139 281.979 208.469 281.301C208.802 280.623 209.264 280.097 209.855 279.722C210.45 279.347 211.141 279.159 211.929 279.159C212.717 279.159 213.406 279.347 213.997 279.722C214.592 280.097 215.054 280.623 215.384 281.301C215.717 281.979 215.884 282.773 215.884 283.682C215.884 284.583 215.717 285.371 215.384 286.045C215.054 286.72 214.592 287.244 213.997 287.619C213.406 287.994 212.717 288.182 211.929 288.182ZM211.929 286.977C212.527 286.977 213.02 286.824 213.406 286.517C213.793 286.21 214.079 285.807 214.264 285.307C214.45 284.807 214.543 284.265 214.543 283.682C214.543 283.098 214.45 282.555 214.264 282.051C214.079 281.547 213.793 281.14 213.406 280.83C213.02 280.519 212.527 280.364 211.929 280.364C211.33 280.364 210.838 280.519 210.452 280.83C210.065 281.14 209.779 281.547 209.594 282.051C209.408 282.555 209.315 283.098 209.315 283.682C209.315 284.265 209.408 284.807 209.594 285.307C209.779 285.807 210.065 286.21 210.452 286.517C210.838 286.824 211.33 286.977 211.929 286.977ZM226.317 279.273V280.409H221.612V279.273H226.317ZM223.021 288V278.068C223.021 277.568 223.139 277.152 223.374 276.818C223.608 276.485 223.913 276.235 224.288 276.068C224.663 275.902 225.059 275.818 225.476 275.818C225.805 275.818 226.074 275.845 226.283 275.898C226.491 275.951 226.646 276 226.749 276.045L226.362 277.205C226.294 277.182 226.199 277.153 226.078 277.119C225.961 277.085 225.805 277.068 225.612 277.068C225.169 277.068 224.849 277.18 224.652 277.403C224.459 277.627 224.362 277.955 224.362 278.386V288H223.021ZM228.196 288V279.273H229.537V288H228.196ZM228.878 277.818C228.616 277.818 228.391 277.729 228.202 277.551C228.016 277.373 227.923 277.159 227.923 276.909C227.923 276.659 228.016 276.445 228.202 276.267C228.391 276.089 228.616 276 228.878 276C229.139 276 229.363 276.089 229.548 276.267C229.738 276.445 229.832 276.659 229.832 276.909C229.832 277.159 229.738 277.373 229.548 277.551C229.363 277.729 229.139 277.818 228.878 277.818ZM233.334 282.75V288H231.993V279.273H233.288V280.636H233.402C233.607 280.193 233.917 279.837 234.334 279.568C234.75 279.295 235.288 279.159 235.947 279.159C236.538 279.159 237.055 279.28 237.499 279.523C237.942 279.761 238.286 280.125 238.533 280.614C238.779 281.098 238.902 281.712 238.902 282.455V288H237.561V282.545C237.561 281.86 237.383 281.326 237.027 280.943C236.671 280.557 236.182 280.364 235.561 280.364C235.133 280.364 234.75 280.456 234.413 280.642C234.08 280.828 233.817 281.098 233.624 281.455C233.43 281.811 233.334 282.242 233.334 282.75ZM244.648 288.182C243.92 288.182 243.278 287.998 242.722 287.631C242.165 287.259 241.729 286.737 241.415 286.062C241.1 285.384 240.943 284.583 240.943 283.659C240.943 282.742 241.1 281.947 241.415 281.273C241.729 280.598 242.167 280.078 242.727 279.71C243.288 279.343 243.936 279.159 244.67 279.159C245.239 279.159 245.688 279.254 246.017 279.443C246.35 279.629 246.604 279.841 246.778 280.08C246.956 280.314 247.095 280.508 247.193 280.659H247.307V276.364H248.648V288H247.352V286.659H247.193C247.095 286.818 246.955 287.019 246.773 287.261C246.591 287.5 246.331 287.714 245.994 287.903C245.657 288.089 245.208 288.182 244.648 288.182ZM244.83 286.977C245.367 286.977 245.822 286.837 246.193 286.557C246.564 286.273 246.847 285.881 247.04 285.381C247.233 284.877 247.33 284.295 247.33 283.636C247.33 282.985 247.235 282.415 247.045 281.926C246.856 281.434 246.576 281.051 246.205 280.778C245.833 280.502 245.375 280.364 244.83 280.364C244.261 280.364 243.788 280.509 243.409 280.801C243.034 281.089 242.752 281.481 242.562 281.977C242.377 282.47 242.284 283.023 242.284 283.636C242.284 284.258 242.379 284.822 242.568 285.33C242.761 285.833 243.045 286.235 243.42 286.534C243.799 286.83 244.269 286.977 244.83 286.977ZM259.585 279.273V280.409H255.062V279.273H259.585ZM256.381 277.182H257.722V285.5C257.722 285.879 257.777 286.163 257.886 286.352C258 286.538 258.144 286.663 258.318 286.727C258.496 286.788 258.684 286.818 258.881 286.818C259.028 286.818 259.15 286.811 259.244 286.795C259.339 286.777 259.415 286.761 259.472 286.75L259.744 287.955C259.653 287.989 259.527 288.023 259.364 288.057C259.201 288.095 258.994 288.114 258.744 288.114C258.366 288.114 257.994 288.032 257.631 287.869C257.271 287.706 256.972 287.458 256.733 287.125C256.498 286.792 256.381 286.371 256.381 285.864V277.182ZM261.602 288V279.273H262.898V280.591H262.989C263.148 280.159 263.436 279.809 263.852 279.54C264.269 279.271 264.739 279.136 265.261 279.136C265.36 279.136 265.483 279.138 265.631 279.142C265.778 279.146 265.89 279.152 265.966 279.159V280.523C265.92 280.511 265.816 280.494 265.653 280.472C265.494 280.445 265.326 280.432 265.148 280.432C264.723 280.432 264.345 280.521 264.011 280.699C263.682 280.873 263.42 281.116 263.227 281.426C263.038 281.733 262.943 282.083 262.943 282.477V288H261.602ZM270.124 288.205C269.571 288.205 269.069 288.1 268.618 287.892C268.167 287.68 267.809 287.375 267.544 286.977C267.279 286.576 267.146 286.091 267.146 285.523C267.146 285.023 267.245 284.617 267.442 284.307C267.639 283.992 267.902 283.746 268.232 283.568C268.561 283.39 268.925 283.258 269.322 283.17C269.724 283.08 270.127 283.008 270.533 282.955C271.063 282.886 271.493 282.835 271.822 282.801C272.156 282.763 272.398 282.701 272.55 282.614C272.705 282.527 272.783 282.375 272.783 282.159V282.114C272.783 281.553 272.629 281.117 272.322 280.807C272.019 280.496 271.559 280.341 270.942 280.341C270.302 280.341 269.8 280.481 269.436 280.761C269.072 281.042 268.817 281.341 268.669 281.659L267.396 281.205C267.624 280.674 267.927 280.261 268.305 279.966C268.688 279.667 269.105 279.458 269.555 279.341C270.01 279.22 270.457 279.159 270.896 279.159C271.177 279.159 271.499 279.193 271.862 279.261C272.23 279.326 272.584 279.46 272.925 279.665C273.269 279.869 273.555 280.178 273.783 280.591C274.01 281.004 274.124 281.557 274.124 282.25V288H272.783V286.818H272.714C272.624 287.008 272.472 287.21 272.26 287.426C272.048 287.642 271.766 287.826 271.413 287.977C271.061 288.129 270.631 288.205 270.124 288.205ZM270.328 287C270.858 287 271.305 286.896 271.669 286.688C272.036 286.479 272.313 286.21 272.499 285.881C272.688 285.551 272.783 285.205 272.783 284.841V283.614C272.726 283.682 272.601 283.744 272.408 283.801C272.218 283.854 271.999 283.902 271.749 283.943C271.502 283.981 271.262 284.015 271.027 284.045C270.796 284.072 270.608 284.095 270.464 284.114C270.116 284.159 269.79 284.233 269.487 284.335C269.188 284.434 268.946 284.583 268.76 284.784C268.578 284.981 268.487 285.25 268.487 285.591C268.487 286.057 268.66 286.409 269.004 286.648C269.353 286.883 269.794 287 270.328 287ZM279.866 288.182C279.139 288.182 278.497 287.998 277.94 287.631C277.384 287.259 276.948 286.737 276.634 286.062C276.319 285.384 276.162 284.583 276.162 283.659C276.162 282.742 276.319 281.947 276.634 281.273C276.948 280.598 277.385 280.078 277.946 279.71C278.507 279.343 279.154 279.159 279.889 279.159C280.457 279.159 280.906 279.254 281.236 279.443C281.569 279.629 281.823 279.841 281.997 280.08C282.175 280.314 282.313 280.508 282.412 280.659H282.526V276.364H283.866V288H282.571V286.659H282.412C282.313 286.818 282.173 287.019 281.991 287.261C281.81 287.5 281.55 287.714 281.213 287.903C280.876 288.089 280.427 288.182 279.866 288.182ZM280.048 286.977C280.586 286.977 281.041 286.837 281.412 286.557C281.783 286.273 282.065 285.881 282.259 285.381C282.452 284.877 282.548 284.295 282.548 283.636C282.548 282.985 282.454 282.415 282.264 281.926C282.075 281.434 281.795 281.051 281.423 280.778C281.052 280.502 280.594 280.364 280.048 280.364C279.48 280.364 279.007 280.509 278.628 280.801C278.253 281.089 277.971 281.481 277.781 281.977C277.596 282.47 277.503 283.023 277.503 283.636C277.503 284.258 277.598 284.822 277.787 285.33C277.98 285.833 278.264 286.235 278.639 286.534C279.018 286.83 279.488 286.977 280.048 286.977ZM286.509 288V279.273H287.849V288H286.509ZM287.19 277.818C286.929 277.818 286.704 277.729 286.514 277.551C286.329 277.373 286.236 277.159 286.236 276.909C286.236 276.659 286.329 276.445 286.514 276.267C286.704 276.089 286.929 276 287.19 276C287.452 276 287.675 276.089 287.861 276.267C288.05 276.445 288.145 276.659 288.145 276.909C288.145 277.159 288.05 277.373 287.861 277.551C287.675 277.729 287.452 277.818 287.19 277.818ZM294.101 279.273V280.409H289.578V279.273H294.101ZM290.896 277.182H292.237V285.5C292.237 285.879 292.292 286.163 292.402 286.352C292.516 286.538 292.66 286.663 292.834 286.727C293.012 286.788 293.199 286.818 293.396 286.818C293.544 286.818 293.665 286.811 293.76 286.795C293.855 286.777 293.93 286.761 293.987 286.75L294.26 287.955C294.169 287.989 294.042 288.023 293.879 288.057C293.716 288.095 293.51 288.114 293.26 288.114C292.881 288.114 292.51 288.032 292.146 287.869C291.786 287.706 291.487 287.458 291.249 287.125C291.014 286.792 290.896 286.371 290.896 285.864V277.182ZM296.118 288V279.273H297.459V288H296.118ZM296.8 277.818C296.538 277.818 296.313 277.729 296.124 277.551C295.938 277.373 295.845 277.159 295.845 276.909C295.845 276.659 295.938 276.445 296.124 276.267C296.313 276.089 296.538 276 296.8 276C297.061 276 297.285 276.089 297.47 276.267C297.66 276.445 297.754 276.659 297.754 276.909C297.754 277.159 297.66 277.373 297.47 277.551C297.285 277.729 297.061 277.818 296.8 277.818ZM303.46 288.182C302.672 288.182 301.981 287.994 301.386 287.619C300.795 287.244 300.333 286.72 300 286.045C299.67 285.371 299.506 284.583 299.506 283.682C299.506 282.773 299.67 281.979 300 281.301C300.333 280.623 300.795 280.097 301.386 279.722C301.981 279.347 302.672 279.159 303.46 279.159C304.248 279.159 304.938 279.347 305.528 279.722C306.123 280.097 306.585 280.623 306.915 281.301C307.248 281.979 307.415 282.773 307.415 283.682C307.415 284.583 307.248 285.371 306.915 286.045C306.585 286.72 306.123 287.244 305.528 287.619C304.938 287.994 304.248 288.182 303.46 288.182ZM303.46 286.977C304.059 286.977 304.551 286.824 304.938 286.517C305.324 286.21 305.61 285.807 305.795 285.307C305.981 284.807 306.074 284.265 306.074 283.682C306.074 283.098 305.981 282.555 305.795 282.051C305.61 281.547 305.324 281.14 304.938 280.83C304.551 280.519 304.059 280.364 303.46 280.364C302.862 280.364 302.369 280.519 301.983 280.83C301.597 281.14 301.311 281.547 301.125 282.051C300.939 282.555 300.847 283.098 300.847 283.682C300.847 284.265 300.939 284.807 301.125 285.307C301.311 285.807 301.597 286.21 301.983 286.517C302.369 286.824 302.862 286.977 303.46 286.977ZM310.803 282.75V288H309.462V279.273H310.757V280.636H310.871C311.075 280.193 311.386 279.837 311.803 279.568C312.219 279.295 312.757 279.159 313.416 279.159C314.007 279.159 314.524 279.28 314.967 279.523C315.411 279.761 315.755 280.125 316.001 280.614C316.248 281.098 316.371 281.712 316.371 282.455V288H315.03V282.545C315.03 281.86 314.852 281.326 314.496 280.943C314.14 280.557 313.651 280.364 313.03 280.364C312.602 280.364 312.219 280.456 311.882 280.642C311.549 280.828 311.286 281.098 311.092 281.455C310.899 281.811 310.803 282.242 310.803 282.75ZM321.389 288.205C320.836 288.205 320.334 288.1 319.884 287.892C319.433 287.68 319.075 287.375 318.81 286.977C318.545 286.576 318.412 286.091 318.412 285.523C318.412 285.023 318.51 284.617 318.707 284.307C318.904 283.992 319.168 283.746 319.497 283.568C319.827 283.39 320.19 283.258 320.588 283.17C320.99 283.08 321.393 283.008 321.798 282.955C322.329 282.886 322.759 282.835 323.088 282.801C323.421 282.763 323.664 282.701 323.815 282.614C323.971 282.527 324.048 282.375 324.048 282.159V282.114C324.048 281.553 323.895 281.117 323.588 280.807C323.285 280.496 322.825 280.341 322.207 280.341C321.567 280.341 321.065 280.481 320.702 280.761C320.338 281.042 320.082 281.341 319.935 281.659L318.662 281.205C318.889 280.674 319.192 280.261 319.571 279.966C319.954 279.667 320.37 279.458 320.821 279.341C321.276 279.22 321.723 279.159 322.162 279.159C322.442 279.159 322.764 279.193 323.128 279.261C323.495 279.326 323.849 279.46 324.19 279.665C324.535 279.869 324.821 280.178 325.048 280.591C325.276 281.004 325.389 281.557 325.389 282.25V288H324.048V286.818H323.98C323.889 287.008 323.738 287.21 323.526 287.426C323.313 287.642 323.031 287.826 322.679 287.977C322.327 288.129 321.897 288.205 321.389 288.205ZM321.594 287C322.124 287 322.571 286.896 322.935 286.688C323.302 286.479 323.579 286.21 323.764 285.881C323.954 285.551 324.048 285.205 324.048 284.841V283.614C323.991 283.682 323.866 283.744 323.673 283.801C323.484 283.854 323.264 283.902 323.014 283.943C322.768 283.981 322.527 284.015 322.293 284.045C322.062 284.072 321.874 284.095 321.73 284.114C321.382 284.159 321.056 284.233 320.753 284.335C320.454 284.434 320.211 284.583 320.026 284.784C319.844 284.981 319.753 285.25 319.753 285.591C319.753 286.057 319.925 286.409 320.27 286.648C320.618 286.883 321.06 287 321.594 287ZM329.178 276.364V288H327.837V276.364H329.178ZM27.2273 307V298.273H28.5227V299.591H28.6136C28.7727 299.159 29.0606 298.809 29.4773 298.54C29.8939 298.271 30.3636 298.136 30.8864 298.136C30.9848 298.136 31.108 298.138 31.2557 298.142C31.4034 298.146 31.5152 298.152 31.5909 298.159V299.523C31.5455 299.511 31.4413 299.494 31.2784 299.472C31.1193 299.445 30.9508 299.432 30.7727 299.432C30.3485 299.432 29.9697 299.521 29.6364 299.699C29.3068 299.873 29.0455 300.116 28.8523 300.426C28.6629 300.733 28.5682 301.083 28.5682 301.477V307H27.2273ZM36.5739 307.182C35.733 307.182 35.0076 306.996 34.3977 306.625C33.7917 306.25 33.3239 305.727 32.9943 305.057C32.6686 304.383 32.5057 303.598 32.5057 302.705C32.5057 301.811 32.6686 301.023 32.9943 300.341C33.3239 299.655 33.7822 299.121 34.3693 298.739C34.9602 298.352 35.6496 298.159 36.4375 298.159C36.892 298.159 37.3409 298.235 37.7841 298.386C38.2273 298.538 38.6307 298.784 38.9943 299.125C39.358 299.462 39.6477 299.909 39.8636 300.466C40.0795 301.023 40.1875 301.708 40.1875 302.523V303.091H33.4602V301.932H38.8239C38.8239 301.439 38.7254 301 38.5284 300.614C38.3352 300.227 38.0587 299.922 37.6989 299.699C37.3428 299.475 36.9223 299.364 36.4375 299.364C35.9034 299.364 35.4413 299.496 35.0511 299.761C34.6648 300.023 34.3674 300.364 34.1591 300.784C33.9508 301.205 33.8466 301.655 33.8466 302.136V302.909C33.8466 303.568 33.9602 304.127 34.1875 304.585C34.4186 305.04 34.7386 305.386 35.1477 305.625C35.5568 305.86 36.0322 305.977 36.5739 305.977C36.9261 305.977 37.2443 305.928 37.5284 305.83C37.8163 305.727 38.0644 305.576 38.2727 305.375C38.4811 305.17 38.642 304.917 38.7557 304.614L40.0511 304.977C39.9148 305.417 39.6856 305.803 39.3636 306.136C39.0417 306.466 38.6439 306.723 38.1705 306.909C37.697 307.091 37.1648 307.182 36.5739 307.182ZM45.7727 307.182C44.9545 307.182 44.25 306.989 43.6591 306.602C43.0682 306.216 42.6136 305.684 42.2955 305.006C41.9773 304.328 41.8182 303.553 41.8182 302.682C41.8182 301.795 41.9811 301.013 42.3068 300.335C42.6364 299.653 43.0947 299.121 43.6818 298.739C44.2727 298.352 44.9621 298.159 45.75 298.159C46.3636 298.159 46.9167 298.273 47.4091 298.5C47.9015 298.727 48.3049 299.045 48.6193 299.455C48.9337 299.864 49.1288 300.341 49.2045 300.886H47.8636C47.7614 300.489 47.5341 300.136 47.1818 299.83C46.8333 299.519 46.3636 299.364 45.7727 299.364C45.25 299.364 44.7917 299.5 44.3977 299.773C44.0076 300.042 43.7027 300.422 43.483 300.915C43.267 301.403 43.1591 301.977 43.1591 302.636C43.1591 303.311 43.2652 303.898 43.4773 304.398C43.6932 304.898 43.9962 305.286 44.3864 305.562C44.7803 305.839 45.2424 305.977 45.7727 305.977C46.1212 305.977 46.4375 305.917 46.7216 305.795C47.0057 305.674 47.2462 305.5 47.4432 305.273C47.6402 305.045 47.7803 304.773 47.8636 304.455H49.2045C49.1288 304.97 48.9413 305.434 48.642 305.847C48.3466 306.256 47.9545 306.581 47.4659 306.824C46.9811 307.062 46.4167 307.182 45.7727 307.182ZM51.1648 307V298.273H52.5057V307H51.1648ZM51.8466 296.818C51.5852 296.818 51.3598 296.729 51.1705 296.551C50.9848 296.373 50.892 296.159 50.892 295.909C50.892 295.659 50.9848 295.445 51.1705 295.267C51.3598 295.089 51.5852 295 51.8466 295C52.108 295 52.3314 295.089 52.517 295.267C52.7064 295.445 52.8011 295.659 52.8011 295.909C52.8011 296.159 52.7064 296.373 52.517 296.551C52.3314 296.729 52.108 296.818 51.8466 296.818ZM54.9616 310.273V298.273H56.2571V299.659H56.4162C56.5147 299.508 56.651 299.314 56.8253 299.08C57.0033 298.841 57.2571 298.629 57.5866 298.443C57.92 298.254 58.3707 298.159 58.9389 298.159C59.6738 298.159 60.3215 298.343 60.8821 298.71C61.4427 299.078 61.8802 299.598 62.1946 300.273C62.509 300.947 62.6662 301.742 62.6662 302.659C62.6662 303.583 62.509 304.384 62.1946 305.062C61.8802 305.737 61.4446 306.259 60.8878 306.631C60.331 306.998 59.6889 307.182 58.9616 307.182C58.401 307.182 57.9522 307.089 57.6151 306.903C57.2779 306.714 57.0185 306.5 56.8366 306.261C56.6548 306.019 56.5147 305.818 56.4162 305.659H56.3026V310.273H54.9616ZM56.2798 302.636C56.2798 303.295 56.3764 303.877 56.5696 304.381C56.7628 304.881 57.045 305.273 57.4162 305.557C57.7874 305.837 58.242 305.977 58.7798 305.977C59.3404 305.977 59.8082 305.83 60.1832 305.534C60.562 305.235 60.8461 304.833 61.0355 304.33C61.2287 303.822 61.3253 303.258 61.3253 302.636C61.3253 302.023 61.2306 301.47 61.0412 300.977C60.8556 300.481 60.5734 300.089 60.1946 299.801C59.8196 299.509 59.348 299.364 58.7798 299.364C58.2344 299.364 57.776 299.502 57.4048 299.778C57.0336 300.051 56.7533 300.434 56.5639 300.926C56.3745 301.415 56.2798 301.985 56.2798 302.636ZM68.3707 307.182C67.5298 307.182 66.8045 306.996 66.1946 306.625C65.5885 306.25 65.1207 305.727 64.7912 305.057C64.4654 304.383 64.3026 303.598 64.3026 302.705C64.3026 301.811 64.4654 301.023 64.7912 300.341C65.1207 299.655 65.5791 299.121 66.1662 298.739C66.7571 298.352 67.4465 298.159 68.2344 298.159C68.6889 298.159 69.1378 298.235 69.581 298.386C70.0241 298.538 70.4276 298.784 70.7912 299.125C71.1548 299.462 71.4446 299.909 71.6605 300.466C71.8764 301.023 71.9844 301.708 71.9844 302.523V303.091H65.2571V301.932H70.6207C70.6207 301.439 70.5223 301 70.3253 300.614C70.1321 300.227 69.8556 299.922 69.4957 299.699C69.1397 299.475 68.7192 299.364 68.2344 299.364C67.7003 299.364 67.2382 299.496 66.848 299.761C66.4616 300.023 66.1643 300.364 65.956 300.784C65.7476 301.205 65.6435 301.655 65.6435 302.136V302.909C65.6435 303.568 65.7571 304.127 65.9844 304.585C66.2154 305.04 66.5355 305.386 66.9446 305.625C67.3537 305.86 67.8291 305.977 68.3707 305.977C68.723 305.977 69.0412 305.928 69.3253 305.83C69.6132 305.727 69.8613 305.576 70.0696 305.375C70.2779 305.17 70.4389 304.917 70.5526 304.614L71.848 304.977C71.7116 305.417 71.4825 305.803 71.1605 306.136C70.8385 306.466 70.4408 306.723 69.9673 306.909C69.4938 307.091 68.9616 307.182 68.3707 307.182ZM82.4105 298.273V299.409H77.706V298.273H82.4105ZM79.1151 307V297.068C79.1151 296.568 79.2325 296.152 79.4673 295.818C79.7022 295.485 80.0071 295.235 80.3821 295.068C80.7571 294.902 81.1529 294.818 81.5696 294.818C81.8991 294.818 82.1681 294.845 82.3764 294.898C82.5848 294.951 82.7401 295 82.8423 295.045L82.456 296.205C82.3878 296.182 82.2931 296.153 82.1719 296.119C82.0545 296.085 81.8991 296.068 81.706 296.068C81.2628 296.068 80.9427 296.18 80.7457 296.403C80.5526 296.627 80.456 296.955 80.456 297.386V307H79.1151ZM87.4759 307.182C86.688 307.182 85.9967 306.994 85.402 306.619C84.8111 306.244 84.349 305.72 84.0156 305.045C83.6861 304.371 83.5213 303.583 83.5213 302.682C83.5213 301.773 83.6861 300.979 84.0156 300.301C84.349 299.623 84.8111 299.097 85.402 298.722C85.9967 298.347 86.688 298.159 87.4759 298.159C88.2637 298.159 88.9531 298.347 89.544 298.722C90.1387 299.097 90.6009 299.623 90.9304 300.301C91.2637 300.979 91.4304 301.773 91.4304 302.682C91.4304 303.583 91.2637 304.371 90.9304 305.045C90.6009 305.72 90.1387 306.244 89.544 306.619C88.9531 306.994 88.2637 307.182 87.4759 307.182ZM87.4759 305.977C88.0743 305.977 88.5668 305.824 88.9531 305.517C89.3395 305.21 89.6255 304.807 89.8111 304.307C89.9967 303.807 90.0895 303.265 90.0895 302.682C90.0895 302.098 89.9967 301.555 89.8111 301.051C89.6255 300.547 89.3395 300.14 88.9531 299.83C88.5668 299.519 88.0743 299.364 87.4759 299.364C86.8774 299.364 86.3849 299.519 85.9986 299.83C85.6122 300.14 85.3262 300.547 85.1406 301.051C84.955 301.555 84.8622 302.098 84.8622 302.682C84.8622 303.265 84.955 303.807 85.1406 304.307C85.3262 304.807 85.6122 305.21 85.9986 305.517C86.3849 305.824 86.8774 305.977 87.4759 305.977ZM93.4773 307V298.273H94.7727V299.591H94.8636C95.0227 299.159 95.3106 298.809 95.7273 298.54C96.1439 298.271 96.6136 298.136 97.1364 298.136C97.2348 298.136 97.358 298.138 97.5057 298.142C97.6534 298.146 97.7652 298.152 97.8409 298.159V299.523C97.7955 299.511 97.6913 299.494 97.5284 299.472C97.3693 299.445 97.2008 299.432 97.0227 299.432C96.5985 299.432 96.2197 299.521 95.8864 299.699C95.5568 299.873 95.2955 300.116 95.1023 300.426C94.9129 300.733 94.8182 301.083 94.8182 301.477V307H93.4773ZM106.499 307.205C105.946 307.205 105.444 307.1 104.993 306.892C104.542 306.68 104.184 306.375 103.919 305.977C103.654 305.576 103.521 305.091 103.521 304.523C103.521 304.023 103.62 303.617 103.817 303.307C104.014 302.992 104.277 302.746 104.607 302.568C104.936 302.39 105.3 302.258 105.697 302.17C106.099 302.08 106.502 302.008 106.908 301.955C107.438 301.886 107.868 301.835 108.197 301.801C108.531 301.763 108.773 301.701 108.925 301.614C109.08 301.527 109.158 301.375 109.158 301.159V301.114C109.158 300.553 109.004 300.117 108.697 299.807C108.394 299.496 107.934 299.341 107.317 299.341C106.677 299.341 106.175 299.481 105.811 299.761C105.447 300.042 105.192 300.341 105.044 300.659L103.771 300.205C103.999 299.674 104.302 299.261 104.68 298.966C105.063 298.667 105.48 298.458 105.93 298.341C106.385 298.22 106.832 298.159 107.271 298.159C107.552 298.159 107.874 298.193 108.237 298.261C108.605 298.326 108.959 298.46 109.3 298.665C109.644 298.869 109.93 299.178 110.158 299.591C110.385 300.004 110.499 300.557 110.499 301.25V307H109.158V305.818H109.089C108.999 306.008 108.847 306.21 108.635 306.426C108.423 306.642 108.141 306.826 107.788 306.977C107.436 307.129 107.006 307.205 106.499 307.205ZM106.703 306C107.233 306 107.68 305.896 108.044 305.688C108.411 305.479 108.688 305.21 108.874 304.881C109.063 304.551 109.158 304.205 109.158 303.841V302.614C109.101 302.682 108.976 302.744 108.783 302.801C108.593 302.854 108.374 302.902 108.124 302.943C107.877 302.981 107.637 303.015 107.402 303.045C107.171 303.072 106.983 303.095 106.839 303.114C106.491 303.159 106.165 303.233 105.862 303.335C105.563 303.434 105.321 303.583 105.135 303.784C104.953 303.981 104.862 304.25 104.862 304.591C104.862 305.057 105.035 305.409 105.379 305.648C105.728 305.883 106.169 306 106.703 306ZM126.991 299H125.582C125.499 298.595 125.353 298.239 125.145 297.932C124.94 297.625 124.69 297.367 124.395 297.159C124.103 296.947 123.779 296.788 123.423 296.682C123.067 296.576 122.696 296.523 122.31 296.523C121.605 296.523 120.967 296.701 120.395 297.057C119.827 297.413 119.374 297.938 119.037 298.631C118.704 299.324 118.537 300.174 118.537 301.182C118.537 302.189 118.704 303.04 119.037 303.733C119.374 304.426 119.827 304.951 120.395 305.307C120.967 305.663 121.605 305.841 122.31 305.841C122.696 305.841 123.067 305.788 123.423 305.682C123.779 305.576 124.103 305.419 124.395 305.21C124.69 304.998 124.94 304.739 125.145 304.432C125.353 304.121 125.499 303.765 125.582 303.364H126.991C126.885 303.958 126.692 304.491 126.412 304.96C126.132 305.43 125.783 305.83 125.366 306.159C124.95 306.485 124.482 306.733 123.963 306.903C123.448 307.074 122.897 307.159 122.31 307.159C121.317 307.159 120.435 306.917 119.662 306.432C118.889 305.947 118.281 305.258 117.838 304.364C117.395 303.47 117.173 302.409 117.173 301.182C117.173 299.955 117.395 298.894 117.838 298C118.281 297.106 118.889 296.417 119.662 295.932C120.435 295.447 121.317 295.205 122.31 295.205C122.897 295.205 123.448 295.29 123.963 295.46C124.482 295.631 124.95 295.881 125.366 296.21C125.783 296.536 126.132 296.934 126.412 297.403C126.692 297.869 126.885 298.402 126.991 299ZM134.587 303.432V298.273H135.928V307H134.587V305.523H134.496C134.291 305.966 133.973 306.343 133.541 306.653C133.109 306.96 132.564 307.114 131.905 307.114C131.359 307.114 130.875 306.994 130.45 306.756C130.026 306.513 129.693 306.15 129.45 305.665C129.208 305.176 129.087 304.561 129.087 303.818V298.273H130.428V303.727C130.428 304.364 130.606 304.871 130.962 305.25C131.321 305.629 131.78 305.818 132.337 305.818C132.67 305.818 133.009 305.733 133.354 305.562C133.702 305.392 133.994 305.131 134.229 304.778C134.467 304.426 134.587 303.977 134.587 303.432ZM138.565 307V295.364H139.906V299.659H140.02C140.118 299.508 140.255 299.314 140.429 299.08C140.607 298.841 140.861 298.629 141.19 298.443C141.524 298.254 141.974 298.159 142.543 298.159C143.277 298.159 143.925 298.343 144.486 298.71C145.046 299.078 145.484 299.598 145.798 300.273C146.113 300.947 146.27 301.742 146.27 302.659C146.27 303.583 146.113 304.384 145.798 305.062C145.484 305.737 145.048 306.259 144.491 306.631C143.935 306.998 143.293 307.182 142.565 307.182C142.005 307.182 141.556 307.089 141.219 306.903C140.882 306.714 140.622 306.5 140.44 306.261C140.259 306.019 140.118 305.818 140.02 305.659H139.861V307H138.565ZM139.884 302.636C139.884 303.295 139.98 303.877 140.173 304.381C140.366 304.881 140.649 305.273 141.02 305.557C141.391 305.837 141.846 305.977 142.384 305.977C142.944 305.977 143.412 305.83 143.787 305.534C144.166 305.235 144.45 304.833 144.639 304.33C144.832 303.822 144.929 303.258 144.929 302.636C144.929 302.023 144.834 301.47 144.645 300.977C144.459 300.481 144.177 300.089 143.798 299.801C143.423 299.509 142.952 299.364 142.384 299.364C141.838 299.364 141.38 299.502 141.009 299.778C140.637 300.051 140.357 300.434 140.168 300.926C139.978 301.415 139.884 301.985 139.884 302.636ZM150.889 307.205C150.336 307.205 149.834 307.1 149.384 306.892C148.933 306.68 148.575 306.375 148.31 305.977C148.045 305.576 147.912 305.091 147.912 304.523C147.912 304.023 148.01 303.617 148.207 303.307C148.404 302.992 148.668 302.746 148.997 302.568C149.327 302.39 149.69 302.258 150.088 302.17C150.49 302.08 150.893 302.008 151.298 301.955C151.829 301.886 152.259 301.835 152.588 301.801C152.921 301.763 153.164 301.701 153.315 301.614C153.471 301.527 153.548 301.375 153.548 301.159V301.114C153.548 300.553 153.395 300.117 153.088 299.807C152.785 299.496 152.325 299.341 151.707 299.341C151.067 299.341 150.565 299.481 150.202 299.761C149.838 300.042 149.582 300.341 149.435 300.659L148.162 300.205C148.389 299.674 148.692 299.261 149.071 298.966C149.454 298.667 149.87 298.458 150.321 298.341C150.776 298.22 151.223 298.159 151.662 298.159C151.942 298.159 152.264 298.193 152.628 298.261C152.995 298.326 153.349 298.46 153.69 298.665C154.035 298.869 154.321 299.178 154.548 299.591C154.776 300.004 154.889 300.557 154.889 301.25V307H153.548V305.818H153.48C153.389 306.008 153.238 306.21 153.026 306.426C152.813 306.642 152.531 306.826 152.179 306.977C151.827 307.129 151.397 307.205 150.889 307.205ZM151.094 306C151.624 306 152.071 305.896 152.435 305.688C152.802 305.479 153.079 305.21 153.264 304.881C153.454 304.551 153.548 304.205 153.548 303.841V302.614C153.491 302.682 153.366 302.744 153.173 302.801C152.984 302.854 152.764 302.902 152.514 302.943C152.268 302.981 152.027 303.015 151.793 303.045C151.562 303.072 151.374 303.095 151.23 303.114C150.882 303.159 150.556 303.233 150.253 303.335C149.954 303.434 149.711 303.583 149.526 303.784C149.344 303.981 149.253 304.25 149.253 304.591C149.253 305.057 149.425 305.409 149.77 305.648C150.118 305.883 150.56 306 151.094 306ZM158.678 301.75V307H157.337V298.273H158.632V299.636H158.746C158.95 299.193 159.261 298.837 159.678 298.568C160.094 298.295 160.632 298.159 161.291 298.159C161.882 298.159 162.399 298.28 162.842 298.523C163.286 298.761 163.63 299.125 163.876 299.614C164.123 300.098 164.246 300.712 164.246 301.455V307H162.905V301.545C162.905 300.86 162.727 300.326 162.371 299.943C162.015 299.557 161.526 299.364 160.905 299.364C160.477 299.364 160.094 299.456 159.757 299.642C159.424 299.828 159.161 300.098 158.967 300.455C158.774 300.811 158.678 301.242 158.678 301.75ZM171.196 310.273V298.273H172.491V299.659H172.651C172.749 299.508 172.885 299.314 173.06 299.08C173.238 298.841 173.491 298.629 173.821 298.443C174.154 298.254 174.605 298.159 175.173 298.159C175.908 298.159 176.556 298.343 177.116 298.71C177.677 299.078 178.115 299.598 178.429 300.273C178.743 300.947 178.901 301.742 178.901 302.659C178.901 303.583 178.743 304.384 178.429 305.062C178.115 305.737 177.679 306.259 177.122 306.631C176.565 306.998 175.923 307.182 175.196 307.182C174.635 307.182 174.187 307.089 173.849 306.903C173.512 306.714 173.253 306.5 173.071 306.261C172.889 306.019 172.749 305.818 172.651 305.659H172.537V310.273H171.196ZM172.514 302.636C172.514 303.295 172.611 303.877 172.804 304.381C172.997 304.881 173.279 305.273 173.651 305.557C174.022 305.837 174.476 305.977 175.014 305.977C175.575 305.977 176.043 305.83 176.418 305.534C176.796 305.235 177.08 304.833 177.27 304.33C177.463 303.822 177.56 303.258 177.56 302.636C177.56 302.023 177.465 301.47 177.276 300.977C177.09 300.481 176.808 300.089 176.429 299.801C176.054 299.509 175.582 299.364 175.014 299.364C174.469 299.364 174.01 299.502 173.639 299.778C173.268 300.051 172.988 300.434 172.798 300.926C172.609 301.415 172.514 301.985 172.514 302.636ZM180.946 307V298.273H182.287V307H180.946ZM181.628 296.818C181.366 296.818 181.141 296.729 180.952 296.551C180.766 296.373 180.673 296.159 180.673 295.909C180.673 295.659 180.766 295.445 180.952 295.267C181.141 295.089 181.366 295 181.628 295C181.889 295 182.113 295.089 182.298 295.267C182.488 295.445 182.582 295.659 182.582 295.909C182.582 296.159 182.488 296.373 182.298 296.551C182.113 296.729 181.889 296.818 181.628 296.818ZM184.493 307V305.977L189.447 299.614V299.523H184.652V298.273H191.175V299.341L186.357 305.659V305.75H191.334V307H184.493ZM193.149 307V305.977L198.104 299.614V299.523H193.308V298.273H199.831V299.341L195.013 305.659V305.75H199.99V307H193.149ZM204.624 307.205C204.071 307.205 203.569 307.1 203.118 306.892C202.667 306.68 202.309 306.375 202.044 305.977C201.779 305.576 201.646 305.091 201.646 304.523C201.646 304.023 201.745 303.617 201.942 303.307C202.139 302.992 202.402 302.746 202.732 302.568C203.061 302.39 203.425 302.258 203.822 302.17C204.224 302.08 204.627 302.008 205.033 301.955C205.563 301.886 205.993 301.835 206.322 301.801C206.656 301.763 206.898 301.701 207.05 301.614C207.205 301.527 207.283 301.375 207.283 301.159V301.114C207.283 300.553 207.129 300.117 206.822 299.807C206.519 299.496 206.059 299.341 205.442 299.341C204.802 299.341 204.3 299.481 203.936 299.761C203.572 300.042 203.317 300.341 203.169 300.659L201.896 300.205C202.124 299.674 202.427 299.261 202.805 298.966C203.188 298.667 203.605 298.458 204.055 298.341C204.51 298.22 204.957 298.159 205.396 298.159C205.677 298.159 205.999 298.193 206.362 298.261C206.73 298.326 207.084 298.46 207.425 298.665C207.769 298.869 208.055 299.178 208.283 299.591C208.51 300.004 208.624 300.557 208.624 301.25V307H207.283V305.818H207.214C207.124 306.008 206.972 306.21 206.76 306.426C206.548 306.642 206.266 306.826 205.913 306.977C205.561 307.129 205.131 307.205 204.624 307.205ZM204.828 306C205.358 306 205.805 305.896 206.169 305.688C206.536 305.479 206.813 305.21 206.999 304.881C207.188 304.551 207.283 304.205 207.283 303.841V302.614C207.226 302.682 207.101 302.744 206.908 302.801C206.718 302.854 206.499 302.902 206.249 302.943C206.002 302.981 205.762 303.015 205.527 303.045C205.296 303.072 205.108 303.095 204.964 303.114C204.616 303.159 204.29 303.233 203.987 303.335C203.688 303.434 203.446 303.583 203.26 303.784C203.078 303.981 202.987 304.25 202.987 304.591C202.987 305.057 203.16 305.409 203.504 305.648C203.853 305.883 204.294 306 204.828 306Z" fill="white"/>
</g>
<rect x="4" y="4" width="359" height="331" rx="28" stroke="#FFAE00" stroke-width="8"/>
<defs>
<clipPath id="clip0_6_6">
<rect width="367" height="339" rx="32" fill="white"/>
</clipPath>
</defs>
</svg>
