<svg width="48" height="48" viewBox="0 0 48 48" fill="none" xmlns="http://www.w3.org/2000/svg">
<circle cx="24" cy="24" r="23.5" fill="#EDE8E5" stroke="#D6C5B4"/>
<g clip-path="url(#clip0_203_8283)">
<path fill-rule="evenodd" clip-rule="evenodd" d="M23.9628 12C17.0712 12 11.5 17.5 11.5 24.3042C11.5 29.7432 15.0696 34.3472 20.0217 35.9767C20.6408 36.0992 20.8676 35.712 20.8676 35.3862C20.8676 35.101 20.8472 34.1232 20.8472 33.1045C17.3804 33.838 16.6584 31.6378 16.6584 31.6378C16.1013 30.2118 15.2758 29.8452 15.2758 29.8452C14.1411 29.0915 15.3584 29.0915 15.3584 29.0915C16.6171 29.173 17.2776 30.3545 17.2776 30.3545C18.3916 32.2285 20.1867 31.699 20.9089 31.373C21.012 30.5785 21.3423 30.0285 21.6931 29.723C18.9281 29.4377 16.0189 28.3785 16.0189 23.6523C16.0189 22.3078 16.5138 21.2078 17.298 20.3523C17.1742 20.0468 16.7408 18.7835 17.4219 17.0928C17.4219 17.0928 18.4742 16.7668 20.8469 18.3558C21.8628 18.0864 22.9104 17.9494 23.9628 17.9482C25.0151 17.9482 26.0878 18.091 27.0783 18.3558C29.4513 16.7668 30.5036 17.0928 30.5036 17.0928C31.1847 18.7835 30.751 20.0468 30.6273 20.3523C31.4321 21.2078 31.9066 22.3078 31.9066 23.6523C31.9066 28.3785 28.9974 29.4172 26.2117 29.723C26.6658 30.11 27.0577 30.8432 27.0577 32.0045C27.0577 33.6545 27.0372 34.9787 27.0372 35.386C27.0372 35.712 27.2643 36.0992 27.8832 35.977C32.8352 34.347 36.4048 29.7432 36.4048 24.3042C36.4253 17.5 30.8337 12 23.9628 12Z" fill="black"/>
</g>
<defs>
<clipPath id="clip0_203_8283">
<rect width="25" height="24" fill="white" transform="translate(11.5 12)"/>
</clipPath>
</defs>
</svg>
