<svg width="48" height="48" viewBox="0 0 48 48" fill="none" xmlns="http://www.w3.org/2000/svg">
<g clip-path="url(#clip0_8_86)">
<rect width="48" height="48" rx="24" fill="#FFF3E4"/>
<g clip-path="url(#clip1_8_86)">
<path d="M0 -0.5H71V11.4879V35.475V47.5H0V35.4761V11.4877V-0.5ZM22.2076 27.0901C22.2045 26.9595 22.2086 26.8886 22.1676 26.7619L22.1321 26.7545C22.0952 26.8949 22.1174 26.9522 22.1484 27.0905L22.2076 27.0901Z" fill="#FBBE00"/>
<path d="M0 35.4761L71 35.4751V47.5H0V35.4761Z" fill="#AE1618"/>
<path d="M0 -0.5H71V11.4879L0 11.4877V-0.5Z" fill="#AE1618"/>
<path d="M23.6695 18.9238C24.3218 19.6638 24.3488 18.758 24.9238 19.2155C25.1632 19.406 25.4277 19.2338 25.6242 19.076C26.0443 19.5697 25.976 19.4046 26.5441 19.4035C26.6738 19.4032 26.6005 19.6934 27.1529 19.5909C27.0868 19.6222 26.9967 19.6554 26.96 19.7325C26.8486 19.9669 26.57 19.8603 26.7483 20.1476C26.6184 20.3143 26.6002 20.1586 26.5227 20.3388C26.5841 20.5229 26.6319 20.4761 26.593 20.6129C26.4027 20.7887 25.8934 20.8614 25.6299 20.9173C26.2376 20.9781 26.9157 20.9283 27.5289 20.9386C27.7311 20.942 28.1389 20.9249 28.3277 20.9605L28.3245 23.1852C28.3244 23.4181 28.3102 24.061 28.3437 24.2391C28.3654 24.2521 28.3939 24.2722 28.4162 24.2788C28.2805 24.4812 28.3147 24.9545 28.3345 25.2052C28.3827 25.2787 28.3512 25.2565 28.4233 25.2847C28.3471 25.3498 28.3225 25.354 28.3233 25.4873C28.3254 25.8517 28.3293 26.2291 28.3304 26.5928L28.3351 29.0886C28.3356 29.6181 28.3666 30.1995 28.2302 30.7085C28.1085 31.1737 27.8525 31.5915 27.4951 31.9084C26.7131 32.5939 25.14 32.9834 24.1241 33.0598C22.7988 33.1595 20.4987 32.7122 19.6061 31.6497C19.3408 31.3296 19.1595 30.9467 19.0793 30.5365C18.9339 29.8246 19.1084 25.4938 18.9888 25.3099C19.0602 25.1977 19.0223 24.4637 19.0116 24.2998C19.0403 24.1308 19.0289 23.4123 19.0286 23.2145L19.0254 20.9603C19.2165 20.9109 21.2309 20.9548 21.6725 20.9193C21.405 20.8617 20.9252 20.7931 20.7292 20.6158C20.6849 20.4872 20.718 20.5036 20.7865 20.3398C20.7426 20.2227 20.729 20.2434 20.6065 20.1673C20.5057 19.9541 20.6205 20.1341 20.6001 19.9592C20.5105 19.9092 20.4502 19.883 20.3554 19.8437L20.3564 19.7186C20.3235 19.6897 20.2614 19.6554 20.2219 19.6313L20.2262 19.5955C20.7612 19.7 20.5294 19.3812 20.8768 19.4052C21.2836 19.4334 21.4175 19.4741 21.6606 19.079C22.3682 19.5353 22.1401 19.1989 22.6669 19.0825C22.9807 19.0132 23.0065 19.5381 23.6695 18.9238ZM22.2077 27.0901C22.2045 26.9595 22.2086 26.8886 22.1676 26.7619L22.1321 26.7545C22.0952 26.8949 22.1174 26.9522 22.1484 27.0905L22.2077 27.0901Z" fill="#150403"/>
<path d="M23.6694 18.9238C24.3217 19.6638 24.3488 18.758 24.9237 19.2155C25.1631 19.406 25.4276 19.2338 25.6242 19.076C26.0443 19.5697 25.9759 19.4046 26.544 19.4035C26.6737 19.4032 26.6004 19.6934 27.1528 19.5909C27.0868 19.6222 26.9967 19.6554 26.96 19.7325C26.8485 19.9669 26.57 19.8603 26.7483 20.1476C26.6183 20.3143 26.6001 20.1586 26.5226 20.3388C26.584 20.5229 26.6319 20.4761 26.5929 20.6129C26.4026 20.7887 25.8933 20.8614 25.6298 20.9173C26.2375 20.9781 26.9156 20.9283 27.5288 20.9386C27.731 20.942 28.1388 20.9249 28.3276 20.9605C27.9919 21.0023 25.567 21.0106 25.3377 20.9234L25.0025 20.9389C24.8846 20.9333 24.7668 20.926 24.6492 20.9168L24.6198 20.8669L24.4408 20.8561L24.3995 20.8687C23.8892 20.9648 23.3668 20.8602 22.9222 20.9059C22.7466 20.9199 22.5708 20.9318 22.3949 20.9415C22.2067 20.9323 22.0675 20.9332 21.8789 20.9404C21.7329 20.9989 19.2838 20.9957 19.0254 20.9603C19.2164 20.9109 21.2308 20.9548 21.6725 20.9193C21.405 20.8617 20.9251 20.7931 20.7291 20.6158C20.6848 20.4872 20.7179 20.5036 20.7864 20.3398C20.7425 20.2227 20.729 20.2434 20.6065 20.1673C20.5056 19.9541 20.6205 20.1341 20.6 19.9592C20.5105 19.9092 20.4501 19.883 20.3554 19.8437L20.3563 19.7186C20.3235 19.6897 20.2613 19.6554 20.2218 19.6313L20.2262 19.5955C20.7611 19.7 20.5294 19.3812 20.8767 19.4052C21.2835 19.4334 21.4175 19.4741 21.6605 19.079C22.3682 19.5353 22.14 19.1989 22.6668 19.0825C22.9806 19.0132 23.0065 19.5381 23.6694 18.9238Z" fill="#4C3C03"/>
<path d="M20.9635 20.5669C22.6249 20.0432 24.7084 20.1803 26.3884 20.5582C25.7685 20.7339 25.2641 20.8182 24.6199 20.8669L24.4409 20.8561L24.3996 20.8687C23.8893 20.9648 23.3668 20.8602 22.9223 20.9059C22.7467 20.9199 22.5709 20.9318 22.395 20.9415C22.2067 20.9323 22.0676 20.9332 21.879 20.9404L21.8929 20.8907L21.9805 20.7946C21.6204 20.7361 21.3137 20.6768 20.9635 20.5669Z" fill="#150403"/>
<path d="M23.7653 20.2831C23.9454 20.2899 24.1255 20.2941 24.3057 20.2958L24.4841 20.2971C24.4778 20.4106 24.4653 20.7378 24.4407 20.8381L24.4409 20.8561L24.3996 20.8687C24.2069 20.8591 23.9622 20.8647 23.7653 20.8634V20.2831Z" fill="#AE1618"/>
<path d="M24.3057 20.2958L24.4841 20.2971C24.4778 20.4106 24.4653 20.7378 24.4407 20.8381L24.3432 20.8122C24.2848 20.716 24.3041 20.4229 24.3057 20.2958Z" fill="#B60026"/>
<path d="M24.8497 20.328C25.3381 20.3782 25.7917 20.474 26.2743 20.5578C25.9599 20.6274 25.1316 20.8209 24.8517 20.799C24.8607 20.6676 24.8519 20.4654 24.8497 20.328Z" fill="#B60026"/>
<path d="M24.4841 20.2971C24.5895 20.3011 24.6858 20.3015 24.79 20.3196L24.8497 20.328C24.8518 20.4653 24.8606 20.6676 24.8517 20.799L24.7532 20.8289L24.4407 20.8381C24.4653 20.7378 24.4778 20.4106 24.4841 20.2971Z" fill="#B10025"/>
<path d="M24.79 20.3196L24.8497 20.328C24.8519 20.4653 24.8607 20.6676 24.8517 20.799L24.7533 20.8289C24.793 20.7178 24.7873 20.4515 24.79 20.3196Z" fill="#84051A"/>
<path d="M21.9804 20.7946C22.2936 20.8381 22.6076 20.8752 22.9222 20.9059C22.7466 20.92 22.5708 20.9318 22.3949 20.9415C22.2067 20.9323 22.0675 20.9332 21.8789 20.9404L21.8929 20.8908L21.9804 20.7946Z" fill="#A07E00"/>
<path d="M23.6442 20.8949L23.5914 20.8219C23.5659 20.6441 23.5381 20.4674 23.6028 20.2958L23.692 20.26C23.7831 20.3989 23.7639 20.6776 23.7324 20.8376C23.7047 20.8568 23.6735 20.8813 23.6442 20.8949Z" fill="#B60026"/>
<path d="M23.692 20.26C23.783 20.3989 23.7639 20.6776 23.7324 20.8376C23.7046 20.8568 23.6735 20.8813 23.6442 20.8949C23.6776 20.7403 23.6397 20.5111 23.692 20.26Z" fill="#84051A"/>
<path d="M23.3151 20.2448L23.3781 20.3041C23.4341 20.4758 23.4013 20.7076 23.3804 20.8857L23.3174 20.8353C23.2605 20.6586 23.2919 20.4276 23.3151 20.2448Z" fill="#B60026"/>
<path d="M23.1249 20.2742C23.2002 20.2978 23.1686 20.2774 23.221 20.3402C23.2584 20.5349 23.2327 20.6819 23.2122 20.8773L23.1639 20.8348C23.1282 20.6961 23.1296 20.4275 23.1249 20.2742Z" fill="#B60026"/>
<path d="M22.893 20.2914L22.9351 20.3349C22.9713 20.5007 22.9502 20.7007 22.9407 20.8733C22.8395 20.7578 22.8843 20.4633 22.893 20.2914Z" fill="#AE1618"/>
<path d="M22.4112 20.3267L22.442 20.3528C22.4842 20.4613 22.4678 20.6834 22.4657 20.8099L22.4209 20.7729C22.3784 20.6311 22.4017 20.4782 22.4112 20.3267Z" fill="#84051A"/>
<path d="M21.893 20.8907C21.6331 20.8471 20.9281 20.7507 20.7545 20.5813L20.7583 20.5195C20.9787 20.3756 21.3779 20.2986 21.6443 20.2515C23.0566 20.0019 24.564 20.0162 25.9689 20.3126C26.163 20.3536 26.3587 20.4057 26.5274 20.5109L26.5512 20.5691C26.3791 20.7827 25.6177 20.825 25.3378 20.9234L25.0026 20.9389C24.8847 20.9333 24.7669 20.926 24.6493 20.9168L24.6199 20.8669C25.2641 20.8182 25.7685 20.7339 26.3884 20.5582C24.7084 20.1803 22.6249 20.0432 20.9635 20.5669C21.3137 20.6768 21.6205 20.7361 21.9805 20.7946L21.893 20.8907Z" fill="#A07E00"/>
<path d="M20.3563 19.7186L20.3864 19.7131C20.6171 19.6685 20.8719 19.6044 21.0961 19.5331C21.5149 19.4001 22.0432 19.3937 22.4598 19.3171C23.1166 19.1963 26.5399 19.3015 26.9129 19.7945C26.6793 19.8466 26.0865 19.6514 25.8039 19.6004C25.0992 19.48 24.3858 19.4195 23.6711 19.4197C22.9395 19.4177 22.2518 19.4797 21.529 19.5907C21.2565 19.6326 20.5672 19.853 20.3553 19.8437L20.3563 19.7186Z" fill="#A07E00"/>
<path d="M23.0305 19.509C24.073 19.4256 25.7677 19.5708 26.7598 19.9147C26.6021 19.9407 26.4654 19.9716 26.3096 20.0078L26.3015 20.052C26.4152 20.1548 26.5049 20.1923 26.4706 20.3519C26.3818 20.3793 26.0674 20.2698 25.9197 20.2381C25.3735 20.1212 24.865 20.0718 24.3122 20.0213C23.2863 19.9917 22.2715 20.0252 21.2696 20.265C21.1611 20.291 20.9391 20.3819 20.8413 20.3393L20.8173 20.2751C20.8664 20.1503 20.9732 20.0923 21.0844 20.009C20.901 19.9898 20.6968 19.9389 20.5146 19.8987C21.4726 19.6443 22.0517 19.5618 23.0305 19.509Z" fill="#A07E00"/>
<path d="M23.3335 19.6159C23.5252 19.6106 23.898 19.576 24.0453 19.6772C24.0674 19.7829 24.0714 19.7388 24.0159 19.8446C23.8174 19.8476 23.3767 19.897 23.2445 19.7556C23.2656 19.6585 23.2519 19.693 23.3335 19.6159Z" fill="#B60026"/>
<path d="M21.9476 19.72C22.1239 19.7008 22.3909 19.6449 22.4799 19.8335C22.4369 19.9015 22.3852 19.9084 22.3082 19.9359C22.1114 19.9671 21.9096 20.0227 21.7754 19.8499C21.8091 19.7609 21.8654 19.7561 21.9476 19.72Z" fill="#006C45"/>
<path d="M24.8278 19.7027C24.9762 19.682 25.3485 19.6726 25.4647 19.779C25.5262 19.8353 25.5122 19.8733 25.5231 19.9631C25.3993 19.9873 25.028 19.9788 24.9154 19.8929C24.8357 19.832 24.8527 19.8098 24.8278 19.7027Z" fill="#006C45"/>
<path d="M24.4408 20.8561L24.6198 20.8669L24.6492 20.9168C24.7668 20.926 24.8846 20.9333 25.0024 20.9389C24.6456 21.0032 22.7922 20.97 22.3949 20.9415C22.5708 20.9318 22.7466 20.9199 22.9222 20.9059C23.3667 20.8602 23.8892 20.9648 24.3995 20.8687L24.4408 20.8561Z" fill="#4C3C03"/>
<path d="M23.6878 21.0415L28.2375 21.0401L28.2326 26.6087C27.224 26.6027 26.2154 26.6026 25.2068 26.6085C25.1785 25.6 24.6878 24.8772 23.6853 24.7157L23.6878 21.0415Z" fill="#B3B2B2"/>
<path d="M26.0691 22.3652C25.925 22.3088 25.8335 22.2903 25.7504 22.1655C25.7479 22.0449 25.7314 22.081 25.7926 21.9994C25.8463 21.9953 25.9158 21.99 26.0012 21.9836C26.1274 21.9082 26.2496 21.7321 26.3964 21.7318C26.5332 21.8155 26.5988 21.894 26.7094 22.0098C26.7602 22.1768 26.7915 22.5479 26.7485 22.7164L26.6712 22.7302C26.6671 22.8908 26.8225 22.8899 26.8215 23.127C26.7805 23.1174 26.744 23.1032 26.7059 23.0855C26.6984 23.1863 26.6979 23.1992 26.6662 23.294C26.6037 23.2708 26.6157 23.2726 26.5646 23.227L26.5493 23.2131C26.1684 23.9026 27.0888 24.6808 27.2414 24.0446C27.2928 23.8304 26.9891 22.8879 27.1333 22.5548C27.1824 22.4413 27.2165 22.0206 27.3318 21.9296L27.3853 22.0298C27.5627 21.9527 27.6472 21.8611 27.7935 21.7968C27.7401 21.9046 27.5965 22.176 27.5602 22.2759L27.6206 22.3201C27.5312 22.5703 27.2584 22.8824 27.2281 23.0112C27.1767 23.2303 27.6637 24.1742 27.3729 24.329C26.8485 24.6083 26.6487 24.7956 27.105 25.131C27.1265 25.1468 26.9922 25.9899 26.9351 26.1643L26.896 26.1707C26.8146 26.0471 26.8163 25.9969 26.7049 25.9709C26.635 26.0246 26.6074 26.0457 26.547 26.1095L26.5033 26.059C26.5133 25.9556 26.5417 25.929 26.6001 25.8386L26.6016 25.7523C26.545 25.726 26.4044 25.7292 26.3332 25.7262L26.3169 25.6703C26.437 25.5245 26.6366 25.5949 26.7618 25.4507L26.7394 25.3763C26.5055 25.2858 26.2406 25.3968 26.2827 24.9329L26.2639 24.7813C26.3842 24.6607 26.4044 24.6274 26.3631 24.4708C26.2781 24.3722 26.2642 24.3655 26.14 24.328L26.0837 24.2155C25.8286 24.1381 25.8166 23.977 25.6436 23.7947C25.5556 23.7953 25.3104 23.9702 25.2191 24.0286C25.1219 23.9753 25.1186 23.9729 25.0102 23.9696C24.8452 24.0805 24.9569 24.1672 24.8365 24.3792C24.6358 24.3213 24.8335 24.105 24.44 24.0349L24.4373 23.9827C24.5251 23.8996 24.6219 23.8367 24.6204 23.7175C24.5598 23.6928 24.5196 23.6809 24.4679 23.6389C24.5597 23.5034 24.7289 23.6264 24.8646 23.6418C25.0466 23.6624 25.1366 23.5609 25.2742 23.4537C25.1244 23.2882 24.6879 23.063 24.6501 22.9711L24.7403 22.9205C24.6674 22.6875 24.5123 22.7681 24.2916 22.7619L24.2638 22.7101L24.2925 22.6315C24.382 22.5778 24.4152 22.5688 24.4646 22.4813C24.427 22.345 24.3993 22.3543 24.2829 22.2496L24.3555 22.1744C24.4896 22.1518 24.4571 22.1924 24.6196 22.2629C24.724 22.2025 24.7526 22.0658 24.826 21.9543C24.9162 22.0207 24.894 21.9859 24.931 22.0844C24.7618 22.5492 25.0107 22.6429 25.3564 22.8714C25.5041 22.855 25.6839 22.8602 25.779 22.7682C25.7599 22.6802 25.7548 22.6579 25.753 22.5685L25.891 22.4845C25.9951 22.5133 25.9475 22.5179 26.0391 22.4856L26.0691 22.3652Z" fill="#D858AD"/>
<path d="M26.0836 24.2155C26.5369 24.3969 26.538 24.518 26.2827 24.9329L26.2639 24.7813C26.3842 24.6607 26.4043 24.6274 26.3631 24.4708C26.2781 24.3722 26.2641 24.3655 26.14 24.328L26.0836 24.2155Z" fill="#8D3879"/>
<path d="M25.6036 22.9981C25.6497 23.0467 25.6199 23.2184 25.6337 23.351L25.6746 23.3735C25.7717 23.3143 25.7882 23.2986 25.8962 23.273C25.9027 23.3442 25.9185 23.3704 25.8898 23.4198C25.8496 23.4045 25.853 23.4009 25.8179 23.3727C25.7128 23.415 25.6512 23.4529 25.5409 23.4363C25.4825 23.337 25.5298 23.2331 25.561 23.1217C25.5076 23.0983 25.4942 23.0912 25.4452 23.0594L25.6036 22.9981Z" fill="#8D3879"/>
<path d="M26.14 24.328C26.2642 24.3655 26.2781 24.3722 26.3631 24.4708C26.4044 24.6274 26.3842 24.6607 26.2639 24.7813C26.1212 24.8076 26.1478 24.7798 26.0687 24.8679C26.0123 25.1014 26.2432 25.1993 26.0686 25.3751C25.9206 25.426 25.8087 25.4101 25.6527 25.4029C25.55 25.442 25.5035 25.5452 25.4392 25.6442L25.3938 25.651C25.3323 25.5462 25.3699 25.5087 25.3417 25.3652C25.2357 25.3414 25.1336 25.3229 25.027 25.3037L25.0341 25.2188C25.1705 25.0864 25.1741 25.2065 25.3087 25.0997C25.2772 25.0063 25.2449 24.9226 25.2088 24.8308L25.2345 24.7946C25.462 24.8826 25.5212 25.0917 25.7411 25.0623C25.7714 24.8387 25.1792 24.3306 26.14 24.328Z" fill="#D858AD"/>
<path d="M25.891 22.4845C25.8546 22.4844 25.8182 22.4835 25.7818 22.4817L25.7404 22.4796C25.5942 22.4729 25.275 22.2924 25.2599 22.1529C25.5824 22.0274 25.5592 22.3521 26.0357 22.3646L26.0691 22.3652L26.0391 22.4856C25.9475 22.5179 25.9951 22.5133 25.891 22.4845Z" fill="#B60026"/>
<path d="M19.109 21.0411L23.6432 21.0423L23.6438 24.714C23.1896 24.8005 23.0919 24.8972 22.6816 25.0876C22.5815 25.1341 22.5358 25.1168 22.4524 25.078C22.339 24.8864 22.3759 23.9671 22.4143 23.7475C22.6733 23.5919 22.6269 23.1057 22.4592 22.9559C22.3748 22.9411 22.33 22.9423 22.2654 22.8857C22.1544 22.5264 22.6001 22.5523 22.4081 22.1839C22.2561 22.1995 21.948 22.1958 21.8239 22.2371L21.7321 22.1503L21.6559 22.1858C21.6166 22.3591 21.6123 22.3824 21.6568 22.5554C21.7117 22.6016 21.7077 22.5982 21.7793 22.6027C21.8078 22.7195 21.8292 22.7667 21.8042 22.8857C21.7364 22.9538 21.6914 22.9521 21.6002 22.9119L21.554 22.899C21.4812 23.006 21.5396 22.9746 21.496 23.0999L21.5115 23.1032C21.5592 22.943 21.6584 22.9687 21.8079 22.9805L21.8588 22.9398L21.8521 22.8953C21.8445 22.8439 21.8431 22.8153 21.8422 22.7626C21.9266 22.689 22.0919 22.6895 22.1908 22.7303C22.2284 22.9573 22.0719 22.8586 22.2248 22.9718C22.3183 22.9722 22.3803 22.9725 22.473 22.9829C22.5318 23.0736 22.5312 23.5095 22.5204 23.633C22.3943 23.7471 22.317 23.6062 22.3174 23.7403C22.3187 24.156 22.3153 24.6153 22.3402 25.0265L22.3096 25.1468C22.4224 25.1884 22.5231 25.1854 22.6414 25.1906C22.6424 25.2009 22.2344 25.9125 22.2072 25.9281C21.985 25.9522 21.7527 25.9224 21.5635 25.9706C21.8124 25.9807 22.0004 25.9709 22.2468 25.9573C22.1948 26.1978 22.1743 26.357 22.1477 26.5981C21.1358 26.596 20.1238 26.5995 19.112 26.6086L19.109 21.0411Z" fill="#B60026"/>
<path d="M21.1296 22.3652C21.1321 22.1763 21.1554 22.2342 21.0666 22.1011L21.0458 22.0705C20.944 21.918 20.949 21.8604 20.9845 21.6815C21.1366 21.6018 21.426 21.7572 21.5801 21.6729C21.8365 21.5326 21.7985 21.935 21.7474 22.0643L21.7321 22.1503L21.6559 22.1858C21.6166 22.3591 21.6123 22.3824 21.6567 22.5554C21.7117 22.6016 21.7077 22.5982 21.7793 22.6027C21.8078 22.7195 21.8292 22.7667 21.8042 22.8857C21.7364 22.9538 21.6913 22.9521 21.6002 22.9119L21.554 22.899C21.4812 23.006 21.5396 22.9746 21.496 23.0999L21.5115 23.1032C21.5592 22.943 21.6583 22.9687 21.8079 22.9805L21.8588 22.9398L21.8521 22.8953C21.8445 22.8439 21.8431 22.8153 21.8422 22.7626C21.9266 22.689 22.0919 22.6895 22.1908 22.7303C22.2284 22.9573 22.0719 22.8586 22.2247 22.9718C22.3182 22.9722 22.3803 22.9725 22.473 22.9829C22.5318 23.0736 22.5312 23.5095 22.5204 23.633C22.3943 23.7471 22.317 23.6062 22.3174 23.7403C22.3187 24.156 22.3153 24.6153 22.3402 25.0265L22.3096 25.1468C22.4224 25.1884 22.5231 25.1854 22.6414 25.1906C22.6424 25.2009 22.2344 25.9125 22.2072 25.9281C21.985 25.9522 21.7526 25.9225 21.5635 25.9706L21.5021 25.9613L21.2062 25.9664C21.0836 25.9988 20.1615 25.9864 19.9709 25.9854L19.9715 25.1447C20.1045 25.1431 20.2254 25.1376 20.3579 25.1301C20.3594 24.743 20.3837 24.1565 20.3343 23.7873C20.3187 23.7683 20.3032 23.7493 20.2876 23.7304L20.2688 23.7062C20.1262 23.5177 20.1579 23.2018 20.2039 22.9796C20.2855 22.9397 20.31 22.9349 20.3989 22.9125C20.4705 22.8276 20.4605 22.7934 20.4669 22.674L20.4409 22.6463C20.312 22.5065 20.1895 22.3502 20.345 22.1579C20.4476 22.1603 20.4213 22.1668 20.5219 22.2542L20.6272 22.1593C20.8228 22.168 20.6877 22.1805 20.8696 22.2561L21.0022 22.1458L21.0472 22.1609C21.098 22.2892 21.084 22.4162 21.083 22.5571L21.0617 22.5956L20.9265 22.6321L20.8929 22.7441C20.9069 22.8561 20.9255 22.9324 21.0479 22.9388C21.1973 22.7889 21.1452 22.5638 21.1296 22.3652Z" fill="#4C3C03"/>
<path d="M21.2063 25.9664C21.1187 25.789 21.1189 25.3321 21.3712 25.256C21.4802 25.2945 21.4924 25.301 21.5576 25.397L21.5633 25.4866C21.5619 25.6034 21.5825 25.8863 21.5022 25.9613L21.2063 25.9664Z" fill="#0043AD"/>
<path d="M21.554 22.899C21.5985 22.5795 21.3955 22.1591 21.7474 22.0643L21.7321 22.1503L21.6559 22.1858C21.6166 22.3591 21.6123 22.3824 21.6567 22.5554C21.7117 22.6016 21.7077 22.5982 21.7793 22.6027C21.8078 22.7195 21.8292 22.7667 21.8042 22.8857C21.7364 22.9538 21.6913 22.9521 21.6002 22.9119L21.554 22.899Z" fill="#84051A"/>
<path d="M21.6003 22.912C21.5934 22.6734 21.5491 22.6471 21.7794 22.6027C21.8078 22.7195 21.8292 22.7667 21.8043 22.8857C21.7364 22.9538 21.6914 22.9521 21.6003 22.912Z" fill="#B60026"/>
<path d="M22.3097 25.1468C22.1801 25.1343 22.0625 25.1345 21.9473 25.0774C21.9983 25.0181 21.9873 25.051 21.9897 24.9791C21.9038 24.9661 21.8765 24.9595 21.7927 24.9347L21.7786 24.8784C21.8522 24.8075 21.9186 24.7932 22.0214 24.8026C22.156 24.8148 22.0337 24.8752 22.128 25.0103L22.3403 25.0265L22.3097 25.1468Z" fill="#A07E00"/>
<path d="M21.5576 25.397C21.6863 25.3123 21.6981 25.272 21.829 25.2761C21.9121 25.355 21.8902 25.3123 21.8996 25.4419C21.8415 25.5619 21.8797 25.5273 21.7649 25.5719C21.6638 25.5495 21.6388 25.5519 21.5633 25.4866L21.5576 25.397Z" fill="#A07E00"/>
<path d="M20.2588 23.0238C20.3535 23.0207 20.3799 23.0175 20.4717 23.0358L20.4622 23.0413L20.5252 23.0856C20.5767 23.2815 20.5052 23.2491 20.6067 23.4397C20.4975 23.4438 20.3033 23.4644 20.2338 23.3801C20.3038 23.3567 20.3785 23.3418 20.4288 23.2943C20.3321 23.2685 20.3056 23.2796 20.2485 23.2185L20.2588 23.0238Z" fill="#856602"/>
<path d="M21.91 24.0085C21.9635 24.0393 21.9735 24.0535 22.0187 24.0946C22.0743 24.2508 22.0664 24.4213 22.0055 24.5747C21.7359 24.5144 21.8188 24.1888 21.91 24.0085Z" fill="#0043AD"/>
<path d="M20.7398 24.0071C20.8006 24.0294 20.7993 24.0359 20.8535 24.0762C20.9154 24.2215 20.8898 24.3919 20.8817 24.5538C20.7837 24.544 20.7837 24.5501 20.7094 24.4903C20.6361 24.3224 20.6867 24.1758 20.7398 24.0071Z" fill="#0043AD"/>
<path d="M20.9124 25.2377C21.0416 25.3034 21.1267 25.3326 21.1339 25.4824L21.068 25.5554C20.9282 25.5554 20.9195 25.5783 20.814 25.5091C20.8095 25.3805 20.845 25.3624 20.9124 25.2377Z" fill="#A07E00"/>
<path d="M21.0363 21.7046C21.0761 21.7328 21.1154 21.7616 21.1543 21.791C21.2973 21.7667 21.447 21.7604 21.5893 21.7914L21.6994 21.7052L21.7115 21.8249C21.5766 21.9352 21.1696 21.9344 21.0339 21.8237L21.0363 21.7046Z" fill="#A07E00"/>
<path d="M20.3273 22.4626C20.474 22.4419 20.8525 22.438 20.9968 22.4656L21.0363 22.5378C20.8226 22.5397 20.453 22.5855 20.3273 22.4626Z" fill="#A07E00"/>
<path d="M20.7733 23.5121C21.0024 23.4879 21.0875 23.4276 21.1741 23.6516C21.0624 23.6645 20.9947 23.6689 20.8823 23.6691C20.7801 23.6087 20.8123 23.6464 20.7733 23.5121Z" fill="#A07E00"/>
<path d="M21.1548 23.5126C21.3798 23.488 21.4709 23.4274 21.5559 23.6496C21.3268 23.679 21.2378 23.7329 21.1548 23.5126Z" fill="#A07E00"/>
<path d="M21.3727 24.074C21.594 24.051 21.6779 23.995 21.7832 24.2022C21.5755 24.2176 21.4384 24.2904 21.3727 24.074Z" fill="#A07E00"/>
<path d="M21.0255 21.935C21.2587 21.9399 21.4781 21.9482 21.7119 21.9424L21.7121 21.9722L21.6676 22.0135C21.4912 22.0273 21.2091 22.0447 21.0433 21.999L21.0255 21.935Z" fill="#A07E00"/>
<path d="M20.9227 23.0078L20.9422 23.0181L20.9401 23.0629C21.0093 23.0978 21.066 23.1223 21.1376 23.1521L21.1742 23.2681C21.0561 23.2889 20.9722 23.3096 20.8744 23.2386C20.8547 23.1382 20.8803 23.1074 20.9227 23.0078Z" fill="#A07E00"/>
<path d="M20.9758 24.0745C21.1783 24.0571 21.2945 23.9984 21.3783 24.1973C21.1474 24.2311 21.0877 24.2879 20.9758 24.0745Z" fill="#A07E00"/>
<path d="M20.2318 25.6213C20.4189 25.6054 20.5236 25.5534 20.6024 25.7372C20.4167 25.7519 20.3006 25.8069 20.2318 25.6213Z" fill="#A07E00"/>
<path d="M20.5421 25.4149C20.6632 25.4196 20.6945 25.3975 20.7644 25.4665L20.7234 25.548C20.6102 25.5452 20.4995 25.5471 20.4103 25.4749C20.4543 25.4169 20.4509 25.4345 20.5421 25.4149Z" fill="#A07E00"/>
<path d="M21.1898 22.176C21.3136 22.1621 21.4058 22.1431 21.4991 22.2092L21.5055 22.2884C21.3775 22.2653 21.3235 22.3381 21.2044 22.2792L21.1898 22.176Z" fill="#856602"/>
<path d="M21.4067 24.4612C21.5572 24.4491 21.645 24.4211 21.7582 24.4933L21.7546 24.5776C21.6224 24.577 21.5378 24.588 21.4167 24.5347L21.4067 24.4612Z" fill="#A07E00"/>
<path d="M21.1715 24.2882C21.2917 24.2774 21.4144 24.2473 21.5081 24.3085L21.5205 24.3989C21.3593 24.4082 21.2511 24.447 21.1715 24.2882Z" fill="#A07E00"/>
<path d="M20.6235 25.6175C20.7804 25.6142 20.9039 25.5818 20.984 25.7353C20.8576 25.7465 20.7587 25.7714 20.6506 25.7135L20.6235 25.6175Z" fill="#A07E00"/>
<path d="M20.4174 25.0244C20.5389 25.0167 20.6348 24.9954 20.7376 25.0528L20.7554 25.1359C20.6335 25.1472 20.5496 25.1701 20.4433 25.1158L20.4174 25.0244Z" fill="#A07E00"/>
<path d="M21.3657 23.7627L21.396 23.7589C21.5438 23.7412 21.6371 23.7217 21.7465 23.8083C21.5492 23.8482 21.5198 23.8512 21.3657 23.7627Z" fill="#A07E00"/>
<path d="M21.7166 23.7735C21.9205 23.7613 21.9543 23.7213 22.1499 23.7945C21.9553 23.8447 21.9 23.8502 21.7166 23.7735Z" fill="#A07E00"/>
<path d="M25.695 27.1792C25.4678 27.1454 25.4403 27.052 25.2146 26.9681C25.1793 26.8702 25.2027 26.8347 25.2201 26.722C25.3285 26.6452 27.9147 26.6815 28.2392 26.6804C28.2344 27.3691 28.2341 28.0578 28.2383 28.7464C28.2402 29.2786 28.2733 30.1535 28.1546 30.6397C28.0524 31.06 27.837 31.4432 27.5323 31.7465C27.0913 32.1794 26.4975 32.4152 25.8836 32.4012C25.307 32.3846 24.8633 32.1523 24.4463 31.7684C24.3863 31.7132 24.2519 31.5704 24.191 31.5433C23.5446 30.4383 23.6945 29.7653 23.6941 28.504C23.9193 28.4744 24.1988 28.4051 24.28 28.6889C24.288 28.5997 24.2895 28.4518 24.334 28.3831L24.3885 28.4051C24.4624 28.6065 24.3671 28.9368 24.4457 28.9863C24.4016 28.744 24.6175 28.1017 24.7738 27.9155L24.8577 27.8335L24.942 27.8551C24.8927 27.7678 24.9089 27.7897 24.9119 27.6728C25.0687 27.4794 25.1698 27.5648 25.3886 27.5234C25.4348 27.5147 25.4555 27.4178 25.5882 27.3596C25.6935 27.3798 25.6956 27.3656 25.7758 27.4399C25.8244 27.484 25.8532 27.5462 25.8556 27.6123C25.8587 27.7143 25.8126 27.7303 25.7346 27.8148C25.7877 27.8024 25.8407 27.7895 25.8936 27.7761C26.0318 27.3426 25.4685 27.3576 25.3756 27.2486C25.472 27.1816 25.5742 27.1884 25.695 27.1792Z" fill="#A07E00"/>
<path d="M25.695 27.1792C25.4678 27.1454 25.4403 27.052 25.2146 26.9681C25.1793 26.8702 25.2027 26.8347 25.2201 26.722C25.3285 26.6452 27.9147 26.6815 28.2392 26.6804C28.2344 27.3691 28.2341 28.0578 28.2383 28.7464C28.2402 29.2786 28.2733 30.1535 28.1546 30.6397C28.0524 31.06 27.837 31.4432 27.5323 31.7465C27.0913 32.1794 26.4975 32.4152 25.8836 32.4012C25.307 32.3846 24.8633 32.1523 24.4463 31.7684C24.3863 31.7132 24.2519 31.5704 24.191 31.5433C23.5446 30.4383 23.6945 29.7653 23.6941 28.504C23.9193 28.4744 24.1988 28.4051 24.28 28.6889C24.2789 28.7102 24.2664 28.9117 24.265 28.9136C24.0363 29.2354 23.9996 29.2558 24.2674 29.5453C24.2829 29.658 24.2804 29.6717 24.2452 29.78C24.1745 29.8356 24.1607 29.8462 24.1039 29.9153C24.0729 30.464 24.494 30.4407 24.3299 30.9791C24.2673 31.1845 24.7606 31.3199 24.9248 31.5179C25.0236 32.1615 25.3832 31.6824 25.7347 31.8752C25.8001 31.9702 25.8096 31.989 25.8953 32.0627C26.0469 32.0835 25.9883 32.0924 26.123 32.0392C26.5008 31.5194 26.8943 32.1213 27.0885 31.6272L27.0253 31.5359C27.1951 31.3133 27.2714 31.2429 27.5133 31.1978C27.7542 30.9912 27.5573 30.6861 27.6708 30.3893C27.6771 30.3729 27.8213 30.3469 27.8456 30.2636C27.9991 30.0496 27.6976 29.7632 27.7017 29.7241C27.7426 29.3385 28.0226 29.3338 27.7014 28.834C27.5891 28.6593 27.9285 28.444 27.8687 28.0485C27.8178 27.9969 27.8009 27.9944 27.7356 27.9679L27.7149 27.9597C27.5976 27.7037 27.918 27.4126 27.8416 27.1186C27.7785 27.0267 27.7656 27.0208 27.6623 26.9795C27.5111 27.0028 27.473 27.0744 27.3297 27.1776C27.0098 27.2197 26.6556 26.7138 26.5134 27.175C26.1914 27.2392 26.2109 27.0291 25.9582 26.9914C25.8268 27.0214 25.7863 27.0819 25.695 27.1792Z" fill="#B60026"/>
<path d="M24.9419 27.8551C24.8927 27.7678 24.9089 27.7897 24.9119 27.6728C25.0687 27.4794 25.1697 27.5648 25.3885 27.5234C25.4348 27.5147 25.4555 27.4178 25.5881 27.3596C25.6935 27.3798 25.6956 27.3656 25.7758 27.4399C25.8243 27.484 25.8531 27.5462 25.8556 27.6123C25.8587 27.7143 25.8125 27.7303 25.7345 27.8148C25.7047 28.111 25.6629 28.117 25.8649 28.3279C25.9143 28.5436 25.9014 28.7447 25.8981 28.9652L25.8496 28.9678C25.8081 29.0288 25.7885 29.0639 25.7371 29.1177L25.7276 29.1759C25.4811 29.1632 25.5553 29.1996 25.3732 29.0044C24.9939 28.918 24.9494 29.191 24.7057 29.1876C24.5615 29.1406 24.5392 29.1008 24.4456 28.9863C24.4016 28.744 24.6174 28.1017 24.7738 27.9155L24.8576 27.8335L24.9419 27.8551Z" fill="#B60026"/>
<path d="M24.942 27.8551C24.8927 27.7678 24.9089 27.7897 24.9119 27.6728C25.0687 27.4794 25.1698 27.5648 25.3886 27.5234C25.4348 27.5147 25.4555 27.4178 25.5882 27.3596C25.6935 27.3798 25.6956 27.3656 25.7758 27.4399C25.8244 27.484 25.8532 27.5462 25.8556 27.6123C25.8587 27.7143 25.8126 27.7303 25.7346 27.8148C25.7047 28.111 25.6629 28.117 25.865 28.3279C25.9144 28.5436 25.9015 28.7447 25.8982 28.9652L25.8497 28.9678C25.6919 28.8017 25.5224 28.6675 25.5099 28.4443C25.5023 28.3493 25.4642 28.2279 25.4002 28.1545C25.1731 27.8939 25.1797 28.191 24.942 27.8551Z" fill="#B60026"/>
<path d="M24.7738 27.9155L24.8577 27.8335L24.942 27.8551C25.1797 28.191 25.1731 27.8939 25.4002 28.1545C25.4642 28.2279 25.5023 28.3493 25.5099 28.4443C25.5224 28.6675 25.6919 28.8017 25.8497 28.9678C25.8082 29.0288 25.7885 29.0639 25.7372 29.1176C25.6422 28.9957 25.4246 28.6969 25.3158 28.6158L25.2044 28.6763C25.0019 28.6334 24.9227 28.2552 24.9151 28.0937C24.8587 28.0226 24.8117 27.9632 24.7738 27.9155Z" fill="#A07E00"/>
<path d="M25.8482 29.5578L25.8928 29.5629C25.8956 29.6785 25.9264 30.2784 25.8529 30.3762C25.7168 30.5571 25.7008 30.5927 25.7385 30.839C26.0248 31.0297 26.0277 31.5122 25.7414 31.6683C25.6244 31.6893 25.6037 31.6771 25.4912 31.6337C25.3933 31.1644 25.0444 31.3924 24.8389 31.2058C24.7864 31.0781 24.8065 30.9386 24.8141 30.7994C24.8493 30.753 25.0116 30.5362 25.0442 30.5198C25.329 30.3764 25.3455 30.4471 25.5335 30.1699C25.5386 29.83 25.6086 29.815 25.8482 29.5578Z" fill="#B60026"/>
<path d="M26.0768 29.559L26.1214 29.5571C26.2364 29.6844 26.4126 29.8395 26.4317 30.0191C26.4472 30.1644 26.5297 30.4272 26.6822 30.4783L26.7607 30.4159C27.1092 30.4396 27.274 31.2234 26.934 31.3689L26.8735 31.2732L26.8026 31.2687C26.4764 31.444 26.4983 31.6129 26.3222 31.7015C25.9891 31.6623 25.9944 31.0564 26.0892 30.9127C26.3567 30.8482 26.2853 30.5803 26.1464 30.4134C26.0253 30.2679 26.0717 29.7549 26.0768 29.559Z" fill="#B60026"/>
<path d="M26.5009 29.3564C26.8066 29.2426 26.7422 29.3127 27.0107 29.3638C27.228 29.3035 27.4025 29.3005 27.5141 29.5115C27.5255 29.7881 27.404 29.9663 27.3443 30.192C27.3205 30.2819 27.5788 30.4156 27.4694 30.6648C27.3639 30.7185 27.3969 30.72 27.2925 30.7135C27.1093 30.5739 26.9315 30.3868 27.0023 30.1518C26.9723 30.0508 26.8719 29.9307 26.7893 29.8975C26.4456 29.7593 26.4456 29.7143 26.2227 29.4165L26.2757 29.3354L26.5009 29.3564Z" fill="#B60026"/>
<path d="M26.501 29.3564C26.8066 29.2426 26.7423 29.3127 27.0108 29.3638C27.0217 29.4104 27.0185 29.4289 27.0195 29.4773L26.9583 29.5308C26.7338 29.5894 26.5938 29.5731 26.501 29.3564Z" fill="#A07E00"/>
<path d="M26.2189 29.0921C26.318 28.9675 26.5315 28.6789 26.6463 28.5964L26.7669 28.6674C26.9324 28.6069 27.0162 28.3649 26.9942 28.1923C27.0708 27.9797 27.3862 27.6415 27.5446 27.4585C27.5488 27.533 27.5655 27.7981 27.5449 27.8592C27.5027 27.9847 27.3679 28.086 27.3831 28.2593C27.4253 28.7393 27.5774 28.3268 27.5517 28.9701C27.4519 29.0674 27.3887 29.1454 27.2529 29.1799C27.0545 29.1719 26.8384 28.8404 26.5497 29.0359C26.4504 29.221 26.4684 29.1933 26.2419 29.166L26.2189 29.0921Z" fill="#B60026"/>
<path d="M26.0625 28.9646C26.0587 28.8172 26.0325 28.4356 26.0785 28.3197L26.0994 28.3142C26.1728 28.2941 26.1839 28.2943 26.2452 28.2447C26.3061 27.9154 25.9933 27.6922 26.1558 27.4106C26.6284 27.117 26.5044 27.7399 26.9601 27.4637C27.0738 27.3948 27.1182 27.3272 27.2579 27.3183L27.3561 27.3599C27.3519 27.4924 26.9921 27.852 26.907 27.9739C26.831 28.0826 26.5746 28.0366 26.5356 28.1523C26.3877 28.5909 26.4035 28.6388 26.1018 28.9851L26.0625 28.9646Z" fill="#B60026"/>
<path d="M25.7047 29.3337L25.7459 29.4134C25.479 29.7688 25.5315 29.7225 25.1482 29.9175C25.0601 29.9624 24.9513 30.0783 24.9256 30.1896L24.9971 30.2999C24.9274 30.4765 24.7744 30.6769 24.5824 30.709L24.5153 30.6511C24.4727 30.5365 24.4545 30.511 24.4612 30.3929L24.5797 30.3009C24.672 30.0969 24.585 29.9194 24.4283 29.7827C24.3814 29.3918 24.786 29.1555 24.9608 29.4014C24.9524 29.4672 24.9539 29.4629 24.9755 29.5261C25.2625 29.5814 25.3412 29.5401 25.511 29.3451L25.7047 29.3337Z" fill="#B60026"/>
<path d="M25.8497 28.9678L25.8982 28.9652L26.0625 28.9646L26.1019 28.9851L26.2189 29.0921L26.2419 29.166L26.2757 29.3354L26.2227 29.4165C26.1936 29.4546 26.1415 29.5172 26.1215 29.5571L26.0768 29.559C26.0239 29.5533 25.9482 29.5603 25.8929 29.5629L25.8483 29.5578C25.8267 29.5156 25.7761 29.4536 25.7459 29.4134L25.7047 29.3337L25.7277 29.1759L25.7372 29.1176C25.7885 29.0639 25.8082 29.0288 25.8497 28.9678Z" fill="#006C45"/>
<path d="M23.531 24.8078C25.3879 24.6539 25.8036 27.9169 23.8794 28.418C21.9183 28.6378 21.5779 25.1722 23.531 24.8078Z" fill="#B60026"/>
<path d="M23.4395 25.282C24.8259 25.0214 25.2555 27.3367 23.945 27.9329C22.3833 28.1632 22.2042 25.75 23.4395 25.282Z" fill="#0043AD"/>
<path d="M24.1337 25.6916C24.3056 25.8027 24.2561 25.952 24.2901 26.1375C24.3737 26.1429 24.3974 26.1384 24.4706 26.1827C24.4926 26.2825 24.4979 26.2889 24.4603 26.3789C24.3915 26.3963 24.3529 26.4027 24.2841 26.4132L24.2431 26.4841L24.3382 26.5293L24.3561 26.5799C24.3143 26.6576 24.2807 26.7285 24.2427 26.8079C24.0771 26.7757 24.1202 26.8059 24.0139 26.7115C23.9852 26.5803 23.9991 26.6098 24.0434 26.4623C23.9884 26.3374 23.9454 26.4773 23.8218 26.3383L23.8292 26.2184C23.9161 26.1279 23.8766 26.1553 24.0194 26.1327L24.0432 26.0995C24.0529 25.9099 24.0473 25.858 24.1337 25.6916Z" fill="#A07E00"/>
<path d="M23.6504 26.6137C23.7277 26.6761 23.7781 26.746 23.775 26.8472C23.7645 27.1844 23.8714 26.9925 24.0141 27.1538C24.015 27.2481 24.0119 27.244 23.9655 27.3287L23.8018 27.3438L23.7688 27.402C23.7958 27.4601 23.8156 27.4976 23.8464 27.5524C23.8031 27.6708 23.7854 27.6783 23.6919 27.7686C23.6044 27.7084 23.5984 27.7006 23.5297 27.6177C23.51 27.5016 23.5037 27.5495 23.5839 27.4298C23.4854 27.28 23.4505 27.4016 23.3212 27.2473L23.3344 27.1418C23.4175 27.0623 23.3825 27.0861 23.5252 27.0788C23.5852 27.0037 23.55 26.8014 23.6504 26.6137Z" fill="#A07E00"/>
<path d="M23.1264 26.4309C23.0413 26.4028 23.0281 26.393 22.9386 26.4121L22.8485 26.3511L22.8379 26.27C22.9228 26.181 22.9455 26.1776 23.0599 26.1249C23.0728 25.9828 23.0375 25.7966 23.1711 25.7155C23.398 25.8081 23.22 25.9828 23.3339 26.1366C23.4639 26.1459 23.4139 26.1258 23.5198 26.2238L23.5383 26.287C23.4113 26.4533 23.3539 26.3666 23.2268 26.4653L23.1264 26.4309Z" fill="#A07E00"/>
<path d="M23.1263 26.4309L23.2268 26.4653C23.3272 26.5001 23.3568 26.5172 23.3915 26.615C23.3148 26.754 23.2591 26.7457 23.1126 26.7551C23.0051 26.7081 23.0462 26.7434 22.981 26.6504C23.0333 26.4866 22.9955 26.5451 23.1263 26.4309Z" fill="#A07E00"/>
<path d="M21.0668 32.468C22.4572 32.4681 23.3375 31.8515 23.6703 30.4542C23.7661 30.8079 23.9141 31.2998 24.191 31.5433C24.1992 31.6231 24.4105 31.845 24.4747 31.8973C25.0574 32.372 25.6394 32.475 26.3484 32.442C25.0917 32.9852 23.8222 33.0778 22.4852 32.8752C22.0001 32.7881 21.5249 32.6517 21.0668 32.468Z" fill="#B3B2B2"/>
<path d="M22.962 32.2782C23.201 32.2713 23.3822 32.3932 23.6152 32.4954C23.4425 32.3143 23.2105 32.1783 23.1851 31.8862C23.1569 31.5629 23.7173 31.1184 23.9433 31.4497C24.0817 31.6525 24.2829 31.7435 24.2358 32.0105C24.2047 32.2229 23.9661 32.3199 23.8029 32.4164L23.7999 32.5152L23.8349 32.5371C23.9413 32.4582 24.0103 32.3989 24.1337 32.3483C24.2365 32.3042 24.3889 32.2974 24.4987 32.3089C24.6255 32.3178 24.7155 32.3154 24.8323 32.3704C24.8334 32.7056 24.0708 32.6694 23.8323 32.6921C23.7699 32.7997 23.7475 32.8586 23.6355 32.9163L23.5815 32.8973C23.6055 32.784 23.6222 32.7922 23.5906 32.6996C23.4448 32.6333 23.3284 32.6915 23.1715 32.6962C22.9779 32.702 22.688 32.4062 22.5392 32.2729C22.6672 32.266 22.8076 32.265 22.9369 32.2617L22.962 32.2782Z" fill="#3A342A"/>
<path d="M24.1338 32.3483C24.2366 32.3042 24.3889 32.2974 24.4987 32.3089C24.6183 32.3647 24.6369 32.3479 24.6897 32.449C24.574 32.6283 24.083 32.6559 23.9062 32.584C23.9648 32.5197 24.0938 32.3994 24.1338 32.3483Z" fill="#006C45"/>
<path d="M22.9369 32.2617L22.9621 32.2782C23.2835 32.3911 23.38 32.4463 23.6618 32.6445L23.1294 32.6467C23.0144 32.5837 22.8069 32.4828 22.7589 32.3649L22.7887 32.302L22.9369 32.2617Z" fill="#006C45"/>
<path d="M23.713 31.4272C23.8116 31.4795 23.9308 31.5535 24.0136 31.628C24.213 31.8074 24.1568 32.3846 23.8077 32.307L23.7769 32.2517C23.8156 32.1796 23.8537 32.1071 23.8913 32.0344C23.9073 31.8372 23.8357 31.6917 23.7286 31.5336L23.7053 31.4996C23.4684 31.8026 23.4908 31.9713 23.6367 32.3005L23.5966 32.314C23.4359 32.2684 23.323 32.2194 23.2394 32.0692C23.172 31.7455 23.4659 31.5459 23.713 31.4272Z" fill="#FBBE00"/>
<path d="M23.6648 31.6283L23.7176 31.6496C23.8795 31.8272 23.8407 32.0725 23.7404 32.2697C23.4826 32.143 23.5929 31.8298 23.6648 31.6283Z" fill="#B60026"/>
<path d="M21.1316 26.6761L21.6084 26.6812L21.6099 30.6142C21.61 30.9351 21.6305 32.1365 21.5876 32.3853L21.1305 32.3869L21.1316 26.6761Z" fill="#A07E00"/>
<path d="M20.1027 26.6762L20.5879 26.6759C20.5906 28.5249 20.6119 30.4024 20.5898 32.2489C20.4118 32.1651 20.2597 32.0721 20.0912 31.972C20.1316 30.2393 20.0912 28.4201 20.1027 26.6762Z" fill="#A07E00"/>
<path d="M20.626 26.6804L21.0808 26.6801L21.0804 32.3728C20.9772 32.3635 20.7651 32.3477 20.6902 32.2685C20.6027 32.1759 20.6268 27.1235 20.626 26.6804Z" fill="#B60026"/>
<path d="M21.6653 26.6824C21.8082 26.6792 21.9433 26.661 22.0709 26.7165C22.0972 26.8675 22.0962 28.4875 22.0878 28.7184C22.0475 29.8227 22.1448 31.2099 22.074 32.2835C21.9515 32.322 21.8074 32.3751 21.6888 32.3365C21.6483 32.1826 21.6636 30.9386 21.6636 30.7082L21.6653 26.6824Z" fill="#B60026"/>
<path d="M22.1484 27.0905L22.2076 27.0901C22.2509 27.4069 22.4607 27.7434 22.6397 27.9997L22.6348 31.9955C22.4892 32.0935 22.2991 32.1796 22.1389 32.258C22.1214 30.5485 22.1527 28.8056 22.1484 27.0905Z" fill="#A07E00"/>
<path d="M19.6159 26.6808L20.0407 26.6802L20.039 31.921C19.8761 31.8407 19.7227 31.6491 19.6095 31.511C19.6669 30.0251 19.6162 28.1938 19.6159 26.6808Z" fill="#B60026"/>
<path d="M19.1143 26.6752L19.5566 26.6768C19.5595 28.1737 19.6037 29.9574 19.5473 31.4315C19.0153 30.5869 19.1064 29.8468 19.1081 28.8966L19.1143 26.6752Z" fill="#A07E00"/>
<path d="M22.6914 28.0628C22.8325 28.189 22.9721 28.277 23.1284 28.3809L23.1293 31.5289C23.0619 31.6145 22.9609 31.7179 22.8853 31.8001L22.6814 31.9591C22.7111 30.7295 22.6305 29.245 22.6914 28.0628Z" fill="#B60026"/>
<path d="M23.1895 28.4004C23.3506 28.4605 23.4675 28.4758 23.636 28.5047C23.6418 29.4376 23.7457 30.2831 23.3742 31.131L23.1895 31.4423L23.1895 28.4004Z" fill="#A07E00"/>
<path d="M25.051 27.3694C25.0918 27.3664 25.1328 27.3637 25.1738 27.3615C25.3116 27.355 25.3367 27.3433 25.4171 27.418L25.4081 27.5075C25.2559 27.5096 25.1519 27.5407 25.0448 27.4698L25.051 27.3694Z" fill="#A07E00"/>
<path d="M21.9663 22.4628C22.1618 22.4273 22.2569 22.3735 22.3875 22.5355L22.3526 22.5399C22.1628 22.5625 22.1052 22.5751 21.9663 22.4628Z" fill="#A07E00"/>
<path d="M22.1483 27.0905C22.1173 26.9522 22.0951 26.8949 22.132 26.7545L22.1675 26.7619C22.2086 26.8886 22.2044 26.9595 22.2076 27.0901L22.1483 27.0905Z" fill="#4C3C03" fill-opacity="0.984314"/>
<path d="M23.8577 15.5106C23.9218 15.4604 23.942 15.4345 24.0229 15.4278L24.0821 15.4781C24.0857 15.5653 24.0879 15.6086 24.0791 15.6948C24.3903 15.6603 24.6097 15.4596 25.1162 15.5731C25.1228 15.4703 25.1148 15.3817 25.1723 15.3025C25.2673 15.3 25.2356 15.2991 25.3303 15.3794L25.3524 15.4647L25.2779 15.5856L25.3241 15.632C25.4495 15.5791 25.4282 15.4606 25.5588 15.4032C25.6401 15.4658 25.6141 15.4424 25.6598 15.5455C25.6352 15.6378 25.6219 15.6456 25.559 15.7209L25.5544 15.7583C25.6506 15.7933 25.8706 15.9586 25.9138 15.9492L25.9122 15.8839C26.0027 15.8012 25.9573 15.8226 26.0839 15.8123C26.1566 15.8774 26.1355 15.844 26.1482 15.9622L26.1246 15.9882L26.1012 15.8841L26.0355 15.8581L25.9657 15.8938L25.9696 15.945L26.0781 16.0307L26.0018 16.089L26.0583 16.0512L26.024 16.1053C26.1447 16.1162 26.1939 16.099 26.3107 16.0741C26.2872 16.0035 26.2928 16.0229 26.2473 15.9603L26.2627 15.9334C26.346 15.9806 26.3527 15.9951 26.4163 16.0702C26.9028 16.1003 27.182 16.0835 27.625 16.3113L27.6463 16.3208C27.8078 16.4202 27.8355 16.4378 28.0131 16.5033L28.1426 16.5518L28.2203 16.5114L28.2413 16.5594C28.1755 16.6054 28.1695 16.6044 28.0967 16.6295C28.1919 16.9172 28.615 17.2715 28.3446 17.8721C28.4874 17.9291 28.5303 17.7902 28.6121 18.0242L28.5859 18.0775C28.4747 18.1007 28.4706 18.1023 28.3631 18.0728L28.3439 18.0204L28.2929 18.0098L28.2592 18.0541L28.2436 18.1417C28.3308 18.1752 28.3344 18.1769 28.4264 18.1887L28.4544 18.2368C28.3939 18.4028 28.3634 18.3427 28.3082 18.408C28.2829 18.4381 28.3952 18.5379 28.3138 18.6194C27.5996 18.7416 28.0657 19.0082 27.4856 19.3235C27.3917 19.3745 27.3136 19.4912 27.2248 19.5525L27.1529 19.5909C26.6005 19.6934 26.6738 19.4032 26.544 19.4035C25.9759 19.4046 26.0443 19.5697 25.6242 19.0759C25.4276 19.2338 25.1631 19.406 24.9237 19.2155C24.3488 18.758 24.3217 19.6638 23.6694 18.9238C23.0065 19.5381 22.9806 19.0132 22.6668 19.0825C22.1401 19.1989 22.3682 19.5353 21.6606 19.079C21.4175 19.4741 21.2835 19.4334 20.8767 19.4052C20.5294 19.3812 20.7611 19.7 20.2262 19.5955L20.2218 19.6313C20.035 19.5558 19.8429 19.3345 19.6729 19.2113C19.5032 19.0883 19.4901 19.0428 19.4684 18.8408C19.3072 18.6796 19.2307 18.671 19.0075 18.611C18.9284 18.4921 19.0285 18.4522 19.0038 18.4263C18.9342 18.3532 18.8763 18.3592 18.8314 18.243C18.9241 18.1513 18.9069 18.1782 19.05 18.139L18.9757 18.0079C18.9181 18.0836 18.9193 18.0807 18.8401 18.1341L18.7611 18.1166C18.6762 18.0185 18.6893 18.0625 18.6901 17.9505C18.7716 17.8672 18.7515 17.8941 18.9015 17.8808L18.9123 17.8136C18.8236 17.6801 18.8613 17.8698 18.644 17.7924C18.5879 17.6937 18.5965 17.7453 18.6197 17.632C18.7237 17.5512 18.6735 17.5721 18.8337 17.5759L18.8503 17.5059C18.7626 17.402 18.7348 17.5164 18.5824 17.4241C18.5799 17.3218 18.5783 17.3565 18.6286 17.2569C18.7448 17.2258 18.7117 17.2378 18.8497 17.2946L18.8762 17.2825L18.8798 17.1476C18.7143 17.1297 18.7616 17.1569 18.6565 17.0668C18.6658 16.9602 18.6524 17.0005 18.7317 16.9112C18.8601 16.8875 18.8504 16.9457 18.9776 17.002C19.0976 16.6985 19.3509 16.4587 19.64 16.321L19.6606 16.3105C20.0145 16.0912 20.463 16.1018 20.8698 16.0679C20.9211 16.0018 20.9153 16.0024 20.991 15.9704L21.0159 15.9943L20.9791 16.0521C21.0351 16.0902 21.1456 16.1035 21.2173 16.1173L21.2618 16.0861C21.1611 15.9922 21.153 16.0162 21.1336 15.9083C21.1877 15.806 21.1481 15.8371 21.2506 15.8049C21.3498 15.8687 21.3177 15.8338 21.3617 15.9614C21.4532 15.9699 21.57 15.8412 21.6556 15.785C21.7355 15.7325 21.6659 15.5941 21.6594 15.4665L21.7386 15.4293C21.8309 15.4574 21.7941 15.4316 21.8523 15.5103C21.7811 15.4909 21.7653 15.4773 21.6981 15.5046L21.6901 15.5927L21.7463 15.649C21.9549 15.6847 22.4353 15.5005 22.7365 15.5799C22.8535 15.6108 23.2496 15.7328 23.2834 15.7276C23.2141 15.6489 23.1982 15.6415 23.1823 15.5423C23.2794 15.3721 23.3331 15.5115 23.4271 15.4846C23.575 15.4921 23.6938 15.502 23.8416 15.4859L23.8577 15.5106Z" fill="#4C3C03"/>
<path d="M21.0316 17.11L21.113 17.0936L21.1734 17.1377C21.154 17.2 21.1526 17.2073 21.1206 17.2636C21.1655 17.3518 21.1424 17.3372 21.2157 17.3806L21.3078 17.3676L21.3536 17.4039L21.3296 17.4778L21.2086 17.5091L21.3272 17.5532C21.3599 17.6459 21.3626 17.6416 21.3473 17.7368C21.2815 17.8187 21.2647 17.8277 21.179 17.8906C21.1451 18.0592 21.2096 18.1155 21.3048 18.281C21.1823 18.26 21.0295 18.2181 20.9169 18.2517L20.9142 18.3855C20.834 18.4458 20.7396 18.4984 20.708 18.5898C20.8573 18.9952 21.2817 18.6662 21.4858 18.7464C21.5484 18.9196 21.4283 19.1534 21.2986 19.2691C21.0397 19.3481 20.918 19.1885 20.7611 19.0026C20.6734 19.1211 20.494 19.3886 20.3742 19.4187C20.2376 19.3784 20.0592 19.2234 19.9498 19.1247C20.4831 19.0137 20.1996 18.9959 20.5337 18.6398C20.3237 18.613 20.281 18.6092 20.0986 18.5055C19.9356 18.5182 19.9157 18.5684 19.7593 18.6743C19.7232 18.5529 19.7125 18.4715 19.6248 18.3832C19.4302 18.3063 19.391 18.3438 19.3014 18.2134C19.3359 17.9636 19.6153 17.9702 19.3174 17.6504C19.768 17.3516 20.0394 17.2316 20.576 17.1638C20.7528 17.1414 20.8597 17.1643 21.0316 17.11Z" fill="#B60026"/>
<path d="M23.2155 16.635C23.2174 16.8354 23.1774 17.0271 23.1324 17.2219C23.2118 17.3083 23.2729 17.3638 23.3257 17.4698C23.2856 17.7299 23.3005 17.7581 23.4028 18.01C23.2686 17.9657 23.129 17.9064 22.9913 17.9093L22.9719 17.9413C22.8277 18.1777 22.6887 18.1592 22.6859 18.2989C22.8091 18.3843 22.9111 18.4022 22.9722 18.4959L22.9622 18.5925C23.1895 18.6762 23.4023 18.3868 23.5288 18.4971C23.564 18.7715 23.4174 18.9646 23.1508 19.0174C22.8632 19.0743 22.8107 18.7324 22.6066 18.6925C22.4848 18.7838 22.5178 19.0023 22.2793 19.0995C22.0325 19.2 21.6442 18.8723 21.7494 18.654C21.9437 18.6045 22.1098 18.6955 22.2059 18.6392L22.2131 18.5257C22.2808 18.4669 22.3267 18.4221 22.3889 18.3572L22.3929 18.2837C22.2826 18.1722 22.1395 18.1497 21.9895 18.0692L21.7564 18.1766C21.7768 18.0444 21.8174 17.9174 21.7564 17.8103C21.4875 17.7123 21.5368 17.5524 21.6777 17.3526C21.6674 17.2305 21.6001 17.1814 21.515 17.0876C21.8001 17.032 22.1056 16.9007 22.3889 16.812C22.6778 16.7216 22.9162 16.6839 23.2155 16.635Z" fill="#B60026"/>
<path d="M24.0937 16.6533C24.8628 16.764 25.207 16.9961 25.7718 17.0943C25.6582 17.2047 25.6178 17.223 25.6008 17.365C25.7789 17.6004 25.8234 17.6917 25.5485 17.8217C25.4966 17.9368 25.5444 18.0585 25.5738 18.1909C25.4383 18.1196 25.382 18.0944 25.2381 18.0433C25.1226 18.1644 24.9906 18.187 24.8998 18.3035C24.9295 18.4025 25.0332 18.459 25.1217 18.5255C25.1187 18.5674 25.1116 18.6071 25.1021 18.648C25.2022 18.6829 25.4043 18.6369 25.5288 18.6215L25.5864 18.6746C25.6111 19.0326 24.8701 19.4225 24.7506 18.6955C24.6801 18.683 24.682 18.6824 24.6178 18.6493L24.6035 18.571C24.4021 19.5008 23.6297 18.792 23.7771 18.4909C23.9226 18.4702 24.1181 18.574 24.3025 18.6124C24.4087 18.3895 24.5594 18.3864 24.606 18.2291C24.5489 18.1328 24.2972 18.0071 24.1728 17.9222L24.21 17.9134L23.9128 18C23.9603 17.8648 24.0506 17.6574 23.9773 17.5216C23.9887 17.3632 24.016 17.3847 24.1516 17.2382C24.114 17.0676 24.032 16.8016 24.0937 16.6533Z" fill="#B60026"/>
<path d="M26.375 17.1575C26.9614 17.1186 27.4598 17.3232 27.9412 17.6537L27.8408 17.8101C27.8114 18.0422 28.0017 18.048 27.9549 18.266C27.8604 18.316 27.7947 18.3406 27.6946 18.3783C27.6018 18.4696 27.5968 18.5365 27.5618 18.6637L27.3093 18.5147L27.3259 18.533C27.1767 18.5796 26.9454 18.6112 26.7846 18.6381C26.8921 18.7787 27.017 18.9262 27.1291 19.0654L27.0415 19.0586L27.3744 19.1221C27.2034 19.2668 27.0036 19.4606 26.7674 19.385C26.6902 19.2824 26.7115 19.1719 26.7201 19.0468L26.6288 19.0829L26.54 19.0303C26.4293 19.5185 25.6923 19.2019 25.7843 18.735C25.9205 18.6822 26.0976 18.8241 26.2372 18.8592C26.3673 18.8919 26.2628 18.7515 26.3536 18.7137C26.444 18.6761 26.5361 18.6869 26.6177 18.6061C26.5638 18.4401 26.4137 18.4625 26.3507 18.2685C26.2679 18.2172 26.134 18.2584 26.0142 18.2728C26.0777 18.1507 26.1256 18.0529 26.1805 17.9264C25.9852 17.7772 25.8929 17.6101 26.0445 17.3948L26.043 17.4115C26.1772 17.2829 26.2167 17.2553 26.375 17.1575Z" fill="#B60026"/>
<path d="M24.2374 15.8886C25.0529 15.615 26.3258 16.0303 25.8152 17.0145C25.8013 17.0414 25.7868 17.068 25.7718 17.0943C25.207 16.9961 24.8629 16.764 24.0937 16.6533C24.0488 16.5968 24.0302 16.3054 24.0297 16.2176C24.0287 16.0419 24.02 16.0515 24.1142 15.9489L24.2374 15.8886Z" fill="#FBBE00"/>
<path d="M21.8799 15.8958C22.285 15.7708 22.9516 15.6888 23.2723 16.0487C23.2281 16.2302 23.2188 16.4187 23.2448 16.6038L23.2155 16.635C22.9162 16.6839 22.6778 16.7216 22.3889 16.812C22.1056 16.9007 21.8001 17.032 21.515 17.0876C21.2014 16.6667 21.401 16.2532 21.7634 15.9601L21.8799 15.8958Z" fill="#FBBE00"/>
<path d="M26.375 17.1575C26.3068 17.1322 26.3355 17.1529 26.2917 17.0865C26.3208 17.0108 26.3625 16.5918 26.3651 16.4963C26.3657 16.4739 26.2558 16.4529 26.241 16.3668C26.7671 16.0711 27.5209 16.4796 27.9436 16.8132C28.0465 17.1035 28.1255 17.3727 27.9412 17.6537C27.4598 17.3232 26.9614 17.1186 26.375 17.1575Z" fill="#FBBE00"/>
<path d="M19.8219 16.4618C20.0568 16.3842 20.852 16.1821 21.0341 16.3518C21.0328 16.4021 21.0444 16.4058 21.0133 16.4458C20.8104 16.706 20.9497 16.8962 21.0316 17.11C20.8597 17.1643 20.7528 17.1414 20.576 17.1638C20.0394 17.2316 19.768 17.3516 19.3174 17.6504C19.2284 17.4521 19.2396 17.3099 19.2379 17.0935C19.3833 16.7459 19.5183 16.6659 19.8219 16.4618Z" fill="#FBBE00"/>
<path d="M19.6901 19.0237C19.9428 19.1624 20.1546 19.4317 20.51 19.4591C20.6896 19.473 20.5524 19.2955 20.683 19.1803C20.9189 19.1607 21.419 19.6779 21.5691 18.8579C21.5504 18.7923 21.5394 18.7734 21.5458 18.7054L21.5671 18.6964C21.6836 18.725 21.7717 18.9447 21.8738 19.0377C22.2801 19.4075 22.4182 19.012 22.6442 18.8044C22.8089 18.8487 22.8902 19.0982 23.0831 19.0957C23.5838 19.0892 23.5012 18.6122 23.6523 18.4973C23.765 18.5797 23.7612 18.8401 23.8762 18.9444C23.9762 19.0365 24.1097 19.0819 24.2443 19.0696C24.4361 19.0522 24.5434 18.929 24.6575 18.7831C25.0652 19.4365 25.3638 19.2226 25.6737 18.6796L25.7576 18.7132C25.7513 19.393 26.0221 19.3892 26.566 19.184C26.6575 19.2122 26.6855 19.3293 26.7492 19.4457C27.02 19.5688 27.2976 19.2244 27.4325 19.1976C27.4022 19.3397 27.3097 19.4016 27.2365 19.5314L27.2248 19.5525L27.1529 19.5909C26.6005 19.6934 26.6738 19.4032 26.5441 19.4035C25.976 19.4046 26.0444 19.5697 25.6242 19.076C25.4277 19.2338 25.1632 19.406 24.9238 19.2155C24.3488 18.7581 24.3218 19.6638 23.6695 18.9238C23.0066 19.5381 22.9807 19.0132 22.6669 19.0825C22.1401 19.1989 22.3683 19.5353 21.6606 19.0791C21.4176 19.4741 21.2836 19.4334 20.8768 19.4052C20.5294 19.3812 20.7612 19.7 20.2262 19.5955C20.0017 19.446 19.8492 19.2372 19.6901 19.0237Z" fill="#A07E00"/>
<path d="M23.8577 15.5106C23.9219 15.4604 23.942 15.4345 24.0229 15.4278L24.0821 15.4781C24.0857 15.5653 24.088 15.6086 24.0791 15.6948C24.3903 15.6603 24.6097 15.4596 25.1162 15.5731C25.1229 15.4703 25.1148 15.3817 25.1723 15.3025C25.2673 15.3 25.2356 15.2991 25.3303 15.3794L25.3524 15.4647L25.2779 15.5856L25.3241 15.632C25.4495 15.5791 25.4283 15.4606 25.5588 15.4032C25.6401 15.4658 25.6141 15.4424 25.6598 15.5455C25.6353 15.6378 25.6219 15.6456 25.559 15.7209L25.5544 15.7583C26.6466 16.8766 25.7557 16.8009 25.8197 17.5368L25.7923 17.5617C25.7065 17.4811 25.7015 17.4645 25.662 17.3521C25.6728 17.2848 25.6566 17.2926 25.7034 17.2433C26.4471 16.4602 25.5371 15.6288 24.6927 15.71C24.5408 15.7247 24.3291 15.7577 24.2374 15.8886L24.1142 15.9489L24.0425 15.9204C24.0394 15.867 24.0354 15.8137 24.0306 15.7605L23.965 15.7863C23.9315 16.0506 24.0331 16.9484 24.0962 17.2177C24.0297 17.2867 23.9143 17.4287 23.8319 17.4449C23.8383 17.3937 23.8255 17.3961 23.8577 17.3584C24.0197 17.1682 23.9273 16.715 23.9131 16.4794C23.9002 16.2666 23.8816 15.607 23.5965 15.6282C23.3089 15.888 23.3988 16.7601 23.3149 17.139C23.3029 17.1932 23.436 17.3177 23.4727 17.4189L23.4526 17.4744C23.3433 17.3797 23.2785 17.3171 23.1794 17.2123C23.2218 17.0163 23.2707 16.8277 23.2726 16.6269L23.2447 16.6038C23.2187 16.4187 23.2281 16.2302 23.2723 16.0487C23.4258 15.8223 23.2708 15.2645 23.9461 15.6695L23.9687 15.656L23.8577 15.5106Z" fill="#A07E00"/>
<path d="M19.05 18.139L18.9757 18.0079C18.9181 18.0836 18.9193 18.0807 18.8401 18.1341L18.7611 18.1166C18.6762 18.0185 18.6893 18.0625 18.6901 17.9505C18.7716 17.8672 18.7515 17.8941 18.9015 17.8808L18.9123 17.8136C18.8236 17.6801 18.8613 17.8698 18.644 17.7924C18.5879 17.6937 18.5965 17.7453 18.6197 17.632C18.7237 17.5512 18.6735 17.5721 18.8337 17.5759L18.8503 17.5059C18.7626 17.402 18.7348 17.5164 18.5824 17.4241C18.5799 17.3218 18.5783 17.3565 18.6286 17.2569C18.7448 17.2258 18.7117 17.2378 18.8497 17.2946L18.8762 17.2825L18.8798 17.1476C18.7143 17.1297 18.7616 17.1569 18.6565 17.0668C18.6658 16.9602 18.6524 17.0005 18.7317 16.9112C18.8601 16.8875 18.8504 16.9457 18.9776 17.002C19.0586 17.1827 18.9957 17.2191 19.0314 17.3781C19.0659 17.5313 19.1373 17.7716 19.1936 17.9165C19.1465 18.0322 19.1326 18.0421 19.05 18.139Z" fill="#A07E00"/>
<path d="M19.6607 16.3105C19.7934 16.3096 19.9302 16.2611 20.0585 16.222C20.3706 16.1269 20.6097 16.1376 20.9271 16.1804C20.7459 16.277 20.0202 16.2393 19.8159 16.4363L19.8219 16.4618C19.5184 16.6659 19.3834 16.7459 19.2379 17.0935L19.2295 17.0916C19.0402 17.2496 19.3063 17.7161 19.4212 17.8721C19.3503 18.0125 19.321 18.097 19.193 18.1863L19.1624 18.1793C19.3985 17.7067 18.9217 17.4152 19.1265 16.9013C19.222 16.6616 19.6065 16.4458 19.6401 16.321L19.6607 16.3105Z" fill="#A07E00"/>
<path d="M21.7633 15.9601C21.3939 15.9676 21.2253 16.6803 21.3674 16.9612C21.4332 17.0913 21.584 17.1813 21.6217 17.3326C21.583 17.4548 21.5787 17.4822 21.4922 17.5741L21.4502 17.5642C21.464 17.483 21.4772 17.4017 21.4899 17.3203C21.3492 17.144 21.2612 16.9975 21.2289 16.7674C21.1953 16.5197 21.2602 16.2687 21.4095 16.0696C21.774 15.5866 22.7493 15.459 23.2154 15.8332C23.1592 15.8749 22.065 15.5437 21.8799 15.8958L21.7633 15.9601Z" fill="#A07E00"/>
<path d="M27.9437 16.8132C27.7679 16.2524 26.7157 16.3014 26.3358 16.2094C27.0386 15.988 27.1616 16.3281 27.6251 16.3113L27.6463 16.3208C27.6656 16.4266 28.0178 16.6403 28.1246 16.8601C28.3093 17.2404 28.1742 17.5011 28.0241 17.8648C28.0214 17.8712 28.113 18.1451 28.1008 18.2198C28.0073 18.1612 27.9138 17.9689 27.853 17.8641C28.0929 17.5682 28.2662 17.1268 27.9437 16.8132Z" fill="#A07E00"/>
<path d="M19.4684 18.8408C19.3529 18.5726 19.1674 18.6369 19.0667 18.4494C19.1721 18.347 19.1212 18.3745 19.2582 18.3395L19.3415 18.3756C19.546 18.4693 19.5846 18.3119 19.6733 18.5515C19.7258 18.6931 19.69 18.7913 19.5709 18.8534L19.4684 18.8408Z" fill="#A07E00"/>
<path d="M28.2592 18.0541L28.1622 18.0393L28.1119 17.9686C28.113 17.8047 28.2246 17.3371 28.3208 17.203C28.391 17.3003 28.3188 17.7007 28.3446 17.8721C28.4874 17.9291 28.5303 17.7902 28.6121 18.0242L28.5859 18.0775C28.4746 18.1007 28.4705 18.1023 28.3631 18.0728L28.3439 18.0204L28.2929 18.0098L28.2592 18.0541Z" fill="#A07E00"/>
<path d="M23.5447 17.1234L23.6797 17.1356C23.781 17.2256 24.0217 17.881 23.7979 18.0381L23.7393 18.001L23.5709 18.033C23.3923 17.987 23.3171 17.8193 23.3621 17.6417C23.5003 17.5901 23.5303 17.5185 23.5772 17.3843C23.5583 17.3396 23.5502 17.3257 23.5242 17.2862L23.4995 17.2487L23.5447 17.1234Z" fill="#A07E00"/>
<path d="M23.0361 17.9613C23.2369 18.0043 23.3407 17.9998 23.4416 18.1965C23.4486 18.4778 23.2713 18.4962 23.0415 18.5589C23.0413 18.2793 22.874 18.4549 22.7568 18.2624C22.7939 18.1418 22.8839 18.1994 23.0404 18.0639L23.0361 17.9613Z" fill="#A07E00"/>
<path d="M24.266 17.9581C24.2853 17.9999 24.2769 17.9824 24.2728 18.0379C24.369 18.1588 24.4537 18.1183 24.535 18.2747L24.5001 18.3297C24.2967 18.3872 24.2775 18.3603 24.2525 18.5571C23.7093 18.411 23.7051 18.0908 24.266 17.9581Z" fill="#A07E00"/>
<path d="M28.1812 18.219L28.294 18.2126L28.2776 18.2065C28.3241 18.2338 28.3466 18.2598 28.3875 18.2533L28.359 18.2268L28.4085 18.2517L28.3969 18.2796L28.1535 18.3456C28.2009 18.3917 28.2344 18.439 28.2745 18.4913C28.2272 18.6462 28.0622 18.5344 27.8501 18.7709L27.8267 18.7973L27.7835 18.8577L27.6994 18.8538C27.6547 18.8047 27.6498 18.8219 27.6387 18.7603C27.55 18.2679 27.9931 18.5093 28.1812 18.219Z" fill="#A07E00"/>
<path d="M27.2911 18.5738C27.3733 18.6027 27.5057 18.6965 27.5575 18.7797C27.5669 19.0484 27.3482 19.04 27.1492 19.0385L27.0635 18.9849L27.0968 18.942C27.0727 18.869 26.9958 18.7675 26.9504 18.7008C27.0887 18.6437 27.1655 18.6874 27.2911 18.5738Z" fill="#A07E00"/>
<path d="M19.997 18.5686C20.033 18.5768 20.2923 18.661 20.3389 18.6756C20.4077 18.8058 20.2304 18.7272 20.2302 19.0237C20.0265 19.0401 19.7909 19.0804 19.7585 18.8195C19.8071 18.686 19.8807 18.6529 19.997 18.5686Z" fill="#A07E00"/>
<path d="M25.8531 17.6131C25.9501 17.6762 26.0235 17.9308 26.058 18.0512C26.0345 18.1574 26.0368 18.152 25.97 18.2375L25.9066 18.2401C25.6984 18.2127 25.7334 18.2488 25.5949 18.1283C25.5475 17.8934 25.6949 17.9086 25.8331 17.6509L25.8531 17.6131Z" fill="#A07E00"/>
<path d="M21.3953 17.6175C21.5395 17.6747 21.7711 17.9681 21.7099 18.175C21.6372 18.2278 21.6656 18.2125 21.5575 18.2086C21.4848 18.2462 21.4724 18.2571 21.3885 18.2645C21.2701 18.2002 21.3043 18.2389 21.2531 18.1233C21.2585 17.9421 21.3508 17.8255 21.3953 17.6175Z" fill="#A07E00"/>
<path d="M21.0318 18.3058C21.1436 18.2986 21.2334 18.3086 21.3239 18.3739C21.4512 18.6128 21.3017 18.6885 21.1205 18.797C20.991 18.6196 20.9743 18.7449 20.8014 18.5875C20.8215 18.4315 20.9362 18.5656 21.0318 18.3058Z" fill="#A07E00"/>
<path d="M21.9899 18.1097C22.1161 18.1599 21.988 18.1513 22.0598 18.1824C22.1481 18.2207 22.2411 18.2136 22.3 18.3016C22.2613 18.427 22.1895 18.4447 22.0789 18.5712L22.0445 18.6052C21.9317 18.6122 21.9271 18.6139 21.8351 18.5544C21.7675 18.4618 21.7665 18.4473 21.7657 18.3314C21.8346 18.176 21.827 18.2155 21.9899 18.1097Z" fill="#A07E00"/>
<path d="M26.0762 18.295L26.2269 18.3022C26.3672 18.4038 26.4496 18.4366 26.504 18.5824C26.4409 18.6805 26.4007 18.6626 26.2617 18.6994L26.2331 18.7589C26.1322 18.781 26.1625 18.7733 26.048 18.7251C25.9693 18.6402 25.9593 18.629 25.9463 18.5141C25.9975 18.3481 25.9605 18.4008 26.0762 18.295Z" fill="#A07E00"/>
<path d="M25.2832 18.1441C25.3936 18.1269 25.4775 18.1929 25.5346 18.2784C25.5536 18.4031 25.5372 18.4227 25.4751 18.5346C25.3845 18.6178 25.3185 18.611 25.1946 18.6256C25.1772 18.3833 25.052 18.5052 24.9955 18.2961C25.0556 18.2317 25.1468 18.2326 25.2377 18.2197L25.2832 18.1441Z" fill="#A07E00"/>
<path d="M23.5592 18.1081C23.6147 18.0733 23.6849 18.0731 23.7406 18.1077C23.7963 18.1423 23.8281 18.2057 23.8226 18.2717C23.8172 18.3377 23.7755 18.395 23.7149 18.4197C23.6317 18.4537 23.5366 18.4175 23.496 18.3364C23.4554 18.2552 23.4829 18.156 23.5592 18.1081Z" fill="#B60026"/>
<path d="M21.517 18.2826C21.6079 18.2543 21.7043 18.3064 21.7317 18.3987C21.7591 18.4911 21.7071 18.5884 21.6158 18.6156C21.5253 18.6425 21.4304 18.5904 21.4032 18.4989C21.376 18.4074 21.4269 18.3108 21.517 18.2826Z" fill="#B60026"/>
<path d="M25.6997 18.2839C25.787 18.2585 25.8786 18.3072 25.9077 18.3944C25.9369 18.4816 25.8933 18.5767 25.8087 18.6103C25.7503 18.6335 25.684 18.6222 25.6363 18.581C25.5885 18.5398 25.567 18.4754 25.5803 18.4132C25.5935 18.3511 25.6394 18.3014 25.6997 18.2839Z" fill="#B60026"/>
<path d="M23.5491 16.8071C23.5923 16.7718 23.6509 16.7631 23.7023 16.7845C23.7536 16.8058 23.7893 16.8538 23.7956 16.9096C23.8019 16.9655 23.7777 17.0204 23.7324 17.0529C23.6654 17.101 23.5727 17.0864 23.5232 17.02C23.4737 16.9536 23.4851 16.8593 23.5491 16.8071Z" fill="#FEFEFF"/>
<path d="M17.5792 24.1139C18.0241 24.0998 18.5944 24.146 19.0116 24.2998C19.0223 24.4637 19.0601 25.1977 18.9888 25.3099C18.8841 25.2928 18.7591 25.2537 18.6511 25.2296C18.296 25.1502 17.9346 25.1326 17.5794 25.0594C17.5727 25.277 17.5705 25.4947 17.5726 25.7125C18.041 25.8259 18.206 25.8309 18.2213 26.3879C18.2257 26.5478 18.2816 26.8345 18.1864 26.9702C18.0078 27.1439 17.8077 27.3218 17.5872 27.4395C17.5157 27.4605 17.5306 27.4401 17.5057 27.4841C17.4075 27.5347 17.074 27.6975 17.0223 27.7691C16.8117 27.8899 16.2239 28.0987 16.0899 28.2011L16.0341 28.2065L15.6508 28.3904C15.8297 28.6584 16.0095 29.1094 15.6379 29.3193C15.5839 29.0114 15.5058 28.9937 15.2662 28.7771L15.1157 27.8335C15.3653 27.5839 15.7106 27.411 16.0395 27.2972C16.0672 27.1188 16.0554 26.5989 16.055 26.3932C15.5229 26.2969 15.4197 26.2937 15.213 25.7613C15.1211 25.5367 15.0364 25.3092 14.9592 25.0791C15.2232 24.668 15.5527 24.4958 16.0173 24.3653C16.0971 24.3702 16.4792 24.2679 16.5546 24.2135C16.7037 24.1668 16.9394 24.1321 17.0969 24.1381C17.2363 24.1671 17.4411 24.1578 17.5792 24.1139Z" fill="#B60026"/>
<path d="M17.5792 24.1139C18.0241 24.0998 18.5944 24.146 19.0116 24.2998C19.0223 24.4637 19.0601 25.1977 18.9888 25.3099C18.8841 25.2928 18.7591 25.2537 18.6511 25.2296C18.296 25.1502 17.9346 25.1326 17.5794 25.0594C17.4938 25.02 17.3881 25.0238 17.309 25.0777C17.2362 25.0847 17.0098 25.0992 16.956 25.1226C16.8134 25.1639 16.2844 25.3133 16.1556 25.325C16.0789 25.3367 16.0342 25.3356 15.972 25.3827C16.0141 25.4174 16.0323 25.433 16.0537 25.4841L15.9989 25.5298C15.5419 25.4262 15.6434 25.6081 15.3089 25.8036C15.2911 25.814 15.2323 25.7736 15.213 25.7613C15.1211 25.5367 15.0364 25.3092 14.9592 25.0791C15.2232 24.668 15.5527 24.4958 16.0173 24.3653C16.0971 24.3702 16.4792 24.2679 16.5546 24.2135C16.7037 24.1668 16.9394 24.1321 17.0969 24.1381C17.2363 24.1671 17.4411 24.1578 17.5792 24.1139Z" fill="#B60026"/>
<path d="M17.5614 24.2616C17.5944 24.4209 17.385 24.8545 17.3129 25.0283L17.0331 24.4957L16.981 24.3995L17.0048 24.3268L17.0765 24.346C17.2254 24.4929 17.2633 24.6025 17.3526 24.7943C17.4216 24.5979 17.4751 24.4502 17.5614 24.2616Z" fill="#A07E00"/>
<path d="M17.9289 24.3108C18.0464 24.321 18.1249 24.3159 18.2066 24.3829C18.1276 24.393 18.07 24.3802 17.9916 24.3693L17.9377 24.4266C17.9859 24.59 18.1613 24.5743 18.2261 24.7791C18.1953 24.9057 18.2066 24.8652 18.1032 24.9703C18.0192 24.9705 17.8801 24.9576 17.8011 24.9308C17.9293 24.915 17.9838 24.9201 18.0873 24.8424C18.0909 24.7149 17.9396 24.7325 17.8233 24.5409C17.84 24.3969 17.828 24.4491 17.9289 24.3108Z" fill="#A07E00"/>
<path d="M16.4103 24.4103C16.729 24.4999 16.5219 24.7386 16.6906 24.9547C16.7846 24.947 16.8146 24.9447 16.9084 24.9576L16.9288 24.9606C16.7754 25.0337 16.6974 25.0388 16.5305 25.0641C16.4793 24.8307 16.4459 24.6458 16.4103 24.4103Z" fill="#A07E00"/>
<path d="M15.7957 24.6012C15.9477 24.709 16.0304 25.0944 16.0397 25.277C15.9849 25.2627 15.9766 25.2544 15.9252 25.2289C15.8179 25.0443 15.6786 24.7977 15.7957 24.6012Z" fill="#A07E00"/>
<path d="M16.956 25.1225L17.0605 25.158C17.1392 25.3538 17.1044 26.5254 17.0916 26.8C16.8088 26.932 16.3799 27.1183 16.1189 27.2628L16.0869 27.3115L16.0395 27.2972C16.0672 27.1188 16.0554 26.5989 16.055 26.3932C15.5228 26.2969 15.4197 26.2937 15.213 25.7613C15.2323 25.7736 15.291 25.814 15.3089 25.8036C15.6433 25.6081 15.5419 25.4262 15.9988 25.5298L16.0536 25.4841C16.0323 25.433 16.0141 25.4174 15.972 25.3826C16.0342 25.3356 16.0789 25.3367 16.1556 25.325C16.2844 25.3132 16.8134 25.1639 16.956 25.1225Z" fill="#B3B2B2"/>
<path d="M15.213 25.7613C15.2323 25.7736 15.291 25.814 15.3089 25.8036C15.6433 25.6081 15.5419 25.4262 15.9988 25.5298L16.0536 25.4841C16.0323 25.433 16.0141 25.4174 15.972 25.3826C16.0342 25.3356 16.0789 25.3367 16.1556 25.325C16.0346 25.5301 16.1079 26.8695 16.0962 27.1985C16.0957 27.2155 16.1108 27.2455 16.1189 27.2628L16.0869 27.3115L16.0395 27.2972C16.0672 27.1188 16.0554 26.5989 16.055 26.3932C15.5228 26.2969 15.4197 26.2937 15.213 25.7613Z" fill="#530211"/>
<path d="M15.7029 25.5768C16.1782 25.5561 16.1322 25.9087 16.0122 26.2678C15.9204 26.3301 15.9414 26.3079 15.797 26.2896C15.5741 26.2255 15.4438 26.2011 15.3804 25.9651C15.4141 25.7686 15.5498 25.6893 15.7029 25.5768Z" fill="#B60026"/>
<path d="M17.309 25.0777C17.3881 25.0238 17.4938 25.02 17.5794 25.0594C17.5728 25.277 17.5705 25.4947 17.5726 25.7125C18.041 25.8259 18.206 25.8308 18.2213 26.3879C18.2258 26.5478 18.2816 26.8345 18.1865 26.9702C18.2172 26.7072 18.1612 26.3942 18.1168 26.1324C17.8978 26.3385 17.7322 26.5047 17.4493 26.6175L17.3794 26.636C17.3189 26.7105 17.1792 26.7774 17.0916 26.8C17.1045 26.5254 17.1392 25.3538 17.0605 25.158L16.9561 25.1225C17.0098 25.0992 17.2362 25.0847 17.309 25.0777Z" fill="#535456"/>
<path d="M17.309 25.0777C17.3881 25.0238 17.4938 25.02 17.5794 25.0594C17.5727 25.277 17.5705 25.4947 17.5726 25.7125C18.041 25.8259 18.206 25.8308 18.2213 26.3879C18.2258 26.5478 18.2816 26.8345 18.1864 26.9702C18.2172 26.7072 18.1612 26.3942 18.1168 26.1324C17.8978 26.3385 17.7322 26.5047 17.4493 26.6175C17.5896 26.4571 17.6127 25.2171 17.4563 25.0472L17.309 25.0777Z" fill="#530211"/>
<path d="M17.5915 25.7742C17.6496 25.7881 17.7075 25.8024 17.7653 25.8173C17.9231 25.858 17.9849 25.8623 18.0614 25.9934C18.0195 26.1462 17.9968 26.1305 17.8703 26.259L17.5836 26.4801L17.5915 25.7742Z" fill="#B60026"/>
<path d="M17.4563 25.0472C17.6127 25.2171 17.5896 26.4571 17.4494 26.6175L17.3794 26.636C17.2919 26.4964 17.3395 25.5274 17.338 25.3062C17.3369 25.1349 17.3592 25.1326 17.4563 25.0472Z" fill="#B3B2B2"/>
<path d="M17.2009 25.1049C17.3211 25.2033 17.2658 26.4988 17.2473 26.7219C17.2068 26.6919 17.2089 26.6855 17.1778 26.6432C17.1657 26.3749 17.1466 25.3268 17.2009 25.1049Z" fill="#B3B2B2"/>
<path d="M29.3868 24.1155C29.7295 24.1632 30.0538 24.1273 30.3919 24.1609C30.6312 24.1848 31.0886 24.3627 31.3105 24.3639C31.7419 24.4738 32.4753 24.7557 32.2822 25.3616C32.2377 25.5011 32.1631 25.6573 32.104 25.7929C31.9204 26.303 31.7776 26.3055 31.2708 26.3911C31.2664 26.6191 31.2137 27.1456 31.3411 27.2945L31.4792 27.3681C31.7971 27.5111 31.9666 27.5981 32.2201 27.8381C32.1781 28.0957 32.1374 28.3857 32.0837 28.6386C32.0638 28.8173 31.8995 28.9546 31.7528 29.042C31.7385 29.1438 31.741 29.1936 31.687 29.2771L31.61 29.2566C31.4474 29.0446 31.4542 28.682 31.6369 28.4804L31.6495 28.4026L31.5602 28.299L31.4694 28.2631C31.3038 28.1604 30.9714 27.9982 30.7819 27.9793C30.6074 27.9309 30.3448 27.8045 30.1914 27.7042C30.081 27.5906 29.7267 27.3993 29.573 27.3162C29.3999 27.2409 29.2112 27.0277 29.0889 26.888C29.0756 26.6748 29.1148 26.0464 29.2664 25.8691L29.319 25.8489C29.4754 25.7709 29.5995 25.7894 29.751 25.6918L29.7442 25.0688C29.2683 25.1581 28.9317 25.1659 28.4233 25.2847C28.3512 25.2565 28.3827 25.2787 28.3345 25.2052C28.3147 24.9545 28.2805 24.4812 28.4162 24.2788C28.7493 24.1493 29.0349 24.1423 29.3868 24.1155Z" fill="#B60026"/>
<path d="M29.3868 24.1155C29.7295 24.1632 30.0538 24.1273 30.3919 24.1609C30.6312 24.1848 31.0886 24.3627 31.3105 24.3639C31.7419 24.4738 32.4753 24.7557 32.2822 25.3616C32.2377 25.5011 32.1631 25.6573 32.104 25.7929C32.0813 25.8006 32.0077 25.8106 32.003 25.806C31.8244 25.627 31.7748 25.5613 31.5288 25.4878C31.4499 25.5049 31.3855 25.5129 31.3054 25.5231C31.3235 25.4221 31.3297 25.4682 31.2953 25.3791C30.9883 25.1683 30.1225 25.0414 29.7442 25.0688C29.2683 25.1581 28.9317 25.1659 28.4233 25.2847C28.3512 25.2565 28.3827 25.2787 28.3345 25.2052C28.3147 24.9545 28.2805 24.4812 28.4162 24.2788C28.7493 24.1493 29.0349 24.1423 29.3868 24.1155Z" fill="#B60026"/>
<path d="M30.755 24.4221C30.9131 24.4546 31.0656 24.4691 31.189 24.5707C31.2098 24.7345 31.0688 24.6695 31.0417 24.8889C31.0825 24.9802 31.116 25.029 31.1112 25.1253L31.0316 25.172C30.9535 25.0822 30.9154 24.9611 30.8693 24.848C30.7502 24.8776 30.8733 24.9687 30.715 25.0667L30.6601 25.0351C30.6269 24.8889 30.7178 24.5844 30.755 24.4221Z" fill="#A07E00"/>
<path d="M31.7859 24.7888C31.8283 24.8158 31.8146 24.8138 31.845 24.8699C31.842 25.0317 31.8571 25.3867 31.7585 25.4897C31.6576 25.4058 31.6711 25.3792 31.6561 25.2305C31.4887 25.1157 31.5374 25.1331 31.3061 25.1633L31.3053 25.1303L31.7859 24.7888Z" fill="#A07E00"/>
<path d="M29.3017 24.2957L29.3391 24.3483C29.3098 24.5336 29.1983 24.8731 29.1413 25.0647C29.043 24.9417 28.9458 24.7782 28.8602 24.6426C28.7751 24.511 28.7676 24.5389 28.7561 24.3968L28.8178 24.4042C28.9905 24.5194 29.0348 24.6217 29.1426 24.8033C29.1981 24.6504 29.2528 24.4541 29.3017 24.2957Z" fill="#A07E00"/>
<path d="M30.0298 24.3192C30.1538 24.3247 30.3877 24.326 30.4968 24.3613C30.3297 24.6449 30.3721 24.4367 30.3521 24.8047C30.3445 24.8526 30.3314 24.9058 30.321 24.9538L30.2639 24.98L30.208 24.9523C30.1686 24.8331 30.217 24.5953 30.2215 24.4328C30.1566 24.3651 30.1178 24.3569 30.0298 24.3192Z" fill="#A07E00"/>
<path d="M29.5968 24.2807C29.6673 24.2997 29.6629 24.2998 29.7214 24.3451C29.7819 24.5085 29.7113 24.5845 29.7244 24.7864C29.8311 24.9754 29.7813 24.782 29.966 24.9412C29.7904 24.948 29.7128 24.9815 29.5885 24.8506C29.5323 24.7159 29.5805 24.4385 29.5968 24.2807Z" fill="#A07E00"/>
<path d="M29.7443 25.0688C30.1225 25.0414 30.9884 25.1683 31.2953 25.3791C31.3297 25.4682 31.3235 25.4221 31.3055 25.5231C31.3856 25.5129 31.4499 25.5049 31.5289 25.4878C31.7748 25.5613 31.8244 25.627 32.0031 25.806C32.0077 25.8106 32.0813 25.8006 32.104 25.7929C31.9204 26.303 31.7776 26.3055 31.2708 26.3911C31.2665 26.6191 31.2137 27.1456 31.3412 27.2945L31.4792 27.3681L31.442 27.3773C31.1909 27.2875 30.7518 27.115 30.5452 26.9529C30.4623 26.8917 30.0405 26.6771 29.9405 26.6388C29.8341 26.5474 29.7921 26.5179 29.7818 26.3712C29.7664 26.1496 29.7788 25.9042 29.7819 25.6825L29.751 25.6918L29.7443 25.0688Z" fill="#B3B2B2"/>
<path d="M29.7443 25.0688C30.1225 25.0414 30.9884 25.1683 31.2953 25.3791C31.3297 25.4682 31.3235 25.4221 31.3055 25.5231C31.3856 25.5129 31.4499 25.5049 31.5289 25.4878C31.7748 25.5613 31.8244 25.627 32.0031 25.806C32.0077 25.8106 32.0813 25.8006 32.104 25.7929C31.9204 26.303 31.7776 26.3055 31.2708 26.3911C31.2665 26.6191 31.2137 27.1456 31.3412 27.2945L31.4792 27.3681L31.442 27.3773C31.1909 27.2875 30.7518 27.115 30.5452 26.9529C30.6375 26.99 30.7129 27.0343 30.8071 27.0194C30.8497 26.6436 30.8218 25.6701 30.8193 25.2488C30.4856 25.1524 30.1244 25.121 29.78 25.0873C29.7817 25.2857 29.7824 25.4841 29.7819 25.6825L29.751 25.6918L29.7443 25.0688Z" fill="#535456"/>
<path d="M31.3054 25.5231C31.3855 25.5129 31.4499 25.5049 31.5288 25.4878C31.7747 25.5613 31.8243 25.627 32.003 25.806C32.0076 25.8106 32.0813 25.8006 32.1039 25.7929C31.9203 26.303 31.7776 26.3055 31.2707 26.3911L31.239 26.3732C31.235 26.0827 31.2223 25.7735 31.2514 25.4859L31.3054 25.5231Z" fill="#530211"/>
<path d="M31.2776 25.5809C31.6527 25.5608 32.1867 25.75 31.8241 26.1907C31.6828 26.2517 31.4416 26.3092 31.2862 26.3514C31.2727 26.1326 31.2794 25.8083 31.2776 25.5809Z" fill="#B60026"/>
<path d="M31.2391 26.3732C31.2388 26.5229 31.2494 27.1295 31.193 27.2252L31.1278 27.2047C31.0226 26.9786 30.9917 25.5189 31.1255 25.35C31.226 25.3865 31.1911 25.3624 31.2515 25.4859C31.2224 25.7735 31.2351 26.0827 31.2391 26.3732Z" fill="#B3B2B2"/>
<path d="M30.8953 25.2688L30.9537 25.2977C31.0246 25.4134 30.9909 26.8942 30.9891 27.1407L30.9334 27.1079C30.856 26.9772 30.8932 25.5371 30.8953 25.2688Z" fill="#B3B2B2"/>
<path d="M29.7509 25.6918L29.7818 25.6825C29.7787 25.9042 29.7663 26.1496 29.7818 26.3712C29.792 26.5179 29.834 26.5474 29.9404 26.6388C29.6615 26.5459 29.3899 26.2999 29.1849 26.0903C29.1722 26.3333 29.1594 26.66 29.0889 26.888C29.0755 26.6748 29.1148 26.0464 29.2664 25.8691L29.3189 25.8489C29.4754 25.7709 29.5995 25.7894 29.7509 25.6918Z" fill="#B60026"/>
<path d="M29.7509 25.6918L29.7818 25.6825C29.7787 25.9042 29.7663 26.1496 29.7818 26.3712C29.792 26.5179 29.834 26.5474 29.9404 26.6388C29.6615 26.5459 29.3899 26.2999 29.1849 26.0903C29.1722 26.3333 29.1594 26.66 29.0889 26.888C29.0755 26.6748 29.1148 26.0464 29.2664 25.8691L29.244 25.9703C29.2952 26.1936 29.5591 26.3466 29.7454 26.4854L29.7474 25.7602C29.6009 25.8037 29.4715 25.8521 29.3189 25.8489C29.4754 25.7709 29.5995 25.7894 29.7509 25.6918Z" fill="#530211"/>
<path d="M31.5603 28.299C31.7134 28.3257 31.9605 28.5377 32.0838 28.6386C32.0639 28.8173 31.8995 28.9546 31.7528 29.042C31.7386 29.1438 31.741 29.1936 31.687 29.2771L31.61 29.2566C31.4474 29.0446 31.4542 28.682 31.6369 28.4804L31.6495 28.4026L31.5603 28.299Z" fill="#B60026"/>
<path d="M31.5602 28.299C31.7133 28.3257 31.9605 28.5377 32.0837 28.6386C32.0638 28.8173 31.8994 28.9546 31.7527 29.042C31.8042 28.9255 31.9471 28.8158 32.0462 28.7253C31.911 28.5829 31.8389 28.4596 31.6368 28.4804L31.6494 28.4026L31.5602 28.299Z" fill="#530211"/>
<path d="M17.5056 27.4841C17.5305 27.4401 17.5157 27.4605 17.5871 27.4395C17.5176 28.3296 17.6092 29.4956 17.5733 30.4199L17.6805 30.4991C17.6697 30.6789 17.6338 30.6845 17.7026 30.8423C17.7768 30.8978 17.7754 30.897 17.8623 30.9285C18.0327 31.2421 17.7553 31.4345 18.0622 31.6172C18.1918 31.6282 18.1924 31.6047 18.2612 31.6754C18.2664 31.8749 18.2896 32.7331 18.2349 32.8545C18.0575 32.9013 17.7497 32.739 17.5548 32.6881C16.7018 32.9215 16.9338 32.9173 16.1082 32.688C15.9061 32.7471 15.5513 32.8827 15.3679 32.8874L15.3662 31.6306C15.4967 31.6114 15.6227 31.5817 15.7515 31.5536C15.7356 31.3937 15.7149 31.0903 15.7709 30.9467C15.876 30.9172 15.8873 30.908 15.9702 30.8355C16.0271 30.6714 15.9237 30.6775 15.9861 30.4953L16.0548 30.4469C16.0108 29.8468 16.039 28.8509 16.0341 28.2065L16.0899 28.2011C16.2239 28.0987 16.8117 27.8899 17.0223 27.7691C17.074 27.6975 17.4075 27.5347 17.5056 27.4841Z" fill="#0043AD"/>
<path d="M17.5056 27.4841C17.5305 27.4401 17.5157 27.4605 17.5871 27.4395C17.5176 28.3296 17.6092 29.4956 17.5732 30.4199C17.2618 30.3738 16.2333 30.4453 16.0891 30.3645C16.1006 29.6508 16.0911 28.9164 16.0898 28.2011C16.2239 28.0987 16.8117 27.8899 17.0222 27.7691C17.0739 27.6975 17.4075 27.5347 17.5056 27.4841Z" fill="#B3B2B2"/>
<path d="M17.5056 27.4841C17.5305 27.4401 17.5157 27.4605 17.5871 27.4395C17.5176 28.3296 17.6092 29.4956 17.5732 30.4199C17.2618 30.3738 16.2333 30.4453 16.0891 30.3645C16.2885 30.3359 16.8666 30.3504 17.0944 30.351C17.109 29.5702 17.113 28.6189 17.0859 27.833C17.0847 27.7991 17.0644 27.7991 17.0222 27.7691C17.0739 27.6975 17.4075 27.5347 17.5056 27.4841Z" fill="#535456"/>
<path d="M17.5057 27.4841C17.5595 27.6349 17.5542 30.0443 17.5259 30.3305L17.3972 30.3944C17.2955 30.2481 17.3236 27.96 17.3503 27.6344C17.4031 27.5853 17.4548 27.5352 17.5057 27.4841Z" fill="#B3B2B2"/>
<path d="M17.204 27.6694L17.2545 27.736C17.2782 28.0566 17.2992 30.2307 17.212 30.3856C17.1497 30.2346 17.1458 27.899 17.204 27.6694Z" fill="#B3B2B2"/>
<path d="M16.0341 28.2065L16.0899 28.2011C16.0911 28.9164 16.1006 29.6508 16.0891 30.3644C16.2333 30.4453 17.2618 30.3738 17.5733 30.4199L17.6805 30.4991C17.6697 30.6788 17.6338 30.6845 17.7026 30.8423C17.7768 30.8978 17.7754 30.897 17.8623 30.9285C18.0327 31.2421 17.7553 31.4345 18.0622 31.6172C17.4971 31.5429 17.3956 31.6107 16.8541 31.6355C16.4104 31.6558 15.9168 31.4508 15.45 31.6943L15.4052 31.7546C15.4834 31.9145 15.5675 31.8366 15.7164 31.8437C15.5797 31.8801 15.4873 31.8879 15.4055 32.0061L15.415 32.0628C15.5026 32.1095 15.5207 32.098 15.6248 32.0822C15.5676 32.1265 15.5493 32.14 15.4765 32.1574L15.3822 32.2979C15.4983 32.3644 15.6899 32.3066 15.8214 32.2765C15.6182 32.37 15.5509 32.3627 15.3841 32.5245L15.417 32.5733C15.574 32.58 15.6234 32.5583 15.7691 32.5128C15.6573 32.6056 15.5908 32.62 15.4567 32.6589C15.3774 32.7478 15.3947 32.7605 15.3679 32.8874L15.3662 31.6305C15.4967 31.6114 15.6227 31.5817 15.7515 31.5536C15.7356 31.3937 15.7149 31.0903 15.7709 30.9467C15.876 30.9172 15.8873 30.908 15.9702 30.8355C16.0271 30.6714 15.9237 30.6775 15.9861 30.4953L16.0548 30.4469C16.0108 29.8468 16.039 28.8509 16.0341 28.2065Z" fill="#4C3C03"/>
<path d="M15.7516 31.5536C15.7356 31.3937 15.7149 31.0903 15.771 30.9467L15.7984 31.0309L15.8717 31.0159L15.8078 31.0136C16.3448 30.9725 17.3154 30.9864 17.8764 30.9945C17.8688 31.1771 17.8586 31.3656 17.8561 31.5478C17.1717 31.5418 16.4873 31.5417 15.803 31.5475L15.7932 31.2875C15.785 31.3635 15.7778 31.4861 15.7516 31.5536Z" fill="#A07E00"/>
<path d="M16.034 28.2065L16.0898 28.2011C16.0911 28.9164 16.1006 29.6508 16.0891 30.3644C16.2333 30.4453 17.2618 30.3738 17.5733 30.4199L17.6804 30.4991C17.3305 30.4973 16.9874 30.4927 16.6378 30.511C16.9197 30.5478 17.2999 30.5016 17.6056 30.5565C17.415 30.6305 16.1204 30.6784 15.9988 30.5639L16.1175 30.5106L16.0616 30.5159L16.0245 30.488L15.9861 30.4953L16.0548 30.4469C16.0108 29.8468 16.039 28.8509 16.034 28.2065Z" fill="#A07E00"/>
<path d="M16.052 30.6925C16.3833 30.7056 17.3111 30.6421 17.5568 30.7319C17.636 30.8302 17.6139 30.7833 17.634 30.9159C17.3862 30.9163 16.1729 30.9319 16.0023 30.8972L16.052 30.6925Z" fill="#A07E00"/>
<path d="M15.8214 32.2765C16.3349 32.1748 16.3572 32.3696 16.7831 32.3836C17.0493 32.3923 18.1212 32.0298 18.2446 32.5258L18.2117 32.5943C18.1141 32.5984 17.9902 32.5483 17.899 32.5036C17.5442 32.3298 17.1933 32.5021 16.8179 32.6151C16.5549 32.5299 16.0149 32.3058 15.7691 32.5128C15.6233 32.5583 15.574 32.58 15.417 32.5733L15.384 32.5245C15.5509 32.3627 15.6181 32.37 15.8214 32.2765Z" fill="#B3B2B2"/>
<path d="M15.7164 31.8437C16.3213 31.6133 16.3093 31.9088 16.7718 31.9075C17.1248 31.9064 17.9364 31.5737 18.2353 31.9724L18.2381 32.0668L18.1923 32.1051C17.981 32.0806 17.8449 31.9482 17.6007 31.9437C17.3394 31.939 17.0424 32.1057 16.8041 32.0867C16.2377 32.0416 16.1872 31.7747 15.6248 32.0822C15.5207 32.098 15.5026 32.1095 15.4149 32.0628L15.4055 32.0061C15.4873 31.8879 15.5797 31.8801 15.7164 31.8437Z" fill="#B3B2B2"/>
<path d="M30.3434 20.0668C30.3995 19.9974 30.4077 19.7043 30.4676 19.5554C30.5661 19.5818 30.6496 19.8153 30.7397 19.8787C30.7732 19.9023 30.9054 19.7696 30.9549 19.8437C31.1006 20.0621 30.9986 19.921 31.2176 19.929L31.199 20.0116C31.0119 20.0665 30.8791 19.877 30.6665 19.958C30.6587 19.9936 30.6468 20.035 30.6458 20.0709L31.0708 20.0907L31.1134 20.1052C31.1968 20.126 31.3461 20.1688 31.4259 20.1728L31.5315 20.1168L31.522 20.1353C31.5071 20.1649 31.4949 20.1926 31.4814 20.2228L31.5719 20.2907C31.4001 20.6881 31.2732 20.6087 31.123 21.0723C31.2528 21.0728 31.4395 21.0601 31.551 21.1078C31.5887 21.2466 31.5901 21.5464 31.5657 21.6854C31.4342 21.7161 31.4207 21.727 31.32 21.8189C31.2723 21.9612 31.3107 22.0342 31.3832 22.1646C31.3403 22.2493 31.37 22.2175 31.2966 22.2681L31.2782 22.6216C31.2728 22.8806 31.2297 24.2068 31.3105 24.3639C31.0886 24.3627 30.6312 24.1848 30.3919 24.1609C30.0538 24.1273 29.7295 24.1633 29.3868 24.1155C29.5139 24.1112 29.5713 24.1069 29.696 24.0835C29.7922 23.9786 29.7484 22.8609 29.7467 22.642L29.7173 22.2581C29.631 22.1887 29.6558 22.2318 29.6341 22.1284C29.6972 22.0644 29.7289 22.0417 29.7624 21.9565L29.7078 21.835C29.382 21.606 29.4522 21.4447 29.4656 21.0771L29.8868 21.0734L29.7799 20.7201C29.7466 20.6944 29.7138 20.668 29.6815 20.641C29.5492 20.5293 29.4861 20.4464 29.469 20.262L29.5787 20.1751L29.5499 20.1498L29.4695 20.1842C29.4789 20.1424 29.4787 20.1566 29.5137 20.117L29.598 20.176C29.7285 20.173 29.7877 20.1375 29.9075 20.0868C29.8132 20.0309 29.7653 20.0777 29.6966 19.9621C29.7263 20.0109 29.7367 20.0069 29.7916 20.0405L29.8546 19.943L29.8462 19.9331L29.9432 19.9751C29.9391 20.0446 29.9391 20.0119 29.9766 20.0863L30.3434 20.0668Z" fill="#4C3C03"/>
<path d="M30.8375 22.3487L30.935 22.3632L30.9812 22.361C31.0457 22.3591 31.0744 22.3533 31.1375 22.367L31.2184 22.4016C31.2486 22.5025 31.2464 22.5128 31.245 22.6199L31.2782 22.6216C31.2728 22.8806 31.2297 24.2068 31.3105 24.3639C31.0886 24.3627 30.6312 24.1848 30.3919 24.1609C30.0538 24.1273 29.7295 24.1633 29.3868 24.1155C29.5139 24.1112 29.5713 24.1069 29.696 24.0835C29.7922 23.9786 29.7484 22.8609 29.7467 22.642L29.7807 22.6525C29.7752 22.5476 29.7732 22.5353 29.7954 22.4341C29.9884 22.2833 30.4894 22.3899 30.7991 22.3534L30.8375 22.3487Z" fill="#B3B2B2"/>
<path d="M30.8375 22.3487L30.935 22.3632L30.9812 22.361C31.0457 22.3591 31.0744 22.3533 31.1375 22.367L31.2184 22.4016C31.2486 22.5025 31.2464 22.5128 31.245 22.6199L31.2782 22.6216C31.2728 22.8806 31.2297 24.2068 31.3105 24.3639C31.0886 24.3627 30.6312 24.1848 30.3919 24.1609C30.0538 24.1273 29.7295 24.1633 29.3868 24.1155C29.5139 24.1112 29.5713 24.1069 29.696 24.0835C29.7922 23.9786 29.7484 22.8609 29.7467 22.642L29.7807 22.6525C29.7915 23.1167 29.7834 23.6257 29.7845 24.0931C30.1401 24.102 30.4732 24.1219 30.8194 24.2114C30.8189 23.7528 30.7914 22.7612 30.8375 22.3487Z" fill="#535456"/>
<path d="M31.1375 22.367L31.2184 22.4016C31.2486 22.5025 31.2464 22.5128 31.245 22.6199C31.2205 22.8859 31.2684 24.1449 31.2127 24.2792C31.1246 24.2922 31.1605 24.298 31.0712 24.2308C31.0098 23.9084 31.0671 23.065 31.0517 22.6863C31.0457 22.541 31.0458 22.4569 31.1375 22.367Z" fill="#B3B2B2"/>
<path d="M30.9349 22.3632L30.9812 22.361C31.0034 22.6344 30.9981 23.9932 30.9613 24.223C30.8534 24.0411 30.8601 22.5696 30.9349 22.3632Z" fill="#B3B2B2"/>
<path d="M31.551 21.1078C31.5887 21.2466 31.5901 21.5464 31.5657 21.6854L31.5331 21.4678L31.5119 21.5818C31.4955 21.5976 31.4791 21.6135 31.4627 21.6293C30.9034 21.6488 30.0328 21.637 29.5001 21.646L29.4965 21.1376C30.124 21.1435 30.8929 21.1076 31.508 21.1487L31.551 21.1078Z" fill="#A07E00"/>
<path d="M29.7173 22.2581C29.9968 22.2622 30.6027 22.2857 30.853 22.2494L30.8586 22.2131C30.622 22.1631 29.868 22.2565 29.7291 22.1521C29.9722 22.0591 31.0031 22.1004 31.2977 22.1276L31.3185 22.1553C31.1808 22.191 31.0626 22.2185 30.9231 22.2458C31.0528 22.2567 31.1661 22.2661 31.2966 22.2681L31.2782 22.6216L31.245 22.6199C31.2465 22.5128 31.2486 22.5025 31.2184 22.4016L31.1375 22.367C31.0744 22.3533 31.0457 22.3591 30.9812 22.361L30.935 22.3632L30.8375 22.3487L30.7991 22.3534C30.4894 22.3898 29.9884 22.2833 29.7954 22.4341C29.7732 22.5353 29.7752 22.5476 29.7808 22.6524L29.7467 22.642L29.7173 22.2581Z" fill="#A07E00"/>
<path d="M31.0708 20.0907C30.9985 20.2261 30.9781 20.2473 30.8668 20.3472L30.8381 20.3728C30.8927 20.4204 30.8937 20.421 30.9347 20.4809L30.8812 20.5377L30.8256 20.5184L30.7743 20.4015C30.6913 20.3935 30.7828 20.4572 30.6262 20.5111L30.5562 20.4737L30.5485 20.4162L30.6473 20.3849L30.6644 20.338L30.5897 20.237L30.6458 20.0709L31.0708 20.0907Z" fill="#B60026"/>
<path d="M31.1134 20.1052C31.1967 20.126 31.3461 20.1688 31.4259 20.1728C31.4676 20.3006 31.4799 20.2718 31.4476 20.3769C31.3182 20.4773 31.2072 20.5535 31.0401 20.5376L31 20.4803L31.1473 20.4378L31.0562 20.2868C31.0593 20.1597 31.0419 20.2075 31.1134 20.1052Z" fill="#B60026"/>
<path d="M30.3434 20.0668C30.4107 20.145 30.4102 20.1453 30.4546 20.2393C30.4219 20.2822 30.3881 20.3223 30.3506 20.3609C30.4163 20.3971 30.4309 20.3992 30.4803 20.4573L30.4332 20.5049C30.2893 20.4894 30.024 20.2333 29.9766 20.0863L30.3434 20.0668Z" fill="#B60026"/>
<path d="M29.598 20.176C29.7285 20.173 29.7877 20.1375 29.9075 20.0868C30.0065 20.2827 29.9844 20.3841 29.7998 20.5048C29.7121 20.5148 29.7084 20.5053 29.6296 20.469C29.5389 20.3412 29.5257 20.3286 29.598 20.176Z" fill="#B60026"/>
<path d="M29.8285 21.8664C30.2339 21.8666 30.706 21.8216 31.1111 21.8727C31.2031 21.8843 31.2038 21.9282 31.2538 22.0147C31.0246 22.0317 29.9903 22.0856 29.823 21.9691L29.8285 21.8664Z" fill="#A07E00"/>
<path d="M29.6569 21.7247C29.8872 21.6977 31.1844 21.6783 31.3572 21.7591C30.9513 21.8578 30.1919 21.7745 29.7561 21.7866C29.7561 21.7866 29.6665 21.7307 29.6569 21.7247Z" fill="#A07E00"/>
<path d="M29.7548 30.4172C30.0158 30.3817 30.9931 30.3848 31.2705 30.4153L31.2672 30.4513L31.3728 30.5204C31.3838 30.6042 31.3605 30.659 31.3357 30.737C31.3722 30.8935 31.4085 30.8928 31.5618 30.9498C31.6272 31.1047 31.5753 31.3925 31.5982 31.578C31.7762 31.6078 31.8246 31.5848 31.9409 31.6865C31.9552 31.7948 31.9556 31.8293 31.9494 31.9386L31.9423 32.1098C31.949 32.2212 31.955 32.2999 31.9487 32.4127L31.9437 32.6077C31.9545 32.7176 31.9711 32.7665 31.9263 32.8616C31.7449 32.9165 31.4215 32.7101 31.2871 32.7164C30.5981 32.7485 30.6698 33.0349 29.9857 32.7298C29.708 32.7093 29.22 32.8964 29.0722 32.7924C29.0405 32.683 29.0595 31.8036 29.0579 31.6297C29.6874 31.548 29.2604 31.3897 29.4983 30.92C29.5644 30.89 29.5671 30.8894 29.624 30.8445C29.692 30.6811 29.645 30.6699 29.651 30.5067L29.6519 30.4863L29.7548 30.4172Z" fill="#4C3C03"/>
<path d="M30.2071 32.0496C30.7818 32.187 30.7568 31.943 31.2938 31.94C31.4797 31.939 31.722 32.1058 31.9423 32.1098C31.9491 32.2212 31.955 32.2999 31.9488 32.4127C31.6889 32.3861 31.4261 32.2119 31.1787 32.2361C30.8575 32.2675 30.4763 32.549 30.1634 32.3044C29.7086 31.9683 29.3554 32.4531 29.0981 32.3043L29.1122 32.2115C29.3325 31.9551 29.9055 31.9771 30.2071 32.0496Z" fill="#0043AD"/>
<path d="M30.2189 32.5464C30.7828 32.6754 30.766 32.4295 31.2974 32.4336C31.4715 32.435 31.745 32.5846 31.9438 32.6077C31.9545 32.7176 31.9711 32.7665 31.9264 32.8616C31.745 32.9165 31.4216 32.7101 31.2871 32.7163C30.5981 32.7485 30.6698 33.0348 29.9857 32.7298C29.7704 32.5642 29.4013 32.8305 29.1248 32.8261L29.1044 32.7711C29.2226 32.3918 29.9242 32.5051 30.2189 32.5464Z" fill="#0043AD"/>
<path d="M29.9975 31.7533C29.7612 31.5637 29.3874 31.8695 29.1284 31.8538L29.0929 31.798L29.126 31.704C29.3557 31.4864 30.2892 31.6422 30.6107 31.6204C30.9467 31.5977 31.2617 31.5815 31.5982 31.578C31.7762 31.6078 31.8246 31.5848 31.9409 31.6865C31.9553 31.7948 31.9556 31.8293 31.9494 31.9386C31.7685 31.9028 31.4362 31.7552 31.2885 31.7589C30.6227 31.7755 30.6514 32.0964 29.9975 31.7533Z" fill="#0043AD"/>
<path d="M30.1633 32.3044C30.4763 32.549 30.8574 32.2675 31.1787 32.2361C31.4261 32.2119 31.6889 32.3861 31.9487 32.4127L31.9438 32.6077C31.745 32.5847 31.4715 32.435 31.2973 32.4336C30.7659 32.4295 30.7828 32.6754 30.2189 32.5465C29.8052 32.2021 29.3031 32.7045 29.1122 32.5382L29.1221 32.449C29.3228 32.224 29.8905 32.2316 30.1633 32.3044Z" fill="#B3B2B2"/>
<path d="M29.9975 31.7533C30.6514 32.0964 30.6227 31.7755 31.2886 31.7589C31.4362 31.7552 31.7685 31.9029 31.9494 31.9386L31.9423 32.1098C31.722 32.1059 31.4797 31.939 31.2938 31.94C30.7568 31.943 30.7818 32.1871 30.2071 32.0496C29.8616 31.8435 29.5705 32.0038 29.1641 32.0447L29.14 32.017C29.4296 31.7395 29.6236 31.7592 29.9975 31.7533Z" fill="#B3B2B2"/>
<path d="M29.7549 30.4172C30.0159 30.3817 30.9932 30.3848 31.2706 30.4153L31.2673 30.4513L31.3729 30.5204C31.1695 30.4833 30.5911 30.4978 30.3664 30.5044C30.5877 30.5156 31.1063 30.5242 31.2947 30.5727C31.0904 30.634 30.0307 30.6489 29.7706 30.6077C29.6895 30.5948 29.6883 30.5548 29.652 30.4863L29.7549 30.4172Z" fill="#A07E00"/>
<path d="M29.4889 30.9952L31.5369 30.9948C31.5168 31.1619 31.5233 31.3702 31.524 31.5418L29.4944 31.5462C29.4967 31.3667 29.4911 31.1757 29.4889 30.9952Z" fill="#A07E00"/>
<path d="M29.7672 30.6915C30.108 30.7101 30.9989 30.6421 31.2509 30.7329C31.3126 30.8091 31.3113 30.8138 31.3199 30.9154C30.8695 30.9179 30.156 30.9421 29.73 30.9035L29.7014 30.8637L29.7672 30.6915Z" fill="#A07E00"/>
<path d="M16.6797 19.8039L16.724 19.7758C16.716 19.6419 16.72 19.493 16.8398 19.4042C16.9266 19.4842 16.9526 19.6575 16.9688 19.7766L16.989 19.8013C17.1273 19.8302 17.2582 19.8548 17.3935 19.8968L17.5077 19.8646C17.5576 19.8955 17.5888 19.9095 17.6266 19.9543C17.8031 20.1067 17.8383 20.1384 17.8832 20.3806C17.8571 20.4961 17.5773 20.6276 17.4457 21.0669L17.8771 21.0714L17.8751 21.5824L17.8665 21.5634C17.3499 22.1382 17.7426 21.9391 17.6739 22.2172C17.5115 22.3265 16.1225 22.3279 15.9558 22.2005C15.9322 22.0824 15.9806 22.1206 16.0735 21.9592L16.0391 21.8645C15.7038 21.6148 15.7604 21.4569 15.7738 21.0732L16.228 21.0696C16.051 20.5414 15.8462 20.6102 15.7744 20.3683C15.7741 20.0985 15.8332 20.0818 16.051 19.9575C16.18 19.8583 16.1344 19.861 16.2567 19.8756L16.6797 19.8039Z" fill="#4C3C03"/>
<path d="M16.051 19.9575C16.1564 20.0251 16.2019 20.0442 16.2569 20.1589C16.2666 20.3281 16.2611 20.5652 16.0532 20.5776L16.0323 20.536L16.0729 20.4674C15.93 20.3887 15.9452 20.4557 15.7744 20.3683C15.7741 20.0985 15.8332 20.0818 16.051 19.9575Z" fill="#B60026"/>
<path d="M17.6266 19.9543C17.8031 20.1066 17.8384 20.1384 17.8832 20.3806C17.7876 20.4198 17.6928 20.4358 17.5919 20.4578L17.6341 20.5345L17.6208 20.5721C17.4901 20.5512 17.5379 20.575 17.4413 20.4808C17.354 20.1843 17.404 20.1081 17.6266 19.9543Z" fill="#B60026"/>
<path d="M16.989 19.8013C17.1273 19.8302 17.2582 19.8548 17.3935 19.8968C17.2476 20.0554 17.1246 20.2175 16.9335 20.3102L16.9071 20.2749C16.9939 20.0356 16.9167 19.9693 16.989 19.8013Z" fill="#B60026"/>
<path d="M16.2567 19.8756L16.6797 19.8039C16.726 19.9007 16.7655 20.3193 16.7875 20.4594C16.6195 20.2636 16.4411 20.0553 16.2567 19.8756Z" fill="#B60026"/>
<path d="M15.8435 21.1447C16.4453 21.1484 17.1339 21.1489 17.7324 21.1371C17.798 21.3487 17.8086 21.4096 17.8294 21.6316C17.3315 21.6491 16.2933 21.592 15.8452 21.6594L15.8435 21.1447Z" fill="#A07E00"/>
<path d="M16.146 21.8649C16.5525 21.881 17.0306 21.8302 17.4429 21.8748C17.5126 21.8824 17.5055 21.9025 17.5541 21.9752C17.4028 22.0567 16.3256 22.0625 16.1611 21.9803L16.146 21.8649Z" fill="#A07E00"/>
<path d="M16.0248 22.1114C16.2537 22.1062 17.5018 22.0637 17.6209 22.151L17.5873 22.2191C17.321 22.1491 16.2135 22.2468 16.0167 22.1626L16.0248 22.1114Z" fill="#A07E00"/>
<path d="M29.573 27.3162C29.7268 27.3993 30.0811 27.5906 30.1914 27.7042C30.3448 27.8045 30.6074 27.9309 30.7819 27.9793C30.9715 27.9982 31.3038 28.1604 31.4694 28.2631L31.3219 28.2283L31.2784 28.2663C31.2351 28.9468 31.2895 29.7257 31.2706 30.4153C30.9932 30.3848 30.0159 30.3817 29.7549 30.4172C29.718 29.5539 29.7837 28.6205 29.7526 27.7508C29.7431 27.4856 29.7446 27.4728 29.573 27.3162Z" fill="#B3B2B2"/>
<path d="M29.573 27.3162C29.7268 27.3993 30.0811 27.5906 30.1914 27.7042C30.0233 27.6276 29.9418 27.5857 29.7854 27.4876C29.7843 28.4294 29.7965 29.4171 29.7808 30.3556L30.8162 30.3538C30.8187 30.0313 30.8607 28.1332 30.7819 27.9793C30.9715 27.9982 31.3038 28.1604 31.4694 28.2631L31.3219 28.2283L31.2784 28.2663C31.2351 28.9468 31.2895 29.7257 31.2706 30.4153C30.9932 30.3848 30.0159 30.3817 29.7549 30.4172C29.718 29.5539 29.7837 28.6205 29.7526 27.7508C29.7431 27.4856 29.7446 27.4728 29.573 27.3162Z" fill="#535456"/>
<path d="M31.0561 28.1084L31.184 28.1745C31.2869 28.364 31.2332 30.0759 31.2303 30.378L31.0979 30.3437C31.0083 30.2332 31.054 28.3962 31.0561 28.1084Z" fill="#B3B2B2"/>
<path d="M30.8986 28.0504L30.9497 28.0799C31.0316 28.2135 30.9901 30.0717 30.982 30.3728L30.9365 30.3526C30.8533 30.2191 30.8937 28.3703 30.8986 28.0504Z" fill="#B3B2B2"/>
<path d="M16.0514 22.3214C16.4508 22.3346 17.1773 22.3406 17.5757 22.3069L17.5792 24.1139C17.4411 24.1578 17.2363 24.167 17.0969 24.138C16.9395 24.132 16.7037 24.1668 16.5547 24.2135C16.4792 24.2679 16.0971 24.3701 16.0173 24.3653C16.088 24.2208 16.0531 22.5835 16.0514 22.3214Z" fill="#B3B2B2"/>
<path d="M16.0514 22.3214C16.4508 22.3346 17.1773 22.3406 17.5757 22.3069L17.5792 24.1139C17.4411 24.1578 17.2363 24.167 17.0969 24.138C17.1026 23.5504 17.1021 22.9626 17.0956 22.375L16.0953 22.3747C16.1021 23.0203 16.1029 23.6661 16.0979 24.3118C16.2129 24.2812 16.4486 24.2086 16.5547 24.2135C16.4792 24.2679 16.0971 24.3701 16.0173 24.3653C16.088 24.2208 16.0531 22.5835 16.0514 22.3214Z" fill="#535456"/>
<path d="M17.3456 22.3498L17.4885 22.3833C17.5898 22.5141 17.536 23.8724 17.5295 24.122C17.4372 24.1066 17.4371 24.106 17.3517 24.0663C17.3097 23.7296 17.3384 22.7184 17.3456 22.3498Z" fill="#B3B2B2"/>
<path d="M17.1934 22.3611L17.2291 22.3891C17.2984 22.519 17.272 23.9069 17.248 24.1314C17.2294 24.1144 17.1972 24.088 17.195 24.0734C17.1491 23.7595 17.1521 22.6031 17.1934 22.3611Z" fill="#B3B2B2"/>
<path d="M23.2689 15.2932C23.0448 14.924 23.5853 14.6972 23.4932 14.4334C23.3379 14.3922 23.3813 14.4264 23.3014 14.3189C23.2949 14.2733 23.2732 14.1806 23.3072 14.1579C23.4303 14.0759 23.5668 13.8865 23.6954 13.865L23.7797 13.9093C23.8127 14.1012 23.7815 14.1135 23.9899 14.1186C24.0399 14.1959 24.0327 14.2155 24.0306 14.3069C23.8781 14.5206 23.7624 14.2862 23.8062 14.6536C23.9049 14.7867 24.2629 15.0934 24.0303 15.2887L23.8416 15.4859C23.6937 15.502 23.5749 15.4922 23.4271 15.4846L23.2689 15.2932Z" fill="#A07E00"/>
<path d="M23.2689 15.2932C23.3822 15.2352 23.8986 15.2658 24.0304 15.2887L23.8416 15.4859C23.6938 15.502 23.575 15.4922 23.4271 15.4846L23.2689 15.2932Z" fill="#0043AD"/>
</g>
</g>
<rect x="1" y="1" width="46" height="46" rx="23" stroke="#FFAE00" stroke-width="2"/>
<defs>
<clipPath id="clip0_8_86">
<rect width="48" height="48" rx="24" fill="white"/>
</clipPath>
<clipPath id="clip1_8_86">
<rect width="71" height="48" fill="white" transform="translate(0 -0.5)"/>
</clipPath>
</defs>
</svg>
