<svg width="157" height="83" viewBox="0 0 157 83" fill="none" xmlns="http://www.w3.org/2000/svg">
<g clip-path="url(#clip0_8_607)">
<path d="M152.469 76.0254C154.518 73.9911 156.163 71.5499 156.654 68.0625C159.857 45.656 140.55 23.4239 122.541 13.4267C100.492 1.16267 77.2879 -3.31282 52.4392 2.55763C37.2875 6.13221 26.5804 14.8798 16.8833 26.8241C9.03331 36.4435 0.144336 49.2597 3.42025e-05 62.3083C-0.0288261 66.377 1.01014 74.3689 3.72301 77.3332C8.91787 83.0002 16.5081 83.0002 81.0686 83.0002C135.211 83.0002 145.745 82.6515 152.469 76.0254ZM6.4936 51.9915C12.0925 36.0076 25.5703 18.5996 40.7796 10.9564C54.4883 4.06883 73.5649 2.26701 88.63 4.70819C110.015 8.16652 133.594 21.0699 145.023 39.989C149.092 46.7313 152.123 55.0429 152.556 62.9767C153.306 75.9964 139.915 77.3041 129.843 78.0016C113.277 79.135 96.7397 78.9897 80.1451 78.7572C64.7914 78.6119 49.4666 78.6119 34.1129 78.3213C26.5804 78.176 10.9092 79.7162 5.94525 72.8868C2.07798 67.5394 4.61768 57.3388 6.46474 51.9915H6.4936Z" fill="#FFAE00"/>
<path d="M26.7823 72.9156C29.3798 72.7994 29.3798 68.7308 26.7823 68.847C22.2801 69.0505 13.8818 69.777 14.661 63.1219C15.1805 58.5883 18.4129 53.9965 21.4432 50.7997C23.2325 48.9107 20.3754 46.0046 18.586 47.9226C14.5167 52.2528 8.83125 60.6226 10.2454 67.0743C11.6307 73.4388 22.0781 73.1481 26.7823 72.9447V72.9156Z" fill="#FFAE00"/>
<path d="M36.1908 72.9738C38.7882 72.9738 38.7882 68.9052 36.1908 68.9052C33.5934 68.9052 33.5934 72.9738 36.1908 72.9738Z" fill="#FFAE00"/>
<path d="M44.9643 20.5757C46.1765 20.5757 46.8402 19.6166 46.9846 18.5413C47.0711 17.7857 47.1577 17.0592 47.2443 16.3036C47.3886 15.1993 46.2342 14.2693 45.2241 14.2693C44.0119 14.2693 43.3482 15.2283 43.2039 16.3036C43.1173 17.0592 43.0307 17.7857 42.9441 18.5413C42.7998 19.6457 43.9542 20.5757 44.9643 20.5757Z" fill="#FFAE00"/>
<path d="M66.9847 16.4779C67.5908 15.9548 68.2834 15.6061 69.005 15.2574C71.3715 14.153 69.3224 10.6366 66.9559 11.7409C65.9169 12.2349 65.0222 12.8452 64.1276 13.6008C62.1073 15.2574 64.9934 18.1345 66.9847 16.4779Z" fill="#FFAE00"/>
<path d="M88.6588 15.7223C90.9965 16.8267 93.0456 13.3393 90.7079 12.2059C89.6112 11.6828 88.5722 11.0725 87.5621 10.3459C85.4264 8.83473 83.4062 12.3512 85.513 13.8624C86.5231 14.5599 87.5621 15.1702 88.6588 15.7223Z" fill="#FFAE00"/>
<path d="M103.176 20.779C103.666 20.285 104.157 20.0525 104.821 19.9072C107.36 19.3259 106.292 15.4026 103.753 15.9838C102.425 16.3035 101.271 16.9429 100.318 17.9019C98.4713 19.7328 101.328 22.6099 103.176 20.779Z" fill="#FFAE00"/>
<path d="M77.7208 32.2003C79.3658 34.2346 82.1941 31.3284 80.5779 29.3232C80.2027 28.8582 79.8276 28.4513 79.3947 28.0735C77.461 26.3298 74.6038 29.1779 76.5375 30.9506C76.9704 31.3575 77.3456 31.7643 77.7208 32.2003Z" fill="#FFAE00"/>
<path d="M53.9687 31.619C54.5171 31.0087 55.0654 30.5728 55.7869 30.195C58.0957 28.9744 56.0467 25.458 53.7378 26.6785C52.7277 27.2016 51.8619 27.8991 51.1116 28.7419C49.3799 30.689 52.2082 33.5661 53.9687 31.619Z" fill="#FFAE00"/>
<path d="M96.2779 32.6943C98.5868 33.8858 100.636 30.3693 98.327 29.1778C97.4901 28.7419 96.8552 28.2478 96.3357 27.4341C94.9504 25.2254 91.4583 27.2597 92.8436 29.4975C93.7094 30.8634 94.8349 31.9677 96.2779 32.7233V32.6943Z" fill="#FFAE00"/>
<path d="M33.7665 30.7763C33.8531 30.2822 33.9397 29.8754 34.3726 29.5847C36.4794 28.1026 34.488 24.5861 32.3235 26.0683C31.0537 26.9692 30.1301 28.1317 29.8415 29.701C29.3798 32.2584 33.2759 33.3628 33.7377 30.7763H33.7665Z" fill="#FFAE00"/>
<path d="M114.229 28.3642C116.22 30.0207 119.078 27.1727 117.086 25.4871C116.48 24.993 115.874 24.4699 115.297 23.9759C113.305 22.3194 110.448 25.1674 112.44 26.853C113.046 27.347 113.652 27.8701 114.229 28.3642Z" fill="#FFAE00"/>
</g>
<defs>
<clipPath id="clip0_8_607">
<rect width="157" height="83" fill="white"/>
</clipPath>
</defs>
</svg>
