<svg width="112" height="120" viewBox="0 0 112 120" fill="none" xmlns="http://www.w3.org/2000/svg">
<g clip-path="url(#clip0_8_598)">
<path d="M105.563 24.1448C97.1651 17.7769 86.6863 13.194 77.1755 8.73172C69.4797 5.11363 61.9049 2.21915 53.4106 1.23021C48.4737 0.651315 35.6958 -1.4713 31.4123 1.64026C27.9032 4.17292 26.3302 10.7578 24.2973 14.4001C19.6992 22.5769 16.408 30.392 12.5843 38.979C8.93001 47.1317 4.81592 55.0915 1.59725 63.4372C-1.37941 71.1317 0.726032 80.0563 1.08904 88.2091C1.11324 88.9086 1.59725 89.6805 2.32327 89.8252C9.38982 91.3448 7.42958 100.921 2.10546 103.236C1.59725 103.453 1.23424 104.177 1.25844 104.683C1.74245 111.558 0.290423 121.93 10.1884 119.662C18.586 117.757 26.7658 114.163 35.1876 112.089C41.7943 110.448 48.4011 108.687 54.9836 106.975C66.5756 103.936 78.1919 101.162 89.6871 97.6644C96.4391 95.6141 109.241 94.6252 110.814 86.4724C110.911 86.2553 110.959 86.0141 110.959 85.7488C110.814 76.7036 110.693 67.6583 111.226 58.6131C111.274 57.9377 110.669 57.1176 109.991 56.9729C101.545 55.4292 103.651 45.6845 110.645 43.996C111.371 43.8272 111.879 43.1036 111.879 42.38C112.048 33.1418 113.258 29.9337 105.635 24.1689L105.563 24.1448ZM29.6457 10.9508C30.5169 9.31061 31.5333 6.19905 33.0579 5.13775C34.631 4.0282 36.8574 4.26941 39.2533 4.17292C48.2075 3.78699 57.2827 4.48649 65.777 7.50157C75.1184 10.8302 84.0242 15.7991 92.7606 20.4543C97.4797 22.9629 104.014 25.9297 107.184 30.5367C107.063 30.5609 106.918 30.5609 106.797 30.6332C96.6327 35.0714 86.6379 39.8955 76.4253 44.2855C70.9317 36.5428 56.1936 39.2684 52.2731 47.2282C51.7891 48.2171 51.6681 50.2433 51.0389 51.0875C50.1435 52.2935 51.0873 51.0151 49.9499 51.7388C45.9568 54.2955 39.7857 55.2604 35.3328 56.9247C25.3138 60.6875 14.9801 63.8714 4.67072 66.79C5.90494 61.2905 8.3008 56.2493 10.9629 50.5086C17.1582 37.1699 22.8695 23.9518 29.6457 10.9749V10.9508ZM74.0052 46.7699C73.4244 51.3769 69.0683 55.3086 64.688 56.1287C60.3319 56.9488 57.1858 54.8262 54.4028 51.8835C55.6128 43.8272 69.5523 39.2684 74.0294 46.794L74.0052 46.7699ZM102.296 45.1779C99.682 48.5548 99.682 53.4031 102.489 56.6594C103.748 58.1307 105.345 58.3478 106.7 59.5297C107.184 59.9639 107.523 60.2051 107.741 60.3257C107.62 60.4945 107.523 60.9287 107.62 61.8935C108.37 69.588 107.426 77.982 107.547 85.7488C107.015 90.9347 92.6638 93.2262 88.7675 94.4081C83.758 95.9277 78.7485 97.4714 73.6664 98.798C60.5497 102.199 47.4088 105.576 34.268 108.832C30.4685 109.773 26.6206 110.617 22.8695 111.751C19.675 112.716 14.0847 116.093 10.6724 115.948C5.37253 115.731 5.44513 111.606 4.86432 108.06C4.86432 107.964 4.69492 106.83 4.64652 105.986C4.76752 105.865 4.96112 105.672 5.25153 105.311C9.19621 100.511 13.7701 93.2021 6.82456 88.1609C6.19535 87.7026 4.96112 87.4614 4.52551 86.9307C3.53329 85.7247 4.64652 87.1237 4.38031 86.4724C3.38809 83.9639 4.0899 79.7186 3.8963 76.9689C3.7269 74.6533 3.8237 72.4825 4.0657 70.4081C20.2075 65.8734 36.6396 60.7357 52.1521 54.3679C56.242 58.5649 61.2273 61.0011 67.2533 58.9508C72.2144 57.2624 76.3527 52.7036 77.2723 47.5418C87.7753 43.0553 98.0363 38.0865 108.515 33.5036C108.564 33.5036 108.564 33.4553 108.612 33.4312C109.169 35.2644 109.217 37.3146 108.491 39.6302C108.249 40.4503 108.128 40.9327 108.08 41.2704C107.378 41.5599 106.41 41.9217 106.41 41.9217C104.982 43.0553 103.457 43.6342 102.296 45.1297V45.1779Z" fill="#FFAE00"/>
<path d="M41.8669 27.3046C45.2792 26.991 48.5704 25.6885 51.5955 24.1689C53.701 23.1076 56.7018 21.781 57.3068 19.2242C58.6379 13.5076 51.4503 11.8674 47.4814 11.5297C42.2541 11.2885 34.994 12.6393 33.0579 18.3559C31.0977 24.1207 36.688 27.787 41.8669 27.3046ZM38.5756 16.7157C41.1409 14.979 44.5048 14.7619 47.4814 14.9066C50.4097 15.1478 56.363 16.4021 51.8375 20.189C49.6837 21.9981 46.0778 23.0594 43.3915 23.6624C41.6249 24.0483 39.6163 24.3378 38.019 23.3006C35.3086 21.5398 36.2282 18.3076 38.5756 16.7157Z" fill="#FFAE00"/>
<path d="M27.8306 50.6533C30.2023 50.4604 32.5013 49.5438 34.631 48.4583C36.2282 47.6624 38.3094 46.6734 38.7209 44.7438C39.6163 40.5227 34.631 39.2202 31.5817 38.9548C27.8306 38.786 22.7243 39.8473 21.3691 43.9478C19.9896 48.1689 23.9585 50.991 27.8064 50.6533H27.8306ZM25.8946 43.4895C27.516 42.38 29.6941 42.2593 31.5817 42.3558C33.1305 42.4764 36.4702 42.9106 34.2196 44.8644C32.8401 46.0463 30.4201 46.7458 28.6776 47.1317C27.6612 47.3488 26.4028 47.59 25.4832 46.9629C24.0553 45.9739 24.6119 44.3578 25.8704 43.4895H25.8946Z" fill="#FFAE00"/>
<path d="M76.8367 35.2161C80.4909 34.9025 88.7675 32.587 89.7113 28.3659C90.8004 23.4935 84.847 22.0463 81.4106 21.7327C77.0061 21.5156 70.9559 22.7216 69.3587 27.5216C67.7373 32.4181 72.408 35.602 76.8367 35.2161ZM74.2956 26.5568C76.3285 25.1819 79.0389 25.0131 81.4106 25.1096C83.5644 25.3025 88.0415 26.0503 84.7986 28.8241C83.1046 30.2714 80.1521 31.1397 77.9983 31.6221C76.6431 31.9116 75.07 32.1769 73.86 31.3809C71.8756 30.0543 72.5774 27.7387 74.3198 26.5568H74.2956Z" fill="#FFAE00"/>
<path d="M81.943 69.9739C76.4495 70.4804 70.3025 74.388 70.1815 80.394C70.0605 86.4 75.7718 90.7659 81.3864 91.1277C86.7347 91.4895 91.0908 87.2925 91.8168 82.1066C92.3008 78.7297 91.1392 75.9317 89.2273 73.2061C87.4849 70.7458 84.9196 70.1186 81.9672 69.9257L81.943 69.9739ZM81.1202 87.7267C77.4659 87.2925 73.4002 84.4945 73.5454 80.4181C73.6906 76.4382 78.2887 73.7126 81.9188 73.3749C91.0666 73.9056 90.0743 88.8362 81.0959 87.7508L81.1202 87.7267Z" fill="#FFAE00"/>
<path d="M34.3648 71.2282C34.3648 71.2282 34.2438 71.2765 34.1954 71.2765C34.0986 71.2765 34.026 71.2765 33.9292 71.2765C29.0407 72.5066 24.2005 76.5106 25.701 81.986C26.8626 86.2312 31.7027 90.8142 36.4218 89.4152C40.8021 88.1368 43.8998 82.2031 43.198 77.9338C42.4719 73.6403 38.7209 70.9147 34.389 71.2041L34.3648 71.2282ZM36.7122 85.3629C34.0018 87.582 30.6621 84.8322 29.3795 82.2513C27.4676 78.3438 31.1703 75.5458 34.631 74.6051C36.688 74.5569 38.8177 75.4493 39.5679 77.4755C40.6569 80.3941 39.0113 83.4815 36.7122 85.3629Z" fill="#FFAE00"/>
</g>
<defs>
<clipPath id="clip0_8_598">
<rect width="112" height="120" fill="white"/>
</clipPath>
</defs>
</svg>
