<svg width="48" height="48" viewBox="0 0 48 48" fill="none" xmlns="http://www.w3.org/2000/svg">
<circle cx="24" cy="24" r="23.5" fill="#EDE8E5" stroke="#D6C5B4"/>
<g clip-path="url(#clip0_13_6027)">
<path d="M19.0301 12.0843C17.7533 12.1445 16.8814 12.3483 16.1191 12.6478C15.3303 12.9553 14.6616 13.3678 13.9963 14.0355C13.3311 14.7032 12.9214 15.3723 12.6161 16.1624C12.3207 16.9263 12.1205 17.7989 12.0641 19.0765C12.0077 20.354 11.9952 20.7646 12.0015 24.0233C12.0077 27.2821 12.0221 27.6905 12.084 28.9707C12.145 30.2473 12.348 31.1189 12.6475 31.8814C12.9555 32.6703 13.3675 33.3387 14.0355 34.0042C14.7034 34.6697 15.372 35.0785 16.164 35.3842C16.9272 35.6792 17.8001 35.8803 19.0774 35.9362C20.3547 35.9921 20.7658 36.0051 24.0235 35.9989C27.2813 35.9926 27.6915 35.9782 28.9714 35.9175C30.2513 35.8568 31.1184 35.6523 31.8811 35.3542C32.67 35.0456 33.3389 34.6342 34.0039 33.9661C34.669 33.2979 35.0784 32.6283 35.3835 31.8377C35.6791 31.0745 35.88 30.2017 35.9355 28.9253C35.9914 27.6445 36.0046 27.2355 35.9983 23.9773C35.9921 20.719 35.9775 20.3105 35.9167 19.0309C35.856 17.7512 35.6527 16.8821 35.3535 16.1192C35.0451 15.3303 34.6335 14.6624 33.9658 13.9964C33.2981 13.3304 32.628 12.9212 31.8377 12.6169C31.074 12.3214 30.2016 12.1201 28.9243 12.0649C27.6471 12.0097 27.2359 11.9955 23.977 12.0017C20.718 12.008 20.31 12.0219 19.0301 12.0843ZM19.1703 33.7774C18.0003 33.7265 17.365 33.5321 16.9416 33.3694C16.381 33.1534 15.9816 32.8923 15.5597 32.4745C15.1378 32.0566 14.8786 31.6558 14.6597 31.0964C14.4953 30.673 14.2973 30.0385 14.2426 28.8685C14.1831 27.6039 14.1706 27.2242 14.1636 24.0205C14.1567 20.8167 14.1689 20.4375 14.2243 19.1725C14.2743 18.0034 14.4699 17.3674 14.6323 16.9443C14.8483 16.3829 15.1085 15.9843 15.5273 15.5626C15.9461 15.1409 16.3457 14.8813 16.9056 14.6624C17.3285 14.4973 17.9631 14.3009 19.1326 14.2453C20.3981 14.1853 20.7773 14.1733 23.9806 14.1663C27.1839 14.1593 27.564 14.1713 28.83 14.227C29.9991 14.2779 30.6353 14.4716 31.0579 14.635C31.6188 14.851 32.0179 15.1105 32.4396 15.53C32.8613 15.9495 33.1212 16.3477 33.3401 16.9088C33.5055 17.3305 33.7018 17.9648 33.757 19.135C33.8172 20.4005 33.8309 20.78 33.8367 23.983C33.8424 27.1861 33.8311 27.5665 33.7757 28.831C33.7246 30.001 33.5307 30.6365 33.3677 31.0604C33.1517 31.6208 32.8913 32.0204 32.4723 32.4418C32.0532 32.8633 31.6541 33.1229 31.0939 33.3418C30.6715 33.5067 30.0363 33.7035 28.8677 33.7592C27.6022 33.8187 27.223 33.8312 24.0185 33.8381C20.814 33.8451 20.436 33.8321 19.1705 33.7774M28.9529 17.5868C28.9534 17.8716 29.0383 18.1499 29.1969 18.3864C29.3556 18.623 29.5808 18.8072 29.8442 18.9157C30.1075 19.0243 30.3971 19.0523 30.6764 18.9962C30.9556 18.9401 31.212 18.8025 31.413 18.6007C31.614 18.399 31.7507 18.1421 31.8058 17.8627C31.8608 17.5832 31.8317 17.2937 31.7222 17.0308C31.6127 16.7678 31.4277 16.5433 31.1906 16.3855C30.9534 16.2277 30.6748 16.1438 30.39 16.1444C30.0082 16.1451 29.6423 16.2975 29.3728 16.568C29.1033 16.8385 28.9523 17.2049 28.9529 17.5868ZM17.8385 24.0123C17.8452 27.4155 20.6091 30.1681 24.0115 30.1616C27.414 30.1551 30.1685 27.3915 30.162 23.9883C30.1555 20.5851 27.391 17.8318 23.988 17.8385C20.5851 17.8453 17.832 20.6096 17.8385 24.0123ZM19.9999 24.008C19.9984 23.2168 20.2314 22.443 20.6697 21.7843C21.1079 21.1256 21.7316 20.6117 22.4619 20.3075C23.1923 20.0033 23.9964 19.9225 24.7726 20.0753C25.5489 20.2281 26.2624 20.6077 26.8229 21.166C27.3834 21.7243 27.7658 22.4363 27.9217 23.2119C28.0776 23.9875 27.9999 24.792 27.6986 25.5235C27.3973 26.255 26.8859 26.8808 26.2289 27.3216C25.572 27.7624 24.7991 27.9986 24.0079 28.0001C23.4826 28.0012 22.9622 27.8988 22.4765 27.6988C21.9908 27.4988 21.5492 27.205 21.177 26.8343C20.8048 26.4636 20.5093 26.0232 20.3073 25.5382C20.1054 25.0533 20.0009 24.5333 19.9999 24.008Z" fill="black"/>
</g>
<defs>
<clipPath id="clip0_13_6027">
<rect width="24" height="24" fill="white" transform="translate(12 12)"/>
</clipPath>
</defs>
</svg>
