<svg width="560" height="560" viewBox="0 0 560 560" fill="none" xmlns="http://www.w3.org/2000/svg">
<rect width="560" height="560" rx="280" fill="#FFAE00"/>
<path d="M415.165 341.995C359.494 376.209 227.587 383.558 168.592 382.955C169.194 383.959 170.761 386.539 172.207 388.828C189.981 407.049 229.896 423.614 249.779 428.885C269.661 434.155 292.556 432.047 301.292 431.595C301.292 438.071 299.334 454.184 299.334 458.249C299.334 462.315 294.665 463.219 293.912 465.177C293.159 467.134 295.267 473.609 299.334 475.868C303.401 478.127 305.359 476.772 309.276 475.868C313.192 479.332 315.752 482.795 315.752 487.765C320.271 493.186 368.471 506.739 374.647 501.468C380.822 496.198 371.634 486.861 360.337 479.482C351.3 473.579 343.417 473.108 340.606 473.609L334.731 466.532C336.087 466.682 338.888 466.622 339.25 465.177C339.702 463.369 335.786 455.689 332.171 454.184C329.279 452.979 322.129 454.686 318.916 455.689C319.619 450.068 321.024 437.83 321.024 433.854C378.262 397.562 399.349 372.866 415.165 341.995Z" fill="#FFF5E4"/>
<path d="M245.009 77.8532C259.861 68.9904 281.34 72.5102 290.708 87.7804C292.168 90.1627 293.028 92.6799 293.013 95.4944C298.125 99.0582 304.182 109.156 298.71 114.424C303.145 119.723 302.26 124.988 296.963 129.244C293.403 132.153 288.818 133.498 284.25 132.971C280.09 132.492 277.206 130.935 274.493 127.79C272.445 130.029 267.628 136.214 266.143 137.578C268.373 140.902 269.103 143.875 268.301 147.875C268.258 148.086 268.212 148.296 268.163 148.506C270.622 150.886 270.784 151.948 272.792 154.223C275.083 156.818 279.457 156.792 280.591 160.871C285.182 162.544 289.805 164.133 294.455 165.636C298.118 166.845 301.823 167.954 305.31 169.621C308.78 171.281 308.658 172.212 308.178 175.599C308.815 175.431 310.38 175.002 310.96 175.096C317.408 176.14 326.14 180.523 331.712 183.69C350.158 194.174 366.648 213.468 372.398 234.034C374 239.772 373.423 250.824 371.113 256.181C371.988 257.246 372.853 258.2 373.838 259.165C377.235 262.501 380.358 266.381 383.103 270.28C395.305 287.61 406.1 306.192 414.475 325.675C415.925 329.045 419.112 336.63 418.495 340.1C418.005 340.49 418.025 340.457 417.418 340.632C417.07 341.99 417.235 343.255 416.705 344.94C414.902 350.662 411.62 355.96 408.24 360.875C406.89 362.837 404.56 365.467 403.462 367.31C401.59 369.675 399.967 371.54 397.938 373.775C397.028 374.767 396.118 375.79 395.165 376.74L394.128 377.82C393.458 376.777 393.048 375.862 393.188 374.577C393.37 372.875 395.083 372.38 395.815 371.322L395.183 370.797L396.49 369.35C401.432 363.66 407.495 356.302 411.033 349.585C404.72 356.312 396.635 362.295 388.76 367.15C357.383 386.5 322.515 402.022 286.313 409.38C275.568 411.565 260.801 413.557 250.06 411.34L250.533 412.882L250.363 413.06C249.13 412.207 246.202 407.565 245.301 406.052C223.637 410.762 196.666 400.96 177.68 391.022C182.127 395.055 195.571 403.205 200.759 406.27C222.732 419.25 248.319 428.037 273.836 430.037C286.743 431.047 301.348 430.902 314.443 430.59C308.198 433.092 293.938 433.822 287.065 434.21C287.356 436.09 286.283 443.657 286.031 446.022C285.613 449.945 285.507 455 285.022 458.78C287.014 460.127 288.748 461.442 290.238 463.362C290.75 464.142 291.903 465.892 292.103 466.762C292.838 468.745 293.568 471.512 293.368 473.63C293.01 477.382 289.618 476.917 288.238 478.095C288.913 480 289.325 481.182 287.059 482.167C285.088 483.022 282.938 483.76 280.847 484.247C279.128 484.65 276.912 485.317 275.237 484.592C274.845 484.422 274.373 484.322 273.955 484.207C270.867 486.125 268.135 486.29 264.467 487.035C244.962 490.997 223.899 495.84 203.925 493.63C201.118 493.32 198.905 492.037 197.1 489.985L196.899 489.752C196.321 489.865 196.313 489.887 195.734 489.832C195.495 489.4 195.379 489.215 195.519 488.695C196.987 483.23 220.345 469.61 225.67 466.825C229.127 465.02 232.896 463.78 236.274 461.855L236.557 461.69C237.532 462.392 239.012 463.877 239.943 464.762C241.987 464.29 243.242 464.587 245.279 464.917C244.214 459.45 250.506 451.272 256.352 451.675C258.022 451.79 260.473 452.07 262.038 451.88C263.914 448.322 263.096 437.567 264.157 432.972C260.148 432.465 256.162 431.79 252.211 430.947C223.218 424.847 194.196 409.517 171.572 390.245C170.328 389.185 169.971 386.972 168.794 385.92C165.732 383.185 162.73 382.147 160.404 378.59C160.938 375.077 160.649 374.547 160.05 370.902C159.509 367.957 159.214 362.352 159.115 359.312C158.396 337.245 160.901 311.665 166.413 290.267C163.254 284.382 162.698 280.726 161.905 274.119C160.201 260.946 160.86 247.575 163.851 234.633C164.503 231.888 165.178 229.021 166.041 226.337C166.361 225.343 167.376 224.869 167.809 223.983C168.172 223.242 168.112 221.984 168.216 221.16C169.027 214.786 185.152 197.837 190.585 193.654C181.431 185.752 175.871 174.898 179.798 162.826C178.304 162.841 177.929 162.837 176.415 162.537C177.884 161.029 177.939 160.557 178.032 158.453C178.585 158.588 179.151 158.663 179.72 158.676C180.729 158.703 180.899 158.517 181.509 157.928C181.952 156.917 181.778 156.067 181.713 154.941C181.728 153.673 181.723 152.589 181.88 151.321L182.019 150.503L182.705 147.148C183.07 146.458 183.529 144.888 183.908 144.037C186.981 137.138 191.445 134.95 198.809 134.415C199.693 134.112 200.137 134.703 200.967 133.811C200.552 132.164 200.46 131.745 200.49 130.039L200.499 129.651C202.557 124.57 204.701 122.835 209.076 119.475C206.263 118.634 202.941 117.599 201.644 114.791C198.415 107.805 207.823 101.061 214.139 103.83C216.905 105.042 217.544 106.332 218.865 108.642C220.646 106.26 222.57 105.788 225.468 105.678C226.666 103.591 227.903 102.059 229.364 100.167C227.5 99.9379 225.084 99.5692 223.487 98.5559C204.315 86.3902 232.862 63.3144 245.009 77.8532Z" fill="#FFAE00"/>
<path d="M171.078 222.437C174.388 214.057 185.304 202.693 191.685 196.403C192.143 199.837 192.524 207.437 195.442 209.25C201.452 212.987 211.829 214.361 218.728 214.422C215.391 222.636 214.056 235.807 213.524 244.677C210.977 287.12 219.023 348.115 235.581 387.265C237.482 391.745 239.612 396.123 241.962 400.383C240.06 402.303 241.602 403.078 240.743 404.608L239.906 404.865C218.301 403.235 197.268 397.148 178.132 386.983C173.252 384.405 167.427 381.05 163.101 377.638C163.261 376.908 163.233 375.293 163.244 374.48L163.071 374.053C163.084 371.51 163.121 366.85 162.779 364.475C161.675 327.42 167.521 290.488 180.015 255.584C181.461 251.574 183.022 247.606 184.695 243.686C185.454 241.884 188.569 235.723 187.571 234.24C185.919 234.252 184.837 236.394 184.123 237.652C183.649 235.298 181.66 228.283 180.49 226.48L179.977 226.171C177.323 227.315 181.936 238.698 182.57 240.871C175.682 256.232 171.437 269.534 167.371 285.994C165.393 281.143 165.347 276.027 164.948 270.978C163.685 255.003 164.898 242.386 169.365 227.068C170.664 226.922 171.96 226.752 173.252 226.559C172.579 225.304 171.659 223.697 171.078 222.437Z" fill="#FFF5E4"/>
<path d="M209.845 329.367C211.683 330.397 211.565 330.045 211.601 332C210.854 331.322 210.287 330.78 209.595 330.045L209.845 329.367Z" fill="#F0EFEF"/>
<path d="M228.034 114.368C235.309 116.718 242.004 120.583 247.677 125.708C247.679 126.524 247.831 127.409 247.445 127.978C246.829 127.333 246.73 127.097 246.303 126.341L245.115 129.51C244.97 128.416 245.003 127.52 244.307 126.728L243.698 126.517C240.858 127.931 241.675 135.915 242.929 138.43C243.784 140.145 245.034 140.439 246.72 140.904C246.959 140.97 247.199 141.034 247.439 141.098C251.042 138.953 255.561 135.914 259.777 137.135C266.887 139.193 267.187 149.216 260.455 152.16C257.026 153.66 253.449 154.346 249.794 153.091C248.811 152.71 247.587 151.923 246.449 151.434C245.953 152.006 246.138 151.664 246.085 152.586C246.768 154.255 249.137 156.055 250.817 156.621C256.461 158.522 263.374 155.656 266.81 151.264L271.122 157.133C265.68 172.726 253.173 184.021 238.353 191.19C229.264 195.586 213.146 201.606 202.758 199.225C201.619 198.964 198.787 196.513 197.751 195.691C191.96 191.097 186.539 186.216 183.545 179.261C181.265 173.963 180.724 168.716 182.746 163.249C188.834 177.184 199.774 172.285 209.508 165.466C217.886 171.248 231.911 164.844 237.569 157.645C241.141 153.101 239.398 145.041 233.016 146.664L232.834 147.017C234.081 148.62 236.658 149.653 236.038 151.845C234.134 158.578 223.865 159.373 218.771 157.032C220.169 155.244 220.55 154.612 221.487 152.466C217.607 155.62 213.486 158.741 209.421 161.728C200.847 168.028 187.528 175.299 184.989 159.04C184.802 157.849 184.714 156.713 184.762 155.48C184.279 155.795 183.876 156.036 183.374 156.321C182.435 156.078 182.503 155.84 181.713 154.941C181.728 153.673 181.723 152.589 181.88 151.321L182.019 150.503L182.705 147.148C183.07 146.458 183.529 144.888 183.908 144.037C186.981 137.138 191.445 134.95 198.809 134.415C199.693 134.112 200.137 134.703 200.967 133.811C200.552 132.164 200.46 131.745 200.49 130.039L200.499 129.651C201.318 130.517 201.36 130.871 202.361 131.043L203.71 130.425C205.477 125.454 209.647 123.254 213.456 119.946C219.428 119.678 224.058 119.356 228.034 114.368Z" fill="#FFF5E4"/>
<path d="M182.705 147.149C183.07 146.458 183.529 144.888 183.908 144.037C186.981 137.138 191.445 134.951 198.809 134.415C197.354 135.617 196.933 135.887 196.389 137.703C193.596 138.323 192.744 138.583 190.326 140.082L189.153 141.217C186.149 145.17 185.897 146.26 185.012 151.128L184.829 152.481L184.586 152.845L184.82 153.945L184.555 155.129L184.762 155.481C184.279 155.795 183.876 156.037 183.374 156.322C182.435 156.079 182.503 155.84 181.713 154.941C181.728 153.673 181.723 152.589 181.88 151.322L182.019 150.504L182.705 147.149Z" fill="#FFAE00"/>
<path d="M182.019 150.503C183.232 150.841 183.753 152.238 184.586 152.845L184.82 153.945L184.555 155.129L184.762 155.48C184.279 155.795 183.876 156.036 183.374 156.321C182.435 156.078 182.503 155.84 181.713 154.941C181.728 153.673 181.723 152.589 181.88 151.321L182.019 150.503Z" fill="#FFAE00"/>
<path d="M181.713 154.941C181.728 153.673 181.723 152.589 181.88 151.322C182.052 152.934 183.066 153.949 184.214 155.043L184.555 155.129L184.762 155.481C184.279 155.795 183.876 156.037 183.374 156.322C182.435 156.079 182.503 155.84 181.713 154.941Z" fill="#FFAE00"/>
<path d="M182.705 147.148C183.649 147.461 183.609 147.287 184.156 147.93C183.751 149.92 183.559 149.6 185.012 151.128L184.829 152.48L184.586 152.845C183.753 152.238 183.232 150.841 182.019 150.503L182.705 147.148Z" fill="#FFAE00"/>
<path d="M189.153 141.217C188.277 140.205 187.847 140.034 188.134 138.697L188.618 138.502C189.506 138.743 189.765 139.316 190.326 140.082L189.153 141.217Z" fill="#FFAE00"/>
<path d="M203.406 137.845C202.672 135.831 201.374 135.208 201.468 133.965C203.83 134.893 204.01 138.109 207.557 136.006L208.654 136.477C209.887 135.983 209.976 134.294 211.832 134.312C215.116 134.345 214.83 138.021 213.314 140.113C214.644 141.951 217.145 145.365 215.823 147.587C215.168 147.974 215.526 147.902 214.695 147.691C213.088 146.253 212.655 145.213 211.68 143.346C210.075 140.272 206.596 138.778 203.406 137.845Z" fill="#FFAE00"/>
<path d="M198.808 134.415C199.692 134.112 200.137 134.704 200.966 133.811C200.552 132.164 200.46 131.745 200.49 130.039L200.498 129.651C201.318 130.517 201.36 130.871 202.361 131.044L203.709 130.425L202.968 134.666C205.018 135.089 205.628 135.253 207.557 136.006C204.01 138.109 203.83 134.893 201.468 133.965C201.374 135.208 202.672 135.831 203.406 137.845L201.58 137.564C200.367 137.488 198.924 137.524 197.691 137.523L196.389 137.703C196.933 135.887 197.353 135.617 198.808 134.415Z" fill="#FFAE00"/>
<path d="M197.692 137.523C198.909 136.05 200.889 134.945 201.58 137.564C200.367 137.488 198.924 137.524 197.692 137.523Z" fill="#FFAE00"/>
<path d="M184.829 152.48C185.447 153.567 186.206 153.942 187.268 153.079C187.457 152.094 187.123 151.26 186.864 150.264C187.46 150.397 189.589 152.896 189.877 153.485L189.57 153.615C187.318 152.492 187.393 154.028 184.82 153.945L184.586 152.845L184.829 152.48Z" fill="#F0EFEF"/>
<path d="M205.398 176.728C205.961 176.73 206.063 176.755 206.622 176.832C207.372 178.578 203.216 180.228 203.495 183.11C203.952 187.837 213.041 189.374 214.491 190.549L214.457 191.046L213.709 191.548C202.973 192.803 194.391 181.269 205.398 176.728Z" fill="#FFAE00"/>
<path d="M219.023 135.265C219.226 135.25 219.429 135.237 219.633 135.227C225.981 134.964 224.352 142.375 220.785 145.489C215.109 147.152 214.64 138.724 219.023 135.265Z" fill="#FFAE00"/>
<path d="M255.316 140.581C257.124 140.444 260.464 140.496 261.603 142.056C260.998 142.338 258.126 142.291 256.47 142.66C255.772 143.354 255.964 145.37 255.524 146.674C254.844 148.69 251.661 149.593 249.859 148.742L249.75 148.417L250.202 148.052C251.274 147.223 253.593 145.521 253.139 144.045C251.672 143.238 248.422 145.16 246.434 145.081L246.546 144.636C249.412 142.065 251.387 141.052 255.316 140.581Z" fill="#FFAE00"/>
<path d="M221.34 124.428C227.038 124.329 230.446 134.208 228.924 138.957C227.148 136.923 225.313 132.274 223.844 129.869C222.961 128.422 221.801 127.446 220.765 125.997C220.738 125.084 220.763 125.35 221.34 124.428Z" fill="#FFAE00"/>
<path d="M197.207 142.083L197.765 142.405C199.545 142.246 201.347 142.86 201.652 144.813C201.251 146.276 199.956 147.542 198.762 148.417C193.723 149.991 193.678 144.714 197.207 142.083Z" fill="#FFAE00"/>
<path d="M211.813 126.053C215.403 123.343 219.819 125.555 216.723 128.39C215.591 128.219 215.375 128.119 214.302 128.393C211.57 129.592 209.907 130.656 207.355 132.181C208.261 129.956 208.776 129.432 210.254 127.549C210.666 127.074 211.333 126.496 211.813 126.053Z" fill="#FFAE00"/>
<path d="M210.254 127.549C212.11 127.967 212.855 127.34 213.922 127.749L214.302 128.393C211.57 129.592 209.907 130.656 207.355 132.181C208.261 129.956 208.776 129.432 210.254 127.549Z" fill="#FFAE00"/>
<path d="M210.254 127.549C210.666 127.074 211.334 126.496 211.813 126.053C214.346 125.904 214.428 125.845 215.89 128.024L216.724 128.39C215.591 128.219 215.375 128.119 214.302 128.393L213.922 127.748C212.855 127.339 212.11 127.967 210.254 127.549Z" fill="#FFAE00"/>
<path d="M256.101 463.893C262.751 467.5 267.997 471.283 274.341 475.178L274.35 475.41C273.452 475.785 272.626 476.315 271.909 476.973C270.193 478.55 269.781 480.063 269.745 482.26C263.923 483.145 258.13 484.793 252.344 485.928C242.945 487.77 207.925 494.2 200.434 489.245C199.923 488.908 199.719 488.683 199.617 488.088C200.625 486.975 202.896 485.533 204.196 484.573C214.083 477.183 224.786 470.953 236.095 466.008C240.38 470.253 246.999 474.878 252.576 477.26C250.246 474.3 245.939 470.29 243.129 467.558C244.447 468.028 247.857 469.673 248.881 469.71C249.442 469.29 249.595 469.13 250.247 468.855C252.519 470.683 253.172 474.81 257.369 474.395C258.774 473.568 258.332 472.673 258.892 470.795C259.919 471.46 260.573 472.088 261.743 472.315C262.487 472.06 262.205 472.293 262.578 471.548C262.468 469.233 258.173 466.16 256.144 465.578C255.754 466.018 255.934 465.898 255.413 466.145C254.357 465.633 254.289 465.568 253.146 465.458C253.085 466.283 255.392 470.405 255.944 471.503C254.557 470.275 251.851 467.453 251.301 465.723C251.771 465.233 252.515 465.25 253.31 465.103L256.101 463.893Z" fill="#FFF5E4"/>
<path d="M266.676 433.3C272.504 433.992 278.37 434.31 284.238 434.252C282.216 442.15 280.526 454.432 283.147 462.13C281.135 462.277 279.568 462.38 277.559 462.355C280.025 464.13 283.135 465.42 286.132 464.32L286.374 464.23L286.803 464.527L287.568 465.877C288.18 467.27 288.608 468.28 289.098 469.72L289.393 471.135C289.618 472.127 289.9 472.812 289.573 473.745C288.465 474.732 286.992 474.27 285.543 474.7C281.325 474.92 280.991 474.902 277.327 472.88C270.039 468.692 258.175 459.055 250.192 458.955C252.998 455.767 254.792 454.902 259.194 454.497C260.157 454.407 261.764 454.512 262.519 455.195C262.872 456.727 263.006 457.505 264.097 458.747C266.449 461.427 271.289 465.372 274.171 461.162C276.128 458.305 269.503 453.067 267.408 453.885C267.427 454.187 270.852 459.062 271.452 460.28C269.771 459.615 264.736 457.052 264.4 455.255C264.955 455.212 265.458 455.19 266.012 455.17L266.195 454.827C264.857 453.372 266.318 451.8 266.468 449.837C266.881 444.427 267.409 438.692 266.676 433.3Z" fill="#FFF5E4"/>
<path d="M285.52 470.61C286.631 470.962 286.944 471.952 287.441 472.917L286.807 472.76C286.137 472.18 285.891 471.427 285.52 470.61Z" fill="#F0EFEF"/>
<path d="M274.645 476.687C274.901 476.415 275.146 476.137 275.395 475.86L275.923 476.095C277.142 476.69 278.365 477.277 279.59 477.857L281.225 478.247C282.908 478.222 283.828 477.807 285.415 478.46L285.53 478.835C284.011 480.367 276.414 482.21 274.048 482.63C272.328 481.557 274.011 478.112 274.645 476.687Z" fill="#FFF5E4"/>
<path d="M398.638 371.86C398.86 368.457 399.755 366.935 403.463 367.31C401.59 369.675 399.968 371.54 397.938 373.775C397.028 374.767 396.118 375.79 395.165 376.74L394.128 377.82C393.458 376.778 393.048 375.863 393.188 374.578C393.37 372.875 395.083 372.38 395.815 371.323L395.183 370.797L396.49 369.35L398.638 371.86Z" fill="#FFAE00"/>
<path d="M395.165 376.74C394.353 375.108 394.62 373.768 396.383 373.04C397.535 373.25 397.035 373.015 397.938 373.775C397.028 374.768 396.118 375.79 395.165 376.74Z" fill="#FFAE00"/>
<path d="M277.327 472.88C280.991 474.902 281.324 474.92 285.543 474.7C282.127 476.66 281.616 473.575 281.225 478.247L279.59 477.857C278.365 477.277 277.142 476.69 275.923 476.095L275.395 475.86C275.146 476.137 274.901 476.415 274.645 476.687L274.35 475.41L274.341 475.177C274.438 475.16 276.898 473.185 277.327 472.88Z" fill="#FFAE00"/>
<path d="M275.923 476.095C277.736 473.368 280.631 474.51 279.59 477.858C278.365 477.278 277.142 476.69 275.923 476.095Z" fill="#FFAE00"/>
<path d="M162.779 364.475C163.121 366.85 163.084 371.51 163.071 374.053L163.244 374.48C163.233 375.293 163.261 376.908 163.101 377.638L163.042 377.21C162.925 376.3 162.908 375.178 162.874 374.248C162.169 376.453 162.185 377.225 160.404 378.59C160.937 375.078 160.649 374.548 160.05 370.903C160.581 371.528 160.337 371.413 161.012 371.698C161.211 368.388 162.82 368.565 162.779 364.475Z" fill="#FFAE00"/>
<path d="M290.237 463.362C290.75 464.142 291.902 465.892 292.102 466.762C291.082 469.015 291.985 469.477 289.392 471.135L289.097 469.72C288.607 468.28 288.18 467.27 287.567 465.877L286.803 464.527C287.852 464.46 289.72 464.795 290.385 464.53L290.237 463.362Z" fill="#FFAE00"/>
<path d="M287.568 465.877C290.398 466.005 291.323 467.807 289.098 469.72C288.608 468.28 288.18 467.27 287.568 465.877Z" fill="#FFAE00"/>
<path d="M241.962 400.383C242.931 402.045 243.898 403.745 244.886 405.39L239.906 404.865L240.743 404.608C241.602 403.078 240.06 402.303 241.962 400.383Z" fill="#F0EFEF"/>
<path d="M280.355 164.128C287.984 167.253 298.182 170.073 304.91 173.289C304.482 176.937 304.3 179.767 304.665 183.441C308.592 179.149 310.207 177.496 316.15 180.049C327.06 184.739 337.292 190.666 345.94 198.893C355.917 208.388 363.567 220.082 368.767 232.799C369.3 234.102 369.867 235.507 370.455 236.788C369.635 242.54 369.83 247.378 368.745 253.479C351.615 234.832 323.615 213.463 299.122 206.181C297.517 197.359 297.105 189.26 298.64 180.409C298.83 179.308 299.23 177.734 298.575 176.844C296.11 177.182 295.185 183.096 294.935 185.14C294.107 191.897 293.872 199.105 296.77 205.436C296.935 205.797 296.187 206.73 295.967 207.009C296.365 208.449 305.177 211.984 307.242 212.946C312.212 215.277 317.065 217.848 321.785 220.649C341.182 232.225 357.847 246.384 373.345 262.793C376.667 266.31 379.757 271.426 382.47 275.537C390.325 287.46 397.522 299.802 404.035 312.51C408.215 320.727 411.797 329.71 415.897 337.575C414.177 339.952 409.11 347.25 407.235 348.932C400.59 354.897 391.632 360.92 383.972 365.5C351.48 384.93 315.187 400.807 277.718 407.13C267.626 408.832 259.039 409.197 248.918 408.59C248.386 407.952 248.341 407.747 248.036 406.997C246.857 404.64 245.866 402.435 244.802 400.027C221.057 348.722 209.142 270.022 221.11 214.279C237.436 213.505 249.129 207.011 260.919 196.202C271.147 186.824 278.947 178.899 280.355 164.128Z" fill="#FFF5E4"/>
<path d="M244.802 400.028C246.198 400.525 246.48 400.66 247.996 400.765L248.449 400.798C248.54 400.803 248.632 400.808 248.723 400.813C248.86 402.925 249.281 405.3 248.092 406.82C248.074 406.88 248.055 406.94 248.036 406.998C246.857 404.64 245.866 402.435 244.802 400.028Z" fill="#F0EFEF"/>
<path d="M281.638 311.523C285.204 311.275 284.563 312.448 286.779 312.733L287.216 312.128L287.457 312.16C291.73 317.06 291.702 322.55 285.419 325.635C281.437 326.653 277.666 325.638 276.251 321.405C275.612 319.458 275.768 317.338 276.686 315.503C277.83 313.22 279.373 312.308 281.638 311.523Z" fill="#FFAE00"/>
<path d="M280.568 315.81C281.311 316.505 280.87 316.283 281.996 316.368L282.102 316.625C280.677 318.758 280.537 320.298 281.971 322.505L281.803 322.56C278.628 321.775 279.007 318.028 280.568 315.81Z" fill="white"/>
<path d="M276.283 279.813C285.83 279.001 289.145 289.42 280.356 293.697C271.759 296.132 266.923 283.392 276.283 279.813Z" fill="#FFAE00"/>
<path d="M275.37 283.982C276.288 284.022 276.037 283.851 276.675 284.246C276.67 286.583 275.87 286.605 276.195 289.248L276.234 289.543L276.003 289.55C274.305 288.123 274.531 285.825 275.37 283.982Z" fill="white"/>
<path d="M239.61 320.28C247.551 320.285 247.815 333.063 238.965 335.133C233.288 334.81 230.444 328.725 233.021 323.83C234.346 321.313 237.062 320.845 239.61 320.28Z" fill="#FFAE00"/>
<path d="M237.108 324.19C237.135 324.387 236.453 330.445 236.424 330.487C235.105 328.11 234.987 326.047 237.108 324.19Z" fill="white"/>
<path d="M234.829 289.53C235.597 289.5 238.023 289.353 238.598 289.605C245.845 292.798 243.209 299.963 237.575 302.858C227.892 305.275 227.301 292.373 234.829 289.53Z" fill="#FFAE00"/>
<path d="M235.126 293C235.162 294.053 234.043 295.825 234.378 297.24C234.774 298.912 235.363 298.487 236.329 299.547L235.597 299.997C231.776 299.462 232.885 294.843 235.126 293Z" fill="white"/>
<path d="M265.24 250.016C270.304 249.763 274.52 251.051 273.459 257.62C273.113 259.759 271.236 261.742 269.367 262.833C261.948 265.193 257.468 253.937 265.24 250.016Z" fill="#FFAE00"/>
<path d="M266.01 253.629L266.67 253.736C266.621 254.734 265.436 255.608 265.324 257.579L265.115 257.644C264.5 255.819 264.563 254.993 266.01 253.629Z" fill="white"/>
<path d="M227.863 256.799C235.119 257.649 237.936 266.731 229.89 269.466C221.914 269.589 220.201 258.451 227.863 256.799Z" fill="#FFAE00"/>
<path d="M227.49 261.35L227.924 261.661C227.537 262.692 227.256 263.537 226.941 264.592C226.402 263.767 226.421 263.811 226.232 262.842C226.615 261.741 226.399 262.125 227.49 261.35Z" fill="white"/>
<path d="M307.443 246.45C307.968 246.45 308.583 246.429 309.068 246.637C309.603 246.871 310 247.336 310.153 247.9C310.368 248.693 310.223 249.202 309.805 249.817L309.56 249.583C309.685 247.929 309.748 248.007 308.565 246.815C305.448 248.051 306.925 248.229 306.955 250.018L306.583 250.16L306.035 249.769C305.478 248.523 306.468 247.174 307.443 246.45Z" fill="#F0EFEF"/>
<path d="M285.607 268.114C286.475 268.664 286.888 269.255 287.547 270.031L287.228 270.285L286.894 270.568C285.658 269.181 285.595 269.57 285.607 268.114Z" fill="#F0EFEF"/>
<path d="M231.822 97.4866C229.455 97.5384 226.645 97.3534 224.687 96.1426C214.441 89.8049 222.418 78.8484 231.133 76.7459C236.486 75.4541 239.226 76.2794 243.677 78.7586C243.011 79.7329 242.387 80.3746 242.727 81.5704C243.84 81.8886 249.924 78.5854 251.928 77.9641C255.497 76.8691 259.209 76.3149 262.942 76.3196C274.937 76.3854 287.255 83.3666 290.557 95.5239C290.825 96.5081 290.75 97.8551 290.797 98.9139L291.112 99.0424C291.597 98.6111 291.702 98.4691 292.295 98.1856C296.962 101.562 298.125 107.905 297.412 113.274C296.342 112.585 295.2 112.081 294.047 111.53C295.12 114.096 297.6 116.802 298.13 119.475C299.202 124.901 293.242 128.829 288.607 129.608C283.56 130.456 279.896 128.977 275.844 126.206C277.962 124.125 278.344 123.462 279.76 120.801C281.248 121.614 281.979 121.862 283.569 122.427C281.82 120.27 280.033 117.816 278.325 115.595C280.975 114.212 285.065 111.204 285.369 108.02C284.555 107.725 279.99 111.635 278.706 112.243C265.592 118.45 256.857 109.258 253.954 96.4649C254.706 95.8094 255.632 94.7859 256.343 94.0451C253.745 95.0044 251.64 96.0371 248.907 96.8004C246.956 97.2549 246.083 97.3976 244.088 97.5751C243.14 97.5804 241.98 97.4739 241.016 97.4119C238.217 96.4474 236.632 95.5079 234.889 93.0521C234.318 92.2479 233.845 91.5051 233.061 90.9251L232.68 91.0961C231.65 92.9881 232.809 94.4036 233.812 96.0444L231.822 97.4866Z" fill="#FFF5E4"/>
<path d="M273.673 158.592C275.89 159.975 274.59 160.872 277.343 162.775C276.911 167.584 275.492 174.366 273.089 178.558C272.014 180.432 268.028 184.678 266.426 186.41C256.814 196.804 246.603 205.321 232.611 209.168C222.167 212.039 206.204 211.856 196.64 206.358C195.822 204.515 194.899 197.747 194.577 195.36C195.096 196.335 195.566 197.514 196.087 198.462C197.223 200.528 200.768 202.12 203.074 202.541C216.973 205.077 236.579 196.799 248.234 189.657C258.709 183.238 271.018 170.455 273.673 158.592Z" fill="#FFF5E4"/>
<path d="M244.088 97.575C246.083 97.3975 246.956 97.2548 248.907 96.8003C248.942 97.625 248.893 98.5135 249.268 99.2203C250.336 98.7498 251.184 98.3858 252.211 97.8128C252.61 107.66 261.039 118.11 271.501 117.386C273.176 117.27 274.504 116.976 276.126 116.534C276.883 118.036 277.093 118.336 278.153 119.63C276.98 121.293 275.507 122.326 274.128 123.735C270.872 127.06 266.334 131.601 264.288 135.69C261.648 134.031 260.436 133.727 257.314 133.712C252.228 122.105 238.497 113.541 226.458 110.906C225.441 110.683 221.719 110.597 221.289 110.24C222.234 107.626 229.767 108.619 230.929 106.944C230.336 106.139 230.036 106.276 228.916 105.843C231.339 103.032 233.041 100.184 235.294 97.5293C237.462 99.0775 238.212 99.4735 240.764 100.227C241.132 99.4743 241.019 98.2933 241.016 97.4118C241.98 97.4738 243.14 97.5803 244.088 97.575Z" fill="#FFF5E4"/>
<path d="M244.088 97.575C246.083 97.3975 246.956 97.2548 248.907 96.8003C248.942 97.625 248.893 98.5135 249.268 99.2203C248.218 99.6543 247.88 99.7718 246.771 100.003L246.184 100.211L245.26 100.349C243.569 100.549 242.455 100.386 240.764 100.227C241.132 99.4743 241.019 98.2933 241.017 97.4118C241.98 97.4738 243.14 97.5803 244.088 97.575Z" fill="#FFAE00"/>
<path d="M241.017 97.4119C241.98 97.4739 243.14 97.5804 244.088 97.5751L243.999 97.7509C243.074 98.1831 243.39 97.9706 242.781 98.9229C242.744 99.7669 242.642 99.3846 243.118 100.103C243.508 100.125 243.851 100.152 244.242 100.147L245.26 100.349C243.569 100.549 242.455 100.386 240.764 100.227C241.132 99.4744 241.019 98.2934 241.017 97.4119Z" fill="#FFAE00"/>
<path d="M244.242 100.147C243.959 99.0734 243.887 99.5429 244.226 98.6704C245.015 98.3684 244.602 98.4019 245.51 98.7181C246.075 99.2684 246.023 99.4324 246.184 100.21L245.26 100.349L244.242 100.147Z" fill="#FFAE00"/>
<path d="M209.62 106.301C212.459 106.159 214.144 106.554 215.884 109.003L215.808 109.345L214.722 109.465C209.5 110.003 211.718 114.393 214.573 116.596L214.613 116.986C212.294 116.949 209.196 116.805 207.131 115.692C200.596 112.171 204.705 107.936 209.62 106.301Z" fill="white"/>
<path d="M214.042 111.677C215.036 111.831 218.198 112.549 218.886 112.477L219.126 112.755L218.833 113.123C216.522 115.351 214.896 114.757 214.042 111.677Z" fill="white"/>
<path d="M223.482 113.48C224.265 113.488 225.275 113.43 225.765 114.055C225.296 114.716 224.31 114.958 223.504 115.262L220.405 115.247L223.482 113.48Z" fill="white"/>
<path d="M249.085 460.9C249.901 461.232 251.312 461.217 251.849 462.13L251.19 462.277C250.263 462.447 249.482 462.652 248.544 462.57L248.396 462.165L249.085 460.9Z" fill="white"/>
<path d="M321.372 444.713C320.447 444.49 319.405 445.295 317.867 445.345C317.602 448.22 316.752 456.753 319.335 458.493C319.892 457.243 319.385 457.32 320.23 456.473C320.768 456.403 321.203 456.425 321.723 456.578C325.453 457.678 332.308 453.985 334.725 458.018C335.335 459.033 336.997 462.623 337.087 463.698L336.797 464.085L336.47 464.07C336.208 464.058 335.945 464.045 335.682 464.028C328.51 463.568 303.52 478.728 299.255 473.693C297.69 471.843 297.17 468.138 296.565 465.788L296.656 465.709C297.766 464.743 298.706 463.926 299.747 462.865C300.282 460.668 300.762 458.458 301.185 456.235C300.447 455.978 300.255 455.6 299.753 454.98L299.55 454.73C298.642 454.468 298.953 454.535 297.888 454.92L297.74 455.428C297.57 456.778 297.525 457.468 297.04 458.765L296.737 460.593L296.455 461.165L295.168 462.23C293.75 463.33 293.355 463.67 292.867 465.388C292.927 466.013 292.978 466.578 293.07 467.2C294.075 470.79 295.673 473.325 297.828 476.375C294.988 484.083 305.208 484.923 310.255 485.02C311.488 485.045 313.203 484.873 314.353 485.215C314.19 487.19 313.91 487.805 315.215 489.34C316.527 490.885 318.655 492.023 320.47 492.915C332.22 498.698 365.065 503.208 367.823 503.458C370.58 503.707 374.703 504.67 376.415 502.338C381.658 495.198 375.708 487.465 369.747 483.37C361.503 477.705 350.825 470.558 340.427 471.933C339.312 470.36 337.37 467.175 335.073 467.898L334.905 468.343C335.25 470.403 336.468 471.105 338.075 472.61C336.07 474.278 327.5 478.675 329.593 481.333C333.24 482.258 337.763 471.388 347.01 475.258C356.798 479.35 367.992 484.533 374.245 493.61C375.47 495.388 375.584 498.931 373.835 500.275C372.086 501.619 329.055 496.353 317.325 487.06C320.348 482.063 315.633 478.748 312.003 476.023C318.595 473.903 328.392 468.458 335.462 467.443C338.262 467.043 341.607 467.468 340.653 463.18C337.622 449.553 330.808 452.175 320.138 453.91L321.372 444.713Z" fill="#FFAE00"/>
<path d="M297.888 454.92C298.953 454.535 298.642 454.468 299.55 454.73L299.753 454.98C300.255 455.6 300.447 455.978 301.185 456.235C300.762 458.458 300.282 460.668 299.747 462.865C298.562 462.748 298.7 462.953 297.96 462.318C298.115 461.148 299.13 461.11 299.078 460.213C298.243 460.095 297.562 460.37 296.737 460.593L297.04 458.765C297.525 457.468 297.57 456.778 297.74 455.428L297.888 454.92Z" fill="#FFAE00"/>
<path d="M297.74 455.428C298.473 456.175 299.768 457.37 300.21 458.24L299.98 458.62C298.878 458.763 298.133 458.695 297.04 458.765C297.525 457.468 297.57 456.778 297.74 455.428Z" fill="#FFAE00"/>
<path d="M295.168 462.23L296.455 461.165C296.76 462.3 297.315 463.875 296.658 465.033C295.933 466.31 293.775 466.543 293.07 467.2C292.978 466.578 292.927 466.013 292.867 465.388C293.355 463.67 293.75 463.33 295.168 462.23Z" fill="#FFAE00"/>
<path d="M295.168 462.23C295.545 463.162 295.525 463.112 295.402 464.12C294.762 465.287 294.077 465.325 292.867 465.387C293.355 463.67 293.75 463.33 295.168 462.23Z" fill="#FFAE00"/>
<path d="M308.212 477.098C310.015 477.62 314.44 482.498 315.687 484.48C313.177 484.103 310.755 483.46 308.292 482.853C305.745 482.068 299.842 480.93 300.352 477.56C301.51 477.298 303.537 477.583 304.757 477.54C305.84 477.5 307.132 477.27 308.212 477.098Z" fill="#FFF5E4"/>
<path d="M359.478 402.315C360.163 403.485 360.005 405.297 360.365 406.887C352.175 413.107 343.865 419.167 335.438 425.062C331.59 427.737 327.393 430.287 323.563 433.015C323.06 433.37 323.028 434.26 322.925 434.962C322.69 436.495 322.283 438.685 322.17 440.177C321.22 439.337 319.54 438.59 319.16 438L319.275 437.195C319.458 436.585 319.488 436.302 319.583 435.68L319.235 435.265C318.14 435.987 316.308 436.985 315.108 436.097C315.298 433.845 328.068 425.455 330.705 423.535C340.4 416.602 349.993 409.53 359.478 402.315Z" fill="#FFAE00"/>
<path d="M319.235 435.265C319.348 434.57 319.298 434.422 319.87 434.03C321.888 436.155 320.668 434.17 322.925 434.962C322.69 436.495 322.283 438.685 322.17 440.177C321.22 439.337 319.54 438.59 319.16 438L319.275 437.195C319.458 436.585 319.488 436.302 319.583 435.68L319.235 435.265Z" fill="#FFAE00"/>
<path d="M319.275 437.195C321.205 437.722 321.958 437.995 322.17 440.177C321.22 439.337 319.54 438.59 319.16 438L319.275 437.195Z" fill="#FFAE00"/>
<path d="M395.183 370.797L395.815 371.322C395.083 372.38 393.37 372.875 393.188 374.577C393.048 375.862 393.458 376.777 394.128 377.82C385.848 386.155 377.03 393.937 367.733 401.117C366.18 400.255 364.728 400.577 362.895 399.637C374.558 390.37 385 381.74 395.183 370.797Z" fill="#FFAE00"/>
<path d="M297.888 454.92C298.568 451.805 299.092 448.66 299.46 445.493C299.72 443.313 300.18 435.173 300.76 433.898L301.182 433.763C304.667 435.323 302.608 448.58 301.978 451.973L301.517 454.818L301.185 456.235C300.447 455.978 300.255 455.6 299.753 454.98L299.55 454.73C298.642 454.468 298.953 454.535 297.888 454.92Z" fill="#FFAE00"/>
<path d="M301.517 454.817C300.35 453.99 299.175 452.275 299.712 450.815L300.195 450.695C300.805 451.305 301.11 451.747 301.977 451.972L301.517 454.817Z" fill="#FFAE00"/>
<path d="M321.56 458.265L321.703 458.4C321.338 460.448 315.957 463.663 314.117 464.5C311.537 465.673 309.38 466.233 306.552 465.823C305.877 465.148 305.735 464.898 305.763 463.995C305.92 463.79 306.077 463.585 306.235 463.378C307.765 463.033 310.077 462.52 311.525 462.14C315.012 461.25 318.38 459.948 321.56 458.265Z" fill="#FFAE00"/>
<path d="M330.155 470.075C331.868 470.21 332.482 470.45 333.365 471.953C332.99 473.113 331.885 472.108 330.838 473.443L330.92 473.7C331.875 473.51 333.078 473.033 333.843 473.338L334.017 473.755C333.635 474.97 331.703 476.03 330.6 476.74C329.83 476.52 329.26 476.458 328.733 475.878L329.108 474.61C327.59 474.093 326.743 476.295 324.62 474.2C323.738 471.678 328.333 470.388 330.155 470.075Z" fill="#FFAE00"/>
<path d="M359.478 402.315C360.618 401.375 361.723 400.53 362.895 399.637C364.728 400.577 366.18 400.255 367.733 401.117L360.365 406.887C360.005 405.297 360.163 403.485 359.478 402.315Z" fill="#FFAE00"/>
<path d="M174.189 156.023C175.567 157.341 176.125 157.97 178.032 158.453C177.939 160.557 177.884 161.029 176.415 162.537C175.888 162.133 175.113 161.734 174.521 161.401C173.611 161.351 172.864 160.665 172.737 159.763C172.45 159.436 171.927 158.018 171.724 157.526C172.756 156.622 172.913 156.528 174.189 156.023Z" fill="#FFAE00"/>
<path d="M172.737 159.763C172.625 158.966 173.026 158.184 173.738 157.81C174.45 157.435 175.321 157.549 175.914 158.093C176.507 158.637 176.694 159.495 176.382 160.237C176.07 160.979 175.325 161.445 174.521 161.401C173.612 161.351 172.864 160.665 172.737 159.763Z" fill="#FFAE00"/>
<path d="M319.16 438C319.54 438.59 321.22 439.337 322.17 440.177C321.845 441.335 321.473 444.457 321.373 444.712C320.448 444.49 319.405 445.295 317.868 445.345L318.105 443.57L318.82 439.725C318.92 439.013 318.983 438.7 319.16 438Z" fill="#FFAE00"/>
<path d="M318.82 439.725C322.29 441.228 320.387 444.488 318.105 443.57L318.82 439.725Z" fill="#FFAE00"/>
<path d="M171.724 157.526C171.495 156.754 171.182 155.908 171.191 155.093C171.225 151.764 175.839 150.679 177.667 153.272C178.01 153.759 178.099 153.689 177.997 154.239C176.49 153.978 175.757 153.873 174.419 154.607C173.887 155.36 174.033 154.924 174.189 156.023C172.913 156.528 172.756 156.622 171.724 157.526Z" fill="#FFAE00"/>
</svg>
