<svg width="129" height="118" viewBox="0 0 129 118" fill="none" xmlns="http://www.w3.org/2000/svg">
<g clip-path="url(#clip0_8_583)">
<path d="M61.8669 45.117C65.4159 39.8184 63.2636 31.7456 57.8371 28.4937C51.4718 24.6506 44.8089 29.5853 42.2673 35.4523C40.3669 39.4773 40.6417 46.1403 44.992 48.5053C49.5714 50.984 58.8445 49.5968 61.844 45.1397L61.8669 45.117ZM58.6385 44.0482C56.3259 46.2995 50.2812 47.0044 47.3962 46.0038C44.0762 44.8441 43.6869 39.9094 45.0378 37.0668C46.6635 33.3147 50.3041 28.9713 55.0437 30.654C59.7833 32.3368 62.4622 40.3187 58.6385 44.0709V44.0482Z" fill="#FFAE00"/>
<path d="M35.3068 68.5623C30.0177 69.2446 27.3387 72.9285 26.7205 77.8404C26.629 78.0451 26.5832 78.2725 26.6061 78.5681C26.6061 78.841 26.6061 79.0684 26.6976 79.2503C27.4761 84.2987 31.1625 89.3243 36.9096 88.2783C42.2674 87.3004 46.2285 81.2515 45.679 75.9757C45.1295 70.9046 40.1838 67.9256 35.3068 68.5623ZM38.3292 84.4352C33.8643 87.0048 30.2466 82.7524 29.8116 78.5454C30.0864 75.3617 31.2999 72.974 34.4596 71.9961C37.2759 71.132 41.0997 72.0189 42.1529 75.0434C43.2749 78.2498 41.2141 82.7524 38.3063 84.4124L38.3292 84.4352Z" fill="#FFAE00"/>
<path d="M88.0379 65.5151C90.2588 60.1484 87.9234 54.6679 82.3595 52.7123C76.3834 50.6201 71.2775 54.1222 68.7359 59.4207C68.713 59.4889 68.713 59.5571 68.6901 59.6253C68.6672 59.6936 68.5986 59.739 68.5757 59.8073C64.3169 71.7232 83.7104 76.0439 88.0607 65.5379L88.0379 65.5151ZM79.4058 55.3047C83.8249 55.6913 86.7098 59.3525 85.336 63.6504C82.8861 71.2912 68.8275 69.1308 71.6438 60.7851C73.1779 57.6924 75.6049 54.9636 79.4058 55.3047Z" fill="#FFAE00"/>
<path d="M74.3456 38.9771C76.1315 38.7497 79.0394 40.8418 78.5815 42.8202C78.1235 44.8214 81.2146 45.6628 81.6725 43.6616C82.5426 39.7957 78.3296 35.2704 74.3456 35.7934C73.4755 35.9071 72.7428 36.4529 72.7428 37.3853C72.7428 38.1584 73.4984 39.0908 74.3456 38.9771Z" fill="#FFAE00"/>
<path d="M56.509 65.6743C58.3637 66.5612 59.9893 63.8324 58.1347 62.9227C57.3791 62.5589 56.6922 62.2633 56.3488 61.4446C56.0282 60.6487 56.1198 59.8528 56.7609 59.2843C58.295 57.9199 56.0282 55.6686 54.4941 57.033C53.1432 58.2382 52.6624 60.1939 53.1203 61.9222C53.6241 63.7414 54.8376 64.8784 56.4861 65.6743H56.509Z" fill="#FFAE00"/>
<path d="M96.9904 61.3764C98.845 62.2405 100.471 59.5117 98.6161 58.6248C96.0745 57.4423 96.0287 54.7362 97.4941 52.6441C98.6848 50.9613 95.8913 49.3695 94.7236 51.0295C92.3195 54.4633 92.9606 59.4662 96.9904 61.3537V61.3764Z" fill="#FFAE00"/>
<path d="M23.95 91.1436C22.4159 91.5756 19.8973 90.8934 20.401 88.8468C20.8818 86.8456 17.7908 86.0042 17.3099 88.0054C16.2338 92.417 20.836 95.3733 24.7972 94.2135C26.7663 93.645 25.942 90.5751 23.95 91.1436Z" fill="#FFAE00"/>
<path d="M33.3148 53.0989C34.5054 53.3263 35.1236 53.7129 35.2839 54.9863C35.4213 56.0551 35.1236 57.3968 34.0017 57.7834C32.0555 58.4429 32.9026 61.5128 34.8489 60.8534C37.3904 59.9892 38.6726 57.5787 38.4894 54.9863C38.3063 52.3485 36.7493 50.552 34.162 50.0289C32.147 49.6196 31.277 52.6896 33.3148 53.0989Z" fill="#FFAE00"/>
<path d="M57.5852 74.7023C55.3871 75.5209 53.9446 77.5221 54.1049 79.8871C54.2423 81.911 57.4478 81.9337 57.3104 79.8871C57.2418 78.6819 57.7684 77.9996 58.9132 77.6131C60.1496 77.2037 60.9052 77.2947 61.844 78.2498C63.2865 79.7279 65.5533 77.4766 64.1108 75.9985C62.2561 74.0883 60.0809 73.7927 57.5852 74.7023Z" fill="#FFAE00"/>
<path d="M128.519 51.9164C126.733 40.6827 119.2 33.4739 110.82 26.4017C101.753 18.7382 92.846 12.1434 81.7411 7.57262C72.6053 3.82045 58.707 -1.72821 48.5409 0.523092C42.1069 1.933 39.5425 9.16445 41.6032 15.0315C37.5505 28.0845 29.8114 39.6821 24.4536 52.1893C18.2715 66.6295 11.9291 80.9105 5.03716 95.0322C3.50308 98.1932 -1.19074 104.401 0.274646 108.495C0.274646 108.586 0.274646 108.654 0.297543 108.745C2.10638 113.975 7.23524 117.295 12.6847 116.158C23.6751 113.884 35.0776 107.721 45.2896 102.923C45.4956 105.061 44.8545 107.221 47.0068 109.04C50.945 112.383 53.3492 108.426 53.8529 104.811C54.0361 103.514 53.8529 101.809 53.6926 100.081C53.8071 100.081 53.8987 100.081 54.0132 100.035C56.1426 99.2165 58.2949 98.3978 60.4243 97.5564C60.4243 98.6252 60.2869 99.7168 60.3098 100.672C60.3327 103.355 60.4014 106.039 60.7677 108.699C61.363 112.974 63.8359 120.592 69.6058 117.136C76.5664 112.952 73.1319 100.626 73.0632 92.5535C86.87 85.3221 101.157 78.932 114.918 71.6324C123.802 66.9024 130.969 62.7863 128.519 51.9392V51.9164ZM67.2017 6.02627C75.9711 8.39127 84.5116 11.7114 92.3423 16.3277C103.287 22.7632 117.643 33.292 123.276 45.822C121.925 45.4127 120.368 45.4127 118.651 46.0494C115.331 47.2774 113.293 49.9153 112.423 52.9852C106.767 43.3433 96.0744 36.7031 86.9386 30.6541C73.9562 22.081 59.9434 15.6682 44.4424 13.5988C39.2448 0.363908 60.5845 4.25252 67.2017 6.02627ZM6.36517 111.36C8.63194 110.951 10.9674 109.768 12.8449 109.154C19.1644 107.062 25.5984 105.038 31.7576 102.468C34.9631 101.127 41.1681 96.8742 44.0989 99.9897C37.0925 103.401 14.9743 115.772 6.36517 111.36ZM53.4866 96.8287C53.4866 95.4871 53.5782 94.2591 54.059 93.3267C55.616 90.3477 58.4552 92.2124 59.7145 94.4183C57.6309 95.2142 55.5473 96.0328 53.4866 96.8287ZM68.7587 113.361C66.7667 114.066 64.6373 110.928 64.1335 109.768C63.6069 108.517 63.7443 106.493 63.6527 105.129C63.4466 102.15 63.6527 99.1483 63.5153 96.1693C63.2864 91.1891 60.6761 85.3448 54.5398 87.9827C49.2965 90.2568 50.8992 96.4421 50.8077 101.013C50.7619 103.196 50.3268 108.313 48.083 103.537C47.6479 102.628 48.2203 101.218 48.0372 100.217C47.6479 98.2614 46.9381 96.7378 45.0377 95.8736C39.6112 93.3949 30.338 99.6713 25.5297 101.4C20.6756 103.151 10.4408 108.767 5.63247 106.584C2.49563 105.152 3.75494 104.947 5.17454 102.036C6.27358 99.8077 7.34973 97.5564 8.44877 95.3279C14.814 82.2066 20.813 68.9717 26.4914 55.5321C32.0095 42.4564 39.9775 30.313 44.3737 16.7825C58.4094 18.6472 71.2086 24.3778 83.0691 31.9503C93.5787 38.6588 107.408 46.7998 111.759 59.1024C101.409 65.7426 90.6708 71.2913 79.9781 77.3175C71.3231 82.1839 69.6058 87.7326 70.1554 97.3973C70.2698 99.5348 71.6208 112.338 68.7587 113.361ZM101.638 74.5886C92.182 79.2049 82.7486 83.9122 73.4067 88.7786C73.4525 88.6194 73.4754 88.4603 73.5212 88.3011C75.788 80.9559 85.2901 78.409 91.4035 75.1571C99.3029 70.9501 106.882 66.1064 114.369 61.24C115.102 60.9898 115.674 60.3304 115.422 59.3753C114.392 55.4867 115.353 51.2342 119.177 49.324C122.543 47.6412 124.512 49.7333 125.405 52.7806C128.084 64.6283 110.156 70.4499 101.615 74.6114L101.638 74.5886Z" fill="#FFAE00"/>
<path d="M59.417 10.1877C67.4766 11.7113 74.6432 14.6675 81.6725 18.7835C83.4585 19.8296 85.0613 17.078 83.2982 16.0319C75.9942 11.7567 68.6214 8.68679 60.2641 7.1177C58.2492 6.73111 57.3791 9.80107 59.417 10.1877Z" fill="#FFAE00"/>
<path d="M88.2439 22.5585C90.3046 22.5585 90.3046 19.3749 88.2439 19.3749C86.1832 19.3749 86.1832 22.5585 88.2439 22.5585Z" fill="#FFAE00"/>
</g>
<defs>
<clipPath id="clip0_8_583">
<rect width="129" height="118" fill="white"/>
</clipPath>
</defs>
</svg>
