<svg width="48" height="48" viewBox="0 0 48 48" fill="none" xmlns="http://www.w3.org/2000/svg">
<g clip-path="url(#clip0_8_21)">
<rect width="48" height="48" rx="24" fill="#FFF3E4"/>
<path d="M0 0H33.6894H84.2289V3.69078V7.38617V11.0749V14.7651V18.4466V22.1431V25.8297V29.5237V33.2162V36.9104V40.5965V44.2921V48H0V44.2929V40.597V36.9106V33.2152V29.5238V25.8386V0Z" fill="#FEFEFF"/>
<path d="M0 36.9106L84.2289 36.9104V40.5965V44.2921V48H0V44.2929V40.597V36.9106Z" fill="#FEFEFF"/>
<path d="M0 44.2929L84.2289 44.2921V48H0V44.2929Z" fill="#B41942"/>
<path d="M0 36.9106L84.2289 36.9104V40.5965L0 40.597V36.9106Z" fill="#B41942"/>
<path d="M0 0H33.6894L33.6875 3.69394L33.6883 7.38283L33.6872 11.0754L33.6888 14.7647L33.6873 18.4522L33.6885 22.1428L33.6875 25.8312C32.4628 25.8696 31.0879 25.8368 29.8463 25.8368L22.4414 25.8368L0 25.8386V0Z" fill="#0A3262"/>
<path d="M16.8389 8.90445C16.9554 9.16529 17.0665 9.58976 17.1503 9.87848L18.1504 9.87709L17.3461 10.5086L17.6541 11.5362L16.8512 10.902C16.5997 11.0786 16.304 11.3262 16.042 11.5192L16.3517 10.5137C16.0947 10.3111 15.8144 10.0993 15.575 9.8766L16.5396 9.87674C16.6367 9.55169 16.7364 9.22754 16.8389 8.90445Z" fill="#FEFEFF"/>
<path d="M16.8393 19.2403C16.9331 19.425 17.0836 19.982 17.15 20.212L18.1437 20.2136L17.343 20.8447L17.6554 21.8675L16.8483 21.2314C16.5843 21.4445 16.316 21.6511 16.0436 21.8513L16.3507 20.8502C16.0951 20.6353 15.8211 20.4515 15.5817 20.2112L16.54 20.2106C16.6347 19.8854 16.7345 19.5619 16.8393 19.2403Z" fill="#FEFEFF"/>
<path d="M8.4183 6.32794C8.4862 6.43013 8.67929 7.12778 8.72811 7.29573H9.71936L8.92404 7.92392L9.22386 8.9479L8.45272 8.33606C8.3455 8.3406 7.74393 8.84536 7.6178 8.94626L7.93065 7.92499C7.66974 7.72355 7.39941 7.52322 7.15881 7.29507L8.11428 7.29609C8.20843 6.97078 8.3098 6.648 8.4183 6.32794Z" fill="#FEFEFF"/>
<path d="M19.6448 6.31744C19.7186 6.4313 19.9077 7.11764 19.9599 7.29641L20.9448 7.29579L20.1508 7.92651L20.4516 8.9436L19.6803 8.33612C19.5768 8.34079 18.9725 8.85401 18.8453 8.95673L19.1602 7.92139C18.8992 7.72209 18.6261 7.52225 18.3866 7.29481L19.3449 7.29655C19.4427 6.96941 19.5427 6.64307 19.6448 6.31744Z" fill="#FEFEFF"/>
<path d="M5.60761 8.89438C5.69068 9.04853 5.85906 9.67075 5.91865 9.87789L6.9111 9.87905L6.11092 10.5063L6.42131 11.5264L5.62118 10.8996C5.3536 11.1095 5.08393 11.3163 4.81216 11.5199L5.12226 10.5148C4.85477 10.304 4.596 10.1016 4.33887 9.8762L5.31157 9.8774C5.40069 9.55609 5.51046 9.21515 5.60761 8.89438Z" fill="#FEFEFF"/>
<path d="M28.0649 3.72873C28.1615 3.90168 28.3153 4.49015 28.3778 4.71426L29.3764 4.71439L28.5701 5.3432C28.6769 5.67386 28.774 6.01934 28.8721 6.35405L28.0831 5.73766C28.0238 5.76794 27.407 6.25386 27.2759 6.34977L27.5822 5.34298C27.3187 5.13695 27.0575 4.92745 26.7987 4.71461L27.7696 4.71328L28.0649 3.72873Z" fill="#FEFEFF"/>
<path d="M28.0661 19.2247C28.1593 19.4033 28.3135 19.984 28.3778 20.2115L29.3806 20.2131L28.573 20.843C28.6749 21.1799 28.7741 21.5177 28.8706 21.8564L28.0818 21.2371C27.9791 21.2951 27.4243 21.7419 27.2748 21.8539L27.5787 20.8475C27.3357 20.655 27.0271 20.4232 26.8077 20.2111L27.7707 20.2115L28.0661 19.2247Z" fill="#FEFEFF"/>
<path d="M5.60734 19.2263C5.68914 19.3753 5.86006 20.008 5.91847 20.2118L6.91576 20.214L6.11189 20.8451L6.42108 21.8586C6.15947 21.6661 5.87824 21.4354 5.61959 21.2327L4.81255 21.856L5.12154 20.8526C4.86367 20.6344 4.5963 20.4513 4.34863 20.2109L5.3136 20.2114C5.39561 19.8977 5.51254 19.54 5.60734 19.2263Z" fill="#FEFEFF"/>
<path d="M8.41738 11.4944C8.48578 11.5922 8.68241 12.2992 8.73073 12.464L9.72244 12.4658L8.92198 13.0919L9.21994 14.1133L8.45247 13.5046C8.34948 13.5034 7.74215 14.019 7.6154 14.1208L7.92895 13.0974L7.13293 12.4665L8.1151 12.4628C8.20817 12.1372 8.30897 11.8143 8.41738 11.4944Z" fill="#FEFEFF"/>
<path d="M30.8643 11.5166C30.9705 11.622 31.137 12.272 31.1931 12.4644L32.182 12.466L31.3846 13.0856C31.4716 13.4229 31.5826 13.7786 31.6815 14.1142L30.8891 13.4847C30.7149 13.5948 30.2618 13.9748 30.0776 14.1206L30.3873 13.0899L29.5958 12.4664L30.5753 12.463L30.8643 11.5166Z" fill="#FEFEFF"/>
<path d="M8.41843 1.1546C8.48378 1.26317 8.68176 1.96312 8.73099 2.12949L9.72114 2.13167L8.92228 2.75602L9.2216 3.78288L8.45343 3.16898C8.33901 3.18555 7.77746 3.65159 7.62364 3.76726L7.93049 2.76115L7.1355 2.12958L8.11552 2.12739C8.21057 1.801 8.31158 1.47668 8.41843 1.1546Z" fill="#FEFEFF"/>
<path d="M8.40516 21.8484C8.49556 21.9189 8.68117 22.6276 8.72958 22.7949L9.71807 22.7963L8.92086 23.4237C9.02462 23.76 9.12251 24.0985 9.21447 24.4388L8.45217 23.8377C8.35001 23.8332 7.74013 24.358 7.61667 24.4586L7.92899 23.4302L7.13354 22.7967L8.11526 22.794L8.40516 21.8484Z" fill="#FEFEFF"/>
<path d="M19.6435 11.4867C19.7209 11.5948 19.9082 12.286 19.9597 12.4644L20.9494 12.4655L20.1502 13.0898L20.4533 14.1133L19.6818 13.4997C19.5745 13.5085 18.9753 14.0124 18.8453 14.1162L19.1603 13.089L18.3661 12.4667L19.3458 12.4635C19.4423 12.137 19.5416 11.8113 19.6435 11.4867Z" fill="#FEFEFF"/>
<path d="M5.60756 3.72867C5.69233 3.8845 5.85947 4.50592 5.91902 4.71412L6.91546 4.71408L6.11249 5.33977L6.42037 6.35873L5.62467 5.73931C5.55476 5.7703 4.90675 6.28352 4.80299 6.36456C4.91296 6.03555 5.01722 5.68267 5.12152 5.34966C4.8764 5.13962 4.57296 4.91507 4.31592 4.71501L5.31005 4.71297C5.40267 4.38745 5.50894 4.05327 5.60756 3.72867Z" fill="#FEFEFF"/>
<path d="M16.8368 3.73526C16.9349 3.92833 17.0813 4.47504 17.1498 4.71313L18.1364 4.71406L17.343 5.34381L17.6578 6.36588L16.8457 5.72754C16.5829 5.94416 16.315 6.15344 16.0422 6.35524L16.3531 5.34345C16.0892 5.13858 15.8258 4.92392 15.5642 4.71482L16.5387 4.71259L16.8368 3.73526Z" fill="#FEFEFF"/>
<path d="M16.8382 14.0721C16.9326 14.2569 17.0835 14.8164 17.15 15.047L18.1383 15.0485L17.343 15.6808L17.6549 16.6983L16.8534 16.0722C16.6985 16.1471 16.2162 16.558 16.0412 16.6916L16.3522 15.6796L15.5605 15.047L16.5393 15.0473C16.6365 14.7214 16.7361 14.3963 16.8382 14.0721Z" fill="#FEFEFF"/>
<path d="M11.2054 8.93286C11.3113 9.0147 11.4864 9.69912 11.5381 9.8779L12.5255 9.87697C12.2734 10.0854 11.9893 10.2988 11.7305 10.5017L12.0305 11.5304L11.2382 10.8985C11.0664 11.0074 10.6092 11.3919 10.4269 11.5368L10.7298 10.5066C10.4709 10.3042 10.203 10.1026 9.96204 9.87661L10.9213 9.8779L11.2054 8.93286Z" fill="#FEFEFF"/>
<path d="M22.4413 19.2645C22.5395 19.3462 22.7171 20.0358 22.7683 20.2121L23.7557 20.2123C23.4926 20.4233 23.2203 20.631 22.954 20.8382L23.2669 21.8716L22.4589 21.2308L21.6537 21.8699L21.9644 20.8434L21.1654 20.2111L22.1545 20.2112L22.4413 19.2645Z" fill="#FEFEFF"/>
<path d="M14.0331 21.8041C14.1127 21.9721 14.2815 22.5852 14.3437 22.7956L15.3427 22.7964L14.5342 23.4281L14.84 24.4416C14.5784 24.2488 14.293 24.014 14.0339 23.8109C13.8059 24.0109 13.4832 24.2494 13.2403 24.4404C13.3313 24.1114 13.445 23.7599 13.5448 23.4314C13.3105 23.2469 12.9793 23.0006 12.7738 22.7956L13.7357 22.7943C13.8228 22.4725 13.9356 22.125 14.0331 21.8041Z" fill="#FEFEFF"/>
<path d="M19.6301 21.8451C19.7317 21.9196 19.91 22.6253 19.9581 22.7956L20.9505 22.7957L20.1485 23.4237L20.4554 24.4477L19.6802 23.8359C19.583 23.835 18.9693 24.3548 18.8476 24.4527L19.1594 23.4242L18.3625 22.7964L19.3451 22.7946L19.6301 21.8451Z" fill="#FEFEFF"/>
<path d="M8.40536 16.6834C8.49448 16.7533 8.68149 17.4631 8.72981 17.6294L9.72049 17.6286L8.92402 18.2564L9.22342 19.278L8.45204 18.6709C8.34568 18.6702 7.74119 19.1853 7.61148 19.2897L7.92914 18.2606L7.13831 17.6284L8.11422 17.6292L8.40536 16.6834Z" fill="#FEFEFF"/>
<path d="M2.78199 21.8463C2.89547 21.9439 3.05778 22.6026 3.11244 22.7955L4.11477 22.7956L3.29989 23.425L3.61126 24.4357C3.37264 24.2721 3.04286 23.9969 2.80612 23.8117C2.5498 24.0227 2.27296 24.2334 2.01137 24.4392L2.30701 23.4256C2.07554 23.2438 1.745 22.9988 1.54346 22.7955L2.5038 22.7945L2.78199 21.8463Z" fill="#FEFEFF"/>
<path d="M28.0655 8.89377C28.1577 9.0611 28.3155 9.65803 28.3775 9.87777L29.3815 9.87772L28.5751 10.5089L28.8718 11.5235L28.11 10.9236C27.9908 10.9369 27.4252 11.4051 27.2758 11.5201L27.581 10.5087L26.7894 9.8759L27.7705 9.87804L28.0655 8.89377Z" fill="#FEFEFF"/>
<path d="M22.4644 8.89246C22.5667 9.17044 22.681 9.58485 22.771 9.87793L23.7484 9.87699C23.4954 10.0955 23.2181 10.3004 22.9525 10.5025L23.2578 11.5182C23.0034 11.3332 22.7149 11.0953 22.4627 10.8985L21.6585 11.5307L21.9635 10.5097C21.7065 10.3085 21.4289 10.0994 21.1899 9.87646L22.1538 9.87739C22.2539 9.53583 22.347 9.22725 22.4644 8.89246Z" fill="#FEFEFF"/>
<path d="M19.6439 16.6535C19.7178 16.7587 19.9093 17.4547 19.9604 17.6295L20.9433 17.6291C20.6867 17.8397 20.412 18.0502 20.1509 18.2568L20.4547 19.2821L19.6797 18.6703C19.5794 18.6697 18.9675 19.1935 18.8444 19.2936L19.1589 18.2574L18.3654 17.6286L19.3449 17.6296C19.4426 17.3036 19.5423 16.9781 19.6439 16.6535Z" fill="#FEFEFF"/>
<path d="M25.2527 16.6774C25.3643 16.8477 25.5086 17.3986 25.5758 17.6295L26.573 17.6279L25.7645 18.2616L26.073 19.2713C25.8267 19.097 25.5216 18.8429 25.2778 18.652C25.2007 18.6917 24.5702 19.1966 24.4598 19.2831L24.7717 18.2649C24.5256 18.0564 24.233 17.864 24.0111 17.6285L24.9636 17.6292L25.2527 16.6774Z" fill="#FEFEFF"/>
<path d="M11.2061 19.2639C11.3095 19.3449 11.4872 20.0346 11.5387 20.2116L12.5287 20.2121L11.7307 20.8342C11.8188 21.168 11.9353 21.5371 12.033 21.8714C11.7836 21.659 11.4896 21.4374 11.2308 21.2331L10.4257 21.8679C10.5308 21.533 10.63 21.179 10.7301 20.8409C10.4738 20.64 10.1986 20.4321 9.95886 20.2112L10.9215 20.2115L11.2061 19.2639Z" fill="#FEFEFF"/>
<path d="M30.8637 1.1853C30.9721 1.29161 31.1372 1.93771 31.1932 2.12962L32.174 2.13026C31.9364 2.33204 31.6335 2.55703 31.3853 2.75261C31.481 3.09617 31.5794 3.43886 31.6804 3.78062L30.8907 3.15231C30.6926 3.27983 30.2813 3.62685 30.0789 3.78754L30.3869 2.75625L29.5895 2.12915L30.5752 2.12872L30.8637 1.1853Z" fill="#FEFEFF"/>
<path d="M11.2063 14.0987C11.3107 14.1806 11.4875 14.8697 11.5391 15.0479L12.5154 15.0468C12.2801 15.2517 11.973 15.4795 11.7245 15.6744L12.0407 16.7046L11.2324 16.0656L10.4287 16.6974L10.7302 15.6724C10.4786 15.476 10.1992 15.2684 9.96997 15.0467L10.9197 15.0476L11.2063 14.0987Z" fill="#FEFEFF"/>
<path d="M28.0655 14.0595C28.1624 14.2465 28.3123 14.8133 28.3791 15.0479L29.3688 15.0475L28.5694 15.6788C28.6758 15.9933 28.7776 16.365 28.8737 16.6876L28.11 16.0927C27.9926 16.1053 27.4409 16.5606 27.2775 16.6812L27.5806 15.6777L26.7958 15.0467L27.7718 15.0475L28.0655 14.0595Z" fill="#FEFEFF"/>
<path d="M14.0333 1.14258C14.1311 1.35731 14.2703 1.87959 14.3431 2.12963L15.3278 2.13017C15.1432 2.30021 14.7422 2.5924 14.5314 2.75661L14.8394 3.76988C14.5932 3.59635 14.2819 3.33697 14.0379 3.14603L13.231 3.78472L13.5427 2.76266C13.28 2.55535 13.0145 2.34989 12.762 2.12858L13.7358 2.12875C13.8296 1.79818 13.9288 1.46941 14.0333 1.14258Z" fill="#FEFEFF"/>
<path d="M30.8643 6.3515C30.9698 6.45614 31.1375 7.10543 31.1938 7.29659L32.1781 7.29418L31.3832 7.92099L31.6803 8.95214C31.4469 8.74741 31.1375 8.51564 30.8907 8.32004C30.715 8.43033 30.2681 8.80008 30.0823 8.94488L30.3867 7.92352C30.1313 7.72525 29.8524 7.51757 29.6173 7.29516L30.574 7.29645L30.8643 6.3515Z" fill="#FEFEFF"/>
<path d="M5.60718 14.0597C5.69297 14.224 5.85822 14.8336 5.92012 15.0479L6.91273 15.0467L6.11268 15.6773L6.41809 16.6883C6.171 16.5133 5.8655 16.2574 5.62158 16.0651C5.3524 16.2773 5.08079 16.4858 4.8068 16.6907L5.1218 15.6819C4.86557 15.4804 4.58792 15.2714 4.35156 15.0466L5.30934 15.0473L5.60718 14.0597Z" fill="#FEFEFF"/>
<path d="M30.865 21.8477C30.9684 21.9514 31.1376 22.606 31.1933 22.7955L32.178 22.7962L31.3831 23.4195L31.6855 24.4523C31.4333 24.24 31.1467 24.0241 30.8862 23.8197C30.703 23.937 30.2689 24.3027 30.0775 24.4545L30.3886 23.426L29.5914 22.7963L30.5756 22.7944L30.865 21.8477Z" fill="#FEFEFF"/>
<path d="M19.6436 1.14948C19.7206 1.26618 19.907 1.94753 19.9597 2.12902L20.954 2.13076L20.1514 2.75639L20.4521 3.78249C20.2004 3.57593 19.9362 3.37091 19.6812 3.16764C19.5504 3.19933 19.0259 3.64115 18.852 3.76918L19.1605 2.75571L18.3627 2.12959L19.3457 2.12902L19.6436 1.14948Z" fill="#FEFEFF"/>
<path d="M22.4636 3.72668C22.5613 3.98181 22.6862 4.43838 22.7706 4.71411L23.7497 4.71398C23.4983 4.9241 23.2133 5.13601 22.9532 5.33722L23.26 6.35106C23.0364 6.20038 22.6837 5.90605 22.4592 5.73106L21.659 6.36343L21.964 5.34479L21.1669 4.71451L22.1534 4.71309C22.2535 4.37104 22.3475 4.06254 22.4636 3.72668Z" fill="#FEFEFF"/>
<path d="M11.2055 3.76746C11.315 3.8544 11.4837 4.52463 11.5383 4.71436L12.521 4.71369L11.7258 5.33907L12.0309 6.34814C11.8104 6.2029 11.4564 5.90434 11.2374 5.73082C11.0029 5.89446 10.6646 6.17965 10.4296 6.36453L10.7301 5.3405C10.4721 5.13848 10.206 4.93713 9.96375 4.71432L10.9205 4.71325L11.2055 3.76746Z" fill="#FEFEFF"/>
<path d="M2.78176 11.515C2.89167 11.6035 3.06137 12.276 3.11547 12.4641L4.10358 12.4654L3.29883 13.088L3.60949 14.0993C3.38021 13.9464 3.03315 13.6568 2.80522 13.4785L2.00514 14.1116L2.306 13.0914C2.07242 12.9074 1.75277 12.6694 1.54626 12.4651L2.50435 12.4636L2.78176 11.515Z" fill="#FEFEFF"/>
<path d="M22.4409 14.0991C22.5403 14.1813 22.7176 14.8706 22.7691 15.048L23.7473 15.0469C23.494 15.2597 23.2157 15.4688 22.9541 15.672L23.2581 16.6832C23.0362 16.5328 22.6863 16.2378 22.4642 16.0625L21.6544 16.7017L21.9643 15.6762C21.7115 15.4791 21.4285 15.2691 21.1985 15.0464L22.1525 15.0474L22.4409 14.0991Z" fill="#FEFEFF"/>
<path d="M14.0332 11.4732C14.1307 11.6922 14.2694 12.2113 14.3433 12.4643L15.3457 12.4665C15.0949 12.6392 14.7794 12.8997 14.5324 13.092L14.8367 14.0987C14.6016 13.9378 14.2702 13.6607 14.0367 13.4778L13.2371 14.1115L13.5443 13.097C13.3198 12.9208 12.97 12.6615 12.778 12.4648L13.7352 12.4632C13.8252 12.1361 13.9336 11.7984 14.0332 11.4732Z" fill="#FEFEFF"/>
<path d="M2.78226 6.34976C2.89155 6.43752 3.06146 7.11135 3.11496 7.29636L4.09241 7.29493C3.86287 7.4974 3.54527 7.7325 3.30051 7.92459L3.61018 8.93272C3.37862 8.77675 3.0366 8.49235 2.80599 8.31282L2.01037 8.94742L2.30512 7.92325C2.04764 7.72177 1.77812 7.51859 1.53845 7.29449L2.50325 7.29645L2.78226 6.34976Z" fill="#FEFEFF"/>
<path d="M25.2606 1.14301C25.3762 1.41665 25.4867 1.83216 25.5739 2.12952L26.5702 2.13116L25.7609 2.7568L26.0737 3.77267C25.8273 3.59788 25.5208 3.34189 25.2769 3.15032C25.0988 3.26268 24.65 3.63072 24.4628 3.77542L24.7704 2.76621C24.5459 2.56633 24.2177 2.32104 23.9773 2.12956L24.9657 2.12646L25.2606 1.14301Z" fill="#FEFEFF"/>
<path d="M2.78226 16.681C2.89501 16.7771 3.05836 17.4377 3.11288 17.6295L4.09361 17.6285C3.84993 17.8388 3.55656 18.0571 3.30083 18.2563L3.61105 19.2713C3.36787 19.1029 3.04385 18.8339 2.80228 18.6461C2.56013 18.8525 2.26326 19.0765 2.01168 19.277C2.10604 18.936 2.20367 18.5961 2.30458 18.2574L1.51208 17.6292L2.50325 17.6297L2.78226 16.681Z" fill="#FEFEFF"/>
<path d="M30.865 16.6827C30.9684 16.7871 31.1393 17.4432 31.1946 17.6297L32.1757 17.6287C31.9324 17.8342 31.6361 18.0554 31.3833 18.2544L31.6812 19.2835C31.4308 19.0727 31.1476 18.8566 30.8902 18.6515C30.6318 18.8378 30.3383 19.0817 30.0837 19.2823L30.3868 18.2533C30.1624 18.0801 29.8166 17.8294 29.6306 17.6289L30.5742 17.6294L30.865 16.6827Z" fill="#FEFEFF"/>
<path d="M14.0325 16.6393C14.1076 16.7939 14.2848 17.429 14.3445 17.6297L15.3319 17.6285L14.5332 18.2633L14.8383 19.2716L14.0425 18.6508L13.2454 19.2711C13.3232 18.9593 13.4497 18.573 13.5434 18.2599C13.3282 18.0917 12.9596 17.8201 12.7838 17.6285L13.7336 17.6294L14.0325 16.6393Z" fill="#FEFEFF"/>
<path d="M2.78106 1.18338C2.89247 1.27084 3.06053 1.93959 3.11481 2.12855L4.0984 2.13028C3.83668 2.34724 3.56846 2.5483 3.29868 2.7531L3.60931 3.76852C3.36624 3.5982 3.05605 3.33915 2.81568 3.1505C2.69847 3.21807 2.14237 3.67233 2.00251 3.78227C2.10829 3.45046 2.20657 3.09532 2.30506 2.75922C2.04325 2.55136 1.78603 2.34864 1.53223 2.12932L2.50507 2.12888L2.78106 1.18338Z" fill="#FEFEFF"/>
<path d="M25.26 21.807C25.3718 22.0703 25.489 22.5073 25.5741 22.7948L26.5731 22.7964C26.3035 23.0004 26.0303 23.2201 25.7628 23.4292L26.0734 24.4418C25.8156 24.2528 25.5282 24.0139 25.2734 23.8129L24.4623 24.4438L24.7726 23.4327C24.5264 23.2242 24.2315 23.0267 24.0067 22.7956L24.9647 22.7941L25.26 21.807Z" fill="#FEFEFF"/>
<path d="M14.0325 6.30841C14.1104 6.46604 14.2841 7.09351 14.3441 7.29637L15.32 7.29468C15.111 7.48753 14.762 7.74454 14.5312 7.92518L14.8384 8.93982C14.5706 8.73486 14.3061 8.52492 14.0449 8.31007L13.2456 8.93483C13.3129 8.64981 13.4549 8.21982 13.5414 7.92843C13.2849 7.72686 13.0074 7.51687 12.7682 7.2949L13.733 7.29642C13.8288 6.96741 13.9325 6.6364 14.0325 6.30841Z" fill="#FEFEFF"/>
<path d="M25.2603 11.4744C25.3759 11.7499 25.4864 12.165 25.5741 12.4638L26.5766 12.4662C26.3195 12.6472 26.0157 12.8987 25.7628 13.0969L26.074 14.1098C25.8154 13.9193 25.5343 13.6872 25.2787 13.4861C25.1811 13.5381 24.5865 14.0188 24.4615 14.117L24.771 13.1004C24.5237 12.8804 24.2497 12.7084 24.0061 12.4654L24.9645 12.4628L25.2603 11.4744Z" fill="#FEFEFF"/>
<path d="M25.26 6.31C25.3717 6.5719 25.4894 7.00854 25.5748 7.29582L26.5504 7.29556C26.3811 7.45826 25.9626 7.76972 25.7638 7.92717L26.0746 8.9406C25.8247 8.76205 25.5244 8.51185 25.2773 8.31785C25.1816 8.37039 24.5832 8.85542 24.4594 8.95289L24.7713 7.9294L23.9836 7.29462L24.9636 7.29591L25.26 6.31Z" fill="#FEFEFF"/>
<path d="M33.6894 0H84.2289V3.69078V7.38617V11.0749V14.7651L33.6887 14.7647L33.6871 11.0754L33.6882 7.38283L33.6875 3.69394L33.6894 0Z" fill="#FEFEFF"/>
<path d="M33.6882 7.38284L84.2289 7.38618V11.0749V14.7651L33.6887 14.7647L33.6871 11.0755L33.6882 7.38284Z" fill="#B41942"/>
<path d="M33.6871 11.0754L84.2289 11.0749V14.7651L33.6887 14.7647L33.6871 11.0754Z" fill="#FEFEFF"/>
<path d="M33.6894 0H84.2289V3.69078L50.4826 3.69045L39.2923 3.69048C37.5166 3.6905 35.4444 3.6327 33.6875 3.69394L33.6894 0Z" fill="#B41942"/>
<path d="M0 29.5238L84.2289 29.5237V33.2162V36.9104L0 36.9106V33.2152V29.5238Z" fill="#FEFEFF"/>
<path d="M0 29.5238L84.2289 29.5237V33.2162L0 33.2152V29.5238Z" fill="#B41942"/>
<path d="M33.6887 14.7647L84.2288 14.7651V18.4466V22.1431L33.6884 22.1428L33.6873 18.4522L33.6887 14.7647Z" fill="#FEFEFF"/>
<path d="M33.6887 14.7647L84.2288 14.7651V18.4466L50.7635 18.4452L39.6263 18.4453C37.6695 18.4454 35.6391 18.4165 33.6873 18.4522L33.6887 14.7647Z" fill="#B41942"/>
<path d="M33.6884 22.1428L84.2289 22.1431V25.8297L33.6875 25.8312L33.6884 22.1428Z" fill="#B41942"/>
</g>
<rect x="1" y="1" width="46" height="46" rx="23" stroke="#FFAE00" stroke-width="2"/>
<defs>
<clipPath id="clip0_8_21">
<rect width="48" height="48" rx="24" fill="white"/>
</clipPath>
</defs>
</svg>
